M48
; DRILL file KiCad 10.0.5 date 2026-10-10T01:33:55
; FORMAT={-:-/ absolute / metric / decimal}
; #@! TF.CreationDate,2026-10-10T01:33:55-04:00
; #@! TF.GenerationSoftware,Kicad,Pcbnew,10.0.5
; #@! TF.FileFunction,Plated,1,2,PTH
FMAT,2
METRIC
; #@! TA.AperFunction,Plated,PTH,ViaDrill
T1C0.300
; #@! TA.AperFunction,Plated,PTH,ComponentDrill
T2C0.750
; #@! TA.AperFunction,Plated,PTH,ComponentDrill
T3C0.800
; #@! TA.AperFunction,Plated,PTH,ComponentDrill
T4C0.900
; #@! TA.AperFunction,Plated,PTH,ComponentDrill
T5C1.000
; #@! TA.AperFunction,Plated,PTH,ComponentDrill
T6C1.050
%
G90
G05
T1
X66.2Y-50.8
X66.2Y-59.4
X67.0Y-51.0
X67.0Y-56.2
X85.0Y-63.2
T2
X52.45Y-67.15
X52.45Y-69.15
X78.6Y-65.86
X78.6Y-67.13
X78.6Y-68.4
T3
X55.12Y-37.2
X58.44Y-67.2
X65.28Y-37.2
X68.6Y-67.2
X71.32Y-37.4
X79.0Y-76.4
X81.0Y-76.4
X81.48Y-37.4
X85.19Y-74.6
X92.64Y-63.6
X92.75Y-57.25
X92.81Y-74.6
X92.84Y-51.0
X102.8Y-63.6
X102.91Y-57.25
X103.0Y-51.0
T4
X113.0Y-54.523
X113.0Y-56.682
X113.0Y-58.841
X113.0Y-61.0
T5
X47.5Y-53.42
X47.5Y-55.96
X47.5Y-58.5
X61.05Y-76.5
X63.59Y-76.5
X64.79Y-30.4
X66.13Y-76.5
X67.33Y-30.4
X68.67Y-76.5
X69.87Y-30.4
X71.21Y-76.5
X72.41Y-30.4
X73.75Y-76.5
X91.46Y-29.25
X91.46Y-31.79
X91.46Y-34.33
X91.46Y-36.87
X91.46Y-39.41
X91.46Y-41.95
X91.46Y-44.49
X99.15Y-73.75
X106.7Y-29.25
X106.7Y-31.79
X106.7Y-34.33
X106.7Y-36.87
X106.7Y-39.41
X106.7Y-41.95
X106.7Y-44.49
X106.75Y-73.75
X112.8Y-42.26
X112.8Y-44.8
T6
X94.635Y-36.552
X94.635Y-34.648
X97.81Y-28.297
X97.81Y-30.837
X100.35Y-28.297
X100.35Y-30.837
X102.89Y-46.078
X104.795Y-46.078
M30
