%TF.GenerationSoftware,KiCad,Pcbnew,10.0.5*%
%TF.CreationDate,2026-10-10T01:32:03-04:00*%
%TF.ProjectId,AttendanceTerminalv2,41747465-6e64-4616-9e63-655465726d69,rev?*%
%TF.SameCoordinates,Original*%
%TF.FileFunction,Legend,Bot*%
%TF.FilePolarity,Positive*%
%FSLAX46Y46*%
G04 Gerber Fmt 4.6, Leading zero omitted, Abs format (unit mm)*
G04 Created by KiCad (PCBNEW 10.0.5) date 2026-10-10 01:32:03*
%MOMM*%
%LPD*%
G01*
G04 APERTURE LIST*
%ADD10C,0.150000*%
G04 APERTURE END LIST*
D10*
X99164886Y-36498509D02*
X99022029Y-36546128D01*
X99022029Y-36546128D02*
X98974410Y-36593747D01*
X98974410Y-36593747D02*
X98926791Y-36688985D01*
X98926791Y-36688985D02*
X98926791Y-36831842D01*
X98926791Y-36831842D02*
X98974410Y-36927080D01*
X98974410Y-36927080D02*
X99022029Y-36974700D01*
X99022029Y-36974700D02*
X99117267Y-37022319D01*
X99117267Y-37022319D02*
X99498219Y-37022319D01*
X99498219Y-37022319D02*
X99498219Y-36022319D01*
X99498219Y-36022319D02*
X99164886Y-36022319D01*
X99164886Y-36022319D02*
X99069648Y-36069938D01*
X99069648Y-36069938D02*
X99022029Y-36117557D01*
X99022029Y-36117557D02*
X98974410Y-36212795D01*
X98974410Y-36212795D02*
X98974410Y-36308033D01*
X98974410Y-36308033D02*
X99022029Y-36403271D01*
X99022029Y-36403271D02*
X99069648Y-36450890D01*
X99069648Y-36450890D02*
X99164886Y-36498509D01*
X99164886Y-36498509D02*
X99498219Y-36498509D01*
X98545838Y-36736604D02*
X98069648Y-36736604D01*
X98641076Y-37022319D02*
X98307743Y-36022319D01*
X98307743Y-36022319D02*
X97974410Y-37022319D01*
X97783933Y-36022319D02*
X97212505Y-36022319D01*
X97498219Y-37022319D02*
X97498219Y-36022319D01*
X96879171Y-36641366D02*
X96117267Y-36641366D01*
X96498219Y-37022319D02*
X96498219Y-36260414D01*
X99164886Y-34593509D02*
X99022029Y-34641128D01*
X99022029Y-34641128D02*
X98974410Y-34688747D01*
X98974410Y-34688747D02*
X98926791Y-34783985D01*
X98926791Y-34783985D02*
X98926791Y-34926842D01*
X98926791Y-34926842D02*
X98974410Y-35022080D01*
X98974410Y-35022080D02*
X99022029Y-35069700D01*
X99022029Y-35069700D02*
X99117267Y-35117319D01*
X99117267Y-35117319D02*
X99498219Y-35117319D01*
X99498219Y-35117319D02*
X99498219Y-34117319D01*
X99498219Y-34117319D02*
X99164886Y-34117319D01*
X99164886Y-34117319D02*
X99069648Y-34164938D01*
X99069648Y-34164938D02*
X99022029Y-34212557D01*
X99022029Y-34212557D02*
X98974410Y-34307795D01*
X98974410Y-34307795D02*
X98974410Y-34403033D01*
X98974410Y-34403033D02*
X99022029Y-34498271D01*
X99022029Y-34498271D02*
X99069648Y-34545890D01*
X99069648Y-34545890D02*
X99164886Y-34593509D01*
X99164886Y-34593509D02*
X99498219Y-34593509D01*
X98545838Y-34831604D02*
X98069648Y-34831604D01*
X98641076Y-35117319D02*
X98307743Y-34117319D01*
X98307743Y-34117319D02*
X97974410Y-35117319D01*
X97783933Y-34117319D02*
X97212505Y-34117319D01*
X97498219Y-35117319D02*
X97498219Y-34117319D01*
X96879171Y-34736366D02*
X96117267Y-34736366D01*
M02*
