%TF.GenerationSoftware,KiCad,Pcbnew,10.0.5*%
%TF.CreationDate,2026-10-10T01:32:03-04:00*%
%TF.ProjectId,AttendanceTerminalv2,41747465-6e64-4616-9e63-655465726d69,rev?*%
%TF.SameCoordinates,Original*%
%TF.FileFunction,Copper,L2,Bot*%
%TF.FilePolarity,Positive*%
%FSLAX46Y46*%
G04 Gerber Fmt 4.6, Leading zero omitted, Abs format (unit mm)*
G04 Created by KiCad (PCBNEW 10.0.5) date 2026-10-10 01:32:03*
%MOMM*%
%LPD*%
G01*
G04 APERTURE LIST*
G04 Aperture macros list*
%AMRoundRect*
0 Rectangle with rounded corners*
0 $1 Rounding radius*
0 $2 $3 $4 $5 $6 $7 $8 $9 X,Y pos of 4 corners*
0 Add a 4 corners polygon primitive as box body*
4,1,4,$2,$3,$4,$5,$6,$7,$8,$9,$2,$3,0*
0 Add four circle primitives for the rounded corners*
1,1,$1+$1,$2,$3*
1,1,$1+$1,$4,$5*
1,1,$1+$1,$6,$7*
1,1,$1+$1,$8,$9*
0 Add four rect primitives between the rounded corners*
20,1,$1+$1,$2,$3,$4,$5,0*
20,1,$1+$1,$4,$5,$6,$7,0*
20,1,$1+$1,$6,$7,$8,$9,0*
20,1,$1+$1,$8,$9,$2,$3,0*%
G04 Aperture macros list end*
%TA.AperFunction,ComponentPad*%
%ADD10RoundRect,0.450000X0.450000X0.450000X-0.450000X0.450000X-0.450000X-0.450000X0.450000X-0.450000X0*%
%TD*%
%TA.AperFunction,ComponentPad*%
%ADD11C,1.800000*%
%TD*%
%TA.AperFunction,ComponentPad*%
%ADD12RoundRect,0.337500X0.337500X-0.562500X0.337500X0.562500X-0.337500X0.562500X-0.337500X-0.562500X0*%
%TD*%
%TA.AperFunction,ComponentPad*%
%ADD13RoundRect,0.337500X-0.562500X-0.337500X0.562500X-0.337500X0.562500X0.337500X-0.562500X0.337500X0*%
%TD*%
%TA.AperFunction,ComponentPad*%
%ADD14R,1.500000X1.050000*%
%TD*%
%TA.AperFunction,ComponentPad*%
%ADD15O,1.500000X1.050000*%
%TD*%
%TA.AperFunction,ComponentPad*%
%ADD16R,1.700000X1.700000*%
%TD*%
%TA.AperFunction,ComponentPad*%
%ADD17C,1.700000*%
%TD*%
%TA.AperFunction,ComponentPad*%
%ADD18RoundRect,0.250000X0.625000X-0.350000X0.625000X0.350000X-0.625000X0.350000X-0.625000X-0.350000X0*%
%TD*%
%TA.AperFunction,ComponentPad*%
%ADD19O,1.750000X1.200000*%
%TD*%
%TA.AperFunction,ComponentPad*%
%ADD20C,1.600000*%
%TD*%
%TA.AperFunction,ComponentPad*%
%ADD21RoundRect,0.250000X-0.550000X-0.550000X0.550000X-0.550000X0.550000X0.550000X-0.550000X0.550000X0*%
%TD*%
%TA.AperFunction,ComponentPad*%
%ADD22RoundRect,0.250000X0.550000X0.550000X-0.550000X0.550000X-0.550000X-0.550000X0.550000X-0.550000X0*%
%TD*%
%TA.AperFunction,ComponentPad*%
%ADD23R,2.000000X2.000000*%
%TD*%
%TA.AperFunction,ComponentPad*%
%ADD24C,2.000000*%
%TD*%
%TA.AperFunction,ComponentPad*%
%ADD25R,1.800000X1.800000*%
%TD*%
%TA.AperFunction,ViaPad*%
%ADD26C,0.600000*%
%TD*%
%TA.AperFunction,Conductor*%
%ADD27C,0.600000*%
%TD*%
%TA.AperFunction,Conductor*%
%ADD28C,0.300000*%
%TD*%
%TA.AperFunction,Conductor*%
%ADD29C,0.200000*%
%TD*%
G04 APERTURE END LIST*
D10*
%TO.P,U1,22,GND_22*%
%TO.N,unconnected-(U1-GND-Pad22)*%
X100350000Y-30837500D03*
D11*
%TO.P,U1,21,RST_21*%
%TO.N,unconnected-(U1-RST-Pad21)*%
X97810000Y-30837500D03*
%TO.P,U1,20,CLK_20*%
%TO.N,unconnected-(U1-CLK-Pad20)*%
X100350000Y-28297500D03*
%TO.P,U1,19,DIO_19*%
%TO.N,unconnected-(U1-DIO-Pad19)*%
X97810000Y-28297500D03*
D12*
%TO.P,U1,18,P0.10_18*%
%TO.N,unconnected-(U1-P0.10-Pad18)_1*%
X104795000Y-46077500D03*
%TO.P,U1,17,P0.09_17*%
%TO.N,unconnected-(U1-P0.09-Pad17)*%
X102890000Y-46077500D03*
D13*
%TO.P,U1,16,BAT+_16*%
%TO.N,unconnected-(U1-BAT+-Pad16)_1*%
X94634998Y-36552500D03*
%TO.P,U1,15,BAT-_15*%
%TO.N,unconnected-(U1-BAT--Pad15)*%
X94634999Y-34647500D03*
D11*
%TO.P,U1,14,P1.12_14*%
%TO.N,Net-(U1-P1.12)*%
X106700000Y-44490000D03*
%TO.P,U1,13,P1.13_13*%
%TO.N,Net-(U1-P1.13)*%
X106700000Y-41950000D03*
%TO.P,U1,12,P1.14_12*%
%TO.N,Net-(U1-P1.14)*%
X106700000Y-39410000D03*
%TO.P,U1,11,P1.15_11*%
%TO.N,/BUZZER*%
X106700000Y-36870000D03*
%TO.P,U1,10,3V3_10*%
%TO.N,+3V3*%
X106700000Y-34330000D03*
D10*
%TO.P,U1,9,GND_9*%
%TO.N,GND*%
X106700000Y-31790000D03*
D11*
%TO.P,U1,8,5V_8*%
%TO.N,unconnected-(U1-5V-Pad8)*%
X106700000Y-29250000D03*
%TO.P,U1,7,P1.11_7*%
%TO.N,unconnected-(U1-P1.11-Pad7)*%
X91460000Y-44490000D03*
%TO.P,U1,6,P0.05_6*%
%TO.N,/SCL*%
X91460000Y-41950000D03*
%TO.P,U1,5,P0.04_5*%
%TO.N,/SDA*%
X91460000Y-39410000D03*
%TO.P,U1,4,P0.29_4*%
%TO.N,/SCAN_TX*%
X91460000Y-36870000D03*
%TO.P,U1,3,P0.28_3*%
%TO.N,unconnected-(U1-P0.28-Pad3)_1*%
X91460000Y-34330000D03*
%TO.P,U1,2,P0.03_2*%
%TO.N,/SCAN_RX*%
X91460000Y-31790000D03*
%TO.P,U1,1,P0.02_1*%
%TO.N,unconnected-(U1-P0.02-Pad1)*%
X91460000Y-29250000D03*
%TD*%
D14*
%TO.P,Q2,1,S_1*%
%TO.N,GND*%
X78600000Y-65860000D03*
D15*
%TO.P,Q2,2,G_2*%
%TO.N,/BUZZER*%
X78600000Y-67130000D03*
%TO.P,Q2,3,D_3*%
%TO.N,Net-(BZ1--)*%
X78600000Y-68400000D03*
%TD*%
D16*
%TO.P,J1,1,Pin_1_1*%
%TO.N,+3V3*%
X64790000Y-30400000D03*
D17*
%TO.P,J1,2,Pin_2_2*%
%TO.N,GND*%
X67330000Y-30400000D03*
%TO.P,J1,3,Pin_3_3*%
%TO.N,/SCL*%
X69870000Y-30400000D03*
%TO.P,J1,4,Pin_4_4*%
%TO.N,/SDA*%
X72410000Y-30400000D03*
%TD*%
D18*
%TO.P,J4,1,Pin_1_1*%
%TO.N,Net-(J4-Pin_1)*%
X52450000Y-69150000D03*
D19*
%TO.P,J4,2,Pin_2_2*%
%TO.N,GND*%
X52450000Y-67150000D03*
%TD*%
D16*
%TO.P,J3,1,Pin_1_1*%
%TO.N,Net-(J3-Pin_1)*%
X112800000Y-44800000D03*
D17*
%TO.P,J3,2,Pin_2_2*%
%TO.N,GND*%
X112800000Y-42260000D03*
%TD*%
D20*
%TO.P,R4,2*%
%TO.N,/BUZZER*%
X68600000Y-67200000D03*
%TO.P,R4,1*%
%TO.N,GND*%
X58440000Y-67200000D03*
%TD*%
D16*
%TO.P,SW1,1,A_1*%
%TO.N,unconnected-(SW1-A-Pad1)*%
X47500000Y-53420000D03*
D17*
%TO.P,SW1,2,B_2*%
%TO.N,Net-(J4-Pin_1)*%
X47500000Y-55960000D03*
%TO.P,SW1,3,C_3*%
%TO.N,Net-(J3-Pin_1)*%
X47500000Y-58500000D03*
%TD*%
D20*
%TO.P,R6,2*%
%TO.N,/SDA*%
X71320000Y-37400000D03*
%TO.P,R6,1*%
%TO.N,+3V3*%
X81480000Y-37400000D03*
%TD*%
%TO.P,R5,2*%
%TO.N,/SCL*%
X65280000Y-37200000D03*
%TO.P,R5,1*%
%TO.N,+3V3*%
X55120000Y-37200000D03*
%TD*%
D21*
%TO.P,D2,1,K_1*%
%TO.N,+3V3*%
X85190000Y-74600000D03*
D20*
%TO.P,D2,2,A_2*%
%TO.N,Net-(BZ1--)*%
X92810000Y-74600000D03*
%TD*%
%TO.P,R3,1*%
%TO.N,Net-(D3-BA)*%
X102800000Y-63600000D03*
%TO.P,R3,2*%
%TO.N,Net-(U1-P1.14)*%
X92640000Y-63600000D03*
%TD*%
%TO.P,R2,1*%
%TO.N,Net-(U1-P1.13)*%
X92750000Y-57250000D03*
%TO.P,R2,2*%
%TO.N,Net-(D3-GA)*%
X102910000Y-57250000D03*
%TD*%
%TO.P,R1,1*%
%TO.N,Net-(U1-P1.12)*%
X92840000Y-51000000D03*
%TO.P,R1,2*%
%TO.N,Net-(D3-RA)*%
X103000000Y-51000000D03*
%TD*%
D22*
%TO.P,C1,1*%
%TO.N,+3V3*%
X81000000Y-76400000D03*
D20*
%TO.P,C1,2*%
%TO.N,GND*%
X79000000Y-76400000D03*
%TD*%
D16*
%TO.P,J2,1,Pin_1_1*%
%TO.N,unconnected-(J2-Pin_1-Pad1)*%
X73750000Y-76500000D03*
D17*
%TO.P,J2,2,Pin_2_2*%
%TO.N,unconnected-(J2-Pin_2-Pad2)*%
X71210000Y-76500000D03*
%TO.P,J2,3,Pin_3_3*%
%TO.N,GND*%
X68670000Y-76500000D03*
%TO.P,J2,4,Pin_4_4*%
%TO.N,/SCAN_RX*%
X66130000Y-76500000D03*
%TO.P,J2,5,Pin_5_5*%
%TO.N,/SCAN_TX*%
X63590000Y-76500000D03*
%TO.P,J2,6,Pin_6_6*%
%TO.N,+3V3*%
X61050000Y-76500000D03*
%TD*%
D23*
%TO.P,BZ1,1,+_1*%
%TO.N,+3V3*%
X106750000Y-73750000D03*
D24*
%TO.P,BZ1,2,-_2*%
%TO.N,Net-(BZ1--)*%
X99150000Y-73750000D03*
%TD*%
D25*
%TO.P,D3,1,RA_1*%
%TO.N,Net-(D3-RA)*%
X113000000Y-54523000D03*
D11*
%TO.P,D3,2,K_2*%
%TO.N,GND*%
X113000000Y-56682000D03*
%TO.P,D3,3,GA_3*%
%TO.N,Net-(D3-GA)*%
X113000000Y-58841000D03*
%TO.P,D3,4,BA_4*%
%TO.N,Net-(D3-BA)*%
X113000000Y-61000000D03*
%TD*%
D26*
%TO.N,+3V3*%
X85000000Y-63200000D03*
%TO.N,/SCAN_RX*%
X66200000Y-50800000D03*
X66200000Y-59400000D03*
%TO.N,/SCAN_TX*%
X67000000Y-51000000D03*
X67000000Y-56200000D03*
%TD*%
%TO.N,+3V3*%
D27*
X85190000Y-63390000D02*
X85190000Y-74600000D01*
X85000000Y-63200000D02*
X85190000Y-63390000D01*
X102650000Y-73750000D02*
X106750000Y-73750000D01*
X97600000Y-78800000D02*
X102650000Y-73750000D01*
X85190000Y-76990000D02*
X87000000Y-78800000D01*
X85190000Y-74600000D02*
X85190000Y-76990000D01*
X87000000Y-78800000D02*
X97600000Y-78800000D01*
X67000000Y-34800000D02*
X78880000Y-34800000D01*
X78880000Y-34800000D02*
X81480000Y-37400000D01*
X64790000Y-32590000D02*
X67000000Y-34800000D01*
X64790000Y-30400000D02*
X64790000Y-32590000D01*
%TO.N,GND*%
X78107919Y-65860000D02*
X78600000Y-65860000D01*
%TO.N,/SCAN_TX*%
D28*
X63590000Y-60810000D02*
X63590000Y-76500000D01*
X67000000Y-56200000D02*
X67000000Y-57400000D01*
X67000000Y-57400000D02*
X63590000Y-60810000D01*
X74000000Y-51000000D02*
X88130000Y-36870000D01*
X88130000Y-36870000D02*
X91460000Y-36870000D01*
X67000000Y-51000000D02*
X74000000Y-51000000D01*
%TO.N,/SCAN_RX*%
X67000000Y-50000000D02*
X66200000Y-50800000D01*
X91410000Y-31790000D02*
X73200000Y-50000000D01*
X73200000Y-50000000D02*
X67000000Y-50000000D01*
D29*
X91460000Y-31790000D02*
X91410000Y-31790000D01*
X66130000Y-59470000D02*
X66200000Y-59400000D01*
D28*
X66130000Y-76500000D02*
X66130000Y-59470000D01*
%TO.N,Net-(J3-Pin_1)*%
D29*
X103400000Y-54200000D02*
X51800000Y-54200000D01*
X112800000Y-44800000D02*
X103400000Y-54200000D01*
X51800000Y-54200000D02*
X47500000Y-58500000D01*
%TO.N,GND*%
X58390000Y-67150000D02*
X58440000Y-67200000D01*
%TD*%
%TA.AperFunction,Conductor*%
%TO.N,GND*%
G36*
X119442539Y-26520185D02*
G01*
X119488294Y-26572989D01*
X119499500Y-26624500D01*
X119499500Y-82375500D01*
X119479815Y-82442539D01*
X119427011Y-82488294D01*
X119375500Y-82499500D01*
X40624500Y-82499500D01*
X40557461Y-82479815D01*
X40511706Y-82427011D01*
X40500500Y-82375500D01*
X40500500Y-76628711D01*
X44399500Y-76628711D01*
X44399500Y-76871288D01*
X44431161Y-77111785D01*
X44493947Y-77346104D01*
X44557813Y-77500289D01*
X44586776Y-77570212D01*
X44708064Y-77780289D01*
X44708066Y-77780292D01*
X44708067Y-77780293D01*
X44855733Y-77972736D01*
X44855739Y-77972743D01*
X45027256Y-78144260D01*
X45027262Y-78144265D01*
X45219711Y-78291936D01*
X45429788Y-78413224D01*
X45653900Y-78506054D01*
X45888211Y-78568838D01*
X46068586Y-78592584D01*
X46128711Y-78600500D01*
X46128712Y-78600500D01*
X46371289Y-78600500D01*
X46419388Y-78594167D01*
X46611789Y-78568838D01*
X46846100Y-78506054D01*
X47070212Y-78413224D01*
X47280289Y-78291936D01*
X47472738Y-78144265D01*
X47644265Y-77972738D01*
X47791936Y-77780289D01*
X47913224Y-77570212D01*
X48006054Y-77346100D01*
X48068838Y-77111789D01*
X48100500Y-76871288D01*
X48100500Y-76628712D01*
X48083555Y-76499999D01*
X48071052Y-76405026D01*
X48069562Y-76393713D01*
X59699500Y-76393713D01*
X59699500Y-76606287D01*
X59732754Y-76816243D01*
X59792463Y-77000009D01*
X59798444Y-77018414D01*
X59894951Y-77207820D01*
X60019890Y-77379786D01*
X60170213Y-77530109D01*
X60342179Y-77655048D01*
X60342181Y-77655049D01*
X60342184Y-77655051D01*
X60531588Y-77751557D01*
X60733757Y-77817246D01*
X60943713Y-77850500D01*
X60943714Y-77850500D01*
X61156286Y-77850500D01*
X61156287Y-77850500D01*
X61366243Y-77817246D01*
X61568412Y-77751557D01*
X61757816Y-77655051D01*
X61844138Y-77592335D01*
X61929786Y-77530109D01*
X61929788Y-77530106D01*
X61929792Y-77530104D01*
X62080104Y-77379792D01*
X62080106Y-77379788D01*
X62080109Y-77379786D01*
X62205048Y-77207820D01*
X62205047Y-77207820D01*
X62205051Y-77207816D01*
X62209514Y-77199054D01*
X62257488Y-77148259D01*
X62325308Y-77131463D01*
X62391444Y-77153999D01*
X62430486Y-77199056D01*
X62434951Y-77207820D01*
X62559890Y-77379786D01*
X62710213Y-77530109D01*
X62882179Y-77655048D01*
X62882181Y-77655049D01*
X62882184Y-77655051D01*
X63071588Y-77751557D01*
X63273757Y-77817246D01*
X63483713Y-77850500D01*
X63483714Y-77850500D01*
X63696286Y-77850500D01*
X63696287Y-77850500D01*
X63906243Y-77817246D01*
X64108412Y-77751557D01*
X64297816Y-77655051D01*
X64384138Y-77592335D01*
X64469786Y-77530109D01*
X64469788Y-77530106D01*
X64469792Y-77530104D01*
X64620104Y-77379792D01*
X64620106Y-77379788D01*
X64620109Y-77379786D01*
X64745048Y-77207820D01*
X64745047Y-77207820D01*
X64745051Y-77207816D01*
X64749514Y-77199054D01*
X64797488Y-77148259D01*
X64865308Y-77131463D01*
X64931444Y-77153999D01*
X64970486Y-77199056D01*
X64974951Y-77207820D01*
X65099890Y-77379786D01*
X65250213Y-77530109D01*
X65422179Y-77655048D01*
X65422181Y-77655049D01*
X65422184Y-77655051D01*
X65611588Y-77751557D01*
X65813757Y-77817246D01*
X66023713Y-77850500D01*
X66023714Y-77850500D01*
X66236286Y-77850500D01*
X66236287Y-77850500D01*
X66446243Y-77817246D01*
X66648412Y-77751557D01*
X66837816Y-77655051D01*
X66924138Y-77592335D01*
X67009786Y-77530109D01*
X67009788Y-77530106D01*
X67009792Y-77530104D01*
X67160104Y-77379792D01*
X67160106Y-77379788D01*
X67160109Y-77379786D01*
X67245890Y-77261717D01*
X67285051Y-77207816D01*
X67289793Y-77198508D01*
X67337763Y-77147711D01*
X67405583Y-77130911D01*
X67471719Y-77153445D01*
X67510763Y-77198500D01*
X67515373Y-77207547D01*
X67554728Y-77261716D01*
X68187037Y-76629408D01*
X68204075Y-76692993D01*
X68269901Y-76807007D01*
X68362993Y-76900099D01*
X68477007Y-76965925D01*
X68540590Y-76982962D01*
X67908282Y-77615269D01*
X67908282Y-77615270D01*
X67962449Y-77654624D01*
X68151782Y-77751095D01*
X68353870Y-77816757D01*
X68563754Y-77850000D01*
X68776246Y-77850000D01*
X68986127Y-77816757D01*
X68986130Y-77816757D01*
X69188217Y-77751095D01*
X69377554Y-77654622D01*
X69431716Y-77615270D01*
X69431717Y-77615270D01*
X68799408Y-76982962D01*
X68862993Y-76965925D01*
X68977007Y-76900099D01*
X69070099Y-76807007D01*
X69135925Y-76692993D01*
X69152962Y-76629408D01*
X69785270Y-77261717D01*
X69785270Y-77261716D01*
X69824622Y-77207555D01*
X69829232Y-77198507D01*
X69877205Y-77147709D01*
X69945025Y-77130912D01*
X70011161Y-77153447D01*
X70050204Y-77198504D01*
X70054949Y-77207817D01*
X70179890Y-77379786D01*
X70330213Y-77530109D01*
X70502179Y-77655048D01*
X70502181Y-77655049D01*
X70502184Y-77655051D01*
X70691588Y-77751557D01*
X70893757Y-77817246D01*
X71103713Y-77850500D01*
X71103714Y-77850500D01*
X71316286Y-77850500D01*
X71316287Y-77850500D01*
X71526243Y-77817246D01*
X71728412Y-77751557D01*
X71917816Y-77655051D01*
X72034597Y-77570205D01*
X72089784Y-77530110D01*
X72089784Y-77530109D01*
X72089792Y-77530104D01*
X72203329Y-77416566D01*
X72264648Y-77383084D01*
X72334340Y-77388068D01*
X72390274Y-77429939D01*
X72407189Y-77460917D01*
X72456202Y-77592328D01*
X72456206Y-77592335D01*
X72542452Y-77707544D01*
X72542455Y-77707547D01*
X72657664Y-77793793D01*
X72657671Y-77793797D01*
X72792517Y-77844091D01*
X72792516Y-77844091D01*
X72799444Y-77844835D01*
X72852127Y-77850500D01*
X74647872Y-77850499D01*
X74707483Y-77844091D01*
X74842331Y-77793796D01*
X74957546Y-77707546D01*
X75043796Y-77592331D01*
X75094091Y-77457483D01*
X75100500Y-77397873D01*
X75100499Y-76297682D01*
X77700000Y-76297682D01*
X77700000Y-76502317D01*
X77732009Y-76704417D01*
X77795244Y-76899031D01*
X77888141Y-77081350D01*
X77888147Y-77081359D01*
X77920523Y-77125921D01*
X77920524Y-77125922D01*
X78600000Y-76446446D01*
X78600000Y-76452661D01*
X78627259Y-76554394D01*
X78679920Y-76645606D01*
X78754394Y-76720080D01*
X78845606Y-76772741D01*
X78947339Y-76800000D01*
X78953552Y-76800000D01*
X78274076Y-77479474D01*
X78318650Y-77511859D01*
X78500968Y-77604755D01*
X78695582Y-77667990D01*
X78897683Y-77700000D01*
X79102317Y-77700000D01*
X79304417Y-77667990D01*
X79499031Y-77604755D01*
X79681341Y-77511863D01*
X79681349Y-77511858D01*
X79751552Y-77460852D01*
X79817358Y-77437371D01*
X79885412Y-77453196D01*
X79912120Y-77473488D01*
X79981344Y-77542712D01*
X80130666Y-77634814D01*
X80297203Y-77689999D01*
X80399991Y-77700500D01*
X81600008Y-77700499D01*
X81702797Y-77689999D01*
X81869334Y-77634814D01*
X82018656Y-77542712D01*
X82142712Y-77418656D01*
X82234814Y-77269334D01*
X82289999Y-77102797D01*
X82300500Y-77000009D01*
X82300499Y-75799992D01*
X82299701Y-75792184D01*
X82289999Y-75697203D01*
X82289998Y-75697200D01*
X82264485Y-75620208D01*
X82234814Y-75530666D01*
X82142712Y-75381344D01*
X82018656Y-75257288D01*
X81915720Y-75193797D01*
X81869336Y-75165187D01*
X81869331Y-75165185D01*
X81841335Y-75155908D01*
X81702797Y-75110001D01*
X81702795Y-75110000D01*
X81600010Y-75099500D01*
X80399998Y-75099500D01*
X80399981Y-75099501D01*
X80297203Y-75110000D01*
X80297200Y-75110001D01*
X80130668Y-75165185D01*
X80130663Y-75165187D01*
X79981345Y-75257287D01*
X79912121Y-75326511D01*
X79850797Y-75359995D01*
X79781106Y-75355010D01*
X79751555Y-75339147D01*
X79681352Y-75288142D01*
X79499031Y-75195244D01*
X79304417Y-75132009D01*
X79102317Y-75100000D01*
X78897683Y-75100000D01*
X78695582Y-75132009D01*
X78500968Y-75195244D01*
X78318644Y-75288143D01*
X78274077Y-75320523D01*
X78274077Y-75320524D01*
X78953553Y-76000000D01*
X78947339Y-76000000D01*
X78845606Y-76027259D01*
X78754394Y-76079920D01*
X78679920Y-76154394D01*
X78627259Y-76245606D01*
X78600000Y-76347339D01*
X78600000Y-76353553D01*
X77920524Y-75674077D01*
X77920523Y-75674077D01*
X77888143Y-75718644D01*
X77795244Y-75900968D01*
X77732009Y-76095582D01*
X77700000Y-76297682D01*
X75100499Y-76297682D01*
X75100499Y-75602128D01*
X75094091Y-75542517D01*
X75092810Y-75539083D01*
X75045082Y-75411116D01*
X75045081Y-75411114D01*
X75043798Y-75407673D01*
X75043793Y-75407664D01*
X74957547Y-75292455D01*
X74957544Y-75292452D01*
X74842335Y-75206206D01*
X74842328Y-75206202D01*
X74707482Y-75155908D01*
X74707483Y-75155908D01*
X74647883Y-75149501D01*
X74647881Y-75149500D01*
X74647873Y-75149500D01*
X74647864Y-75149500D01*
X72852129Y-75149500D01*
X72852123Y-75149501D01*
X72792516Y-75155908D01*
X72657671Y-75206202D01*
X72657664Y-75206206D01*
X72542455Y-75292452D01*
X72542452Y-75292455D01*
X72456206Y-75407664D01*
X72456203Y-75407669D01*
X72407189Y-75539083D01*
X72365317Y-75595016D01*
X72299853Y-75619433D01*
X72231580Y-75604581D01*
X72203326Y-75583430D01*
X72089786Y-75469890D01*
X71917820Y-75344951D01*
X71728414Y-75248444D01*
X71728413Y-75248443D01*
X71728412Y-75248443D01*
X71526243Y-75182754D01*
X71526241Y-75182753D01*
X71526240Y-75182753D01*
X71364957Y-75157208D01*
X71316287Y-75149500D01*
X71103713Y-75149500D01*
X71055042Y-75157208D01*
X70893760Y-75182753D01*
X70691585Y-75248444D01*
X70502179Y-75344951D01*
X70330213Y-75469890D01*
X70179890Y-75620213D01*
X70054949Y-75792182D01*
X70050202Y-75801499D01*
X70002227Y-75852293D01*
X69934405Y-75869087D01*
X69868271Y-75846548D01*
X69829234Y-75801495D01*
X69824626Y-75792452D01*
X69785270Y-75738282D01*
X69785269Y-75738282D01*
X69152962Y-76370590D01*
X69135925Y-76307007D01*
X69070099Y-76192993D01*
X68977007Y-76099901D01*
X68862993Y-76034075D01*
X68799409Y-76017037D01*
X69431716Y-75384728D01*
X69377550Y-75345375D01*
X69188217Y-75248904D01*
X68986129Y-75183242D01*
X68776246Y-75150000D01*
X68563754Y-75150000D01*
X68353872Y-75183242D01*
X68353869Y-75183242D01*
X68151782Y-75248904D01*
X67962439Y-75345380D01*
X67908282Y-75384727D01*
X67908282Y-75384728D01*
X68540591Y-76017037D01*
X68477007Y-76034075D01*
X68362993Y-76099901D01*
X68269901Y-76192993D01*
X68204075Y-76307007D01*
X68187037Y-76370591D01*
X67554728Y-75738282D01*
X67554727Y-75738282D01*
X67515380Y-75792440D01*
X67515376Y-75792446D01*
X67510760Y-75801505D01*
X67462781Y-75852297D01*
X67394959Y-75869087D01*
X67328826Y-75846543D01*
X67289794Y-75801493D01*
X67285051Y-75792184D01*
X67285049Y-75792181D01*
X67285048Y-75792179D01*
X67160109Y-75620213D01*
X67009786Y-75469890D01*
X66833875Y-75342085D01*
X66834851Y-75340740D01*
X66792834Y-75294295D01*
X66780500Y-75240382D01*
X66780500Y-73999983D01*
X83889500Y-73999983D01*
X83889500Y-75200001D01*
X83889501Y-75200018D01*
X83900000Y-75302796D01*
X83900001Y-75302799D01*
X83955185Y-75469331D01*
X83955187Y-75469336D01*
X83990069Y-75525888D01*
X84047288Y-75618656D01*
X84171344Y-75742712D01*
X84320666Y-75834814D01*
X84320667Y-75834814D01*
X84326813Y-75838605D01*
X84325706Y-75840399D01*
X84370337Y-75879687D01*
X84389500Y-75945908D01*
X84389500Y-77068846D01*
X84420261Y-77223489D01*
X84420264Y-77223501D01*
X84480602Y-77369172D01*
X84480609Y-77369185D01*
X84568210Y-77500288D01*
X84568213Y-77500292D01*
X86489707Y-79421786D01*
X86489711Y-79421789D01*
X86620814Y-79509390D01*
X86620818Y-79509392D01*
X86620821Y-79509394D01*
X86766503Y-79569738D01*
X86921153Y-79600499D01*
X86921157Y-79600500D01*
X86921158Y-79600500D01*
X97678844Y-79600500D01*
X97678845Y-79600499D01*
X97833497Y-79569737D01*
X97979179Y-79509394D01*
X98110289Y-79421789D01*
X100903367Y-76628711D01*
X113149500Y-76628711D01*
X113149500Y-76871288D01*
X113181161Y-77111785D01*
X113243947Y-77346104D01*
X113307813Y-77500289D01*
X113336776Y-77570212D01*
X113458064Y-77780289D01*
X113458066Y-77780292D01*
X113458067Y-77780293D01*
X113605733Y-77972736D01*
X113605739Y-77972743D01*
X113777256Y-78144260D01*
X113777262Y-78144265D01*
X113969711Y-78291936D01*
X114179788Y-78413224D01*
X114403900Y-78506054D01*
X114638211Y-78568838D01*
X114818586Y-78592584D01*
X114878711Y-78600500D01*
X114878712Y-78600500D01*
X115121289Y-78600500D01*
X115169388Y-78594167D01*
X115361789Y-78568838D01*
X115596100Y-78506054D01*
X115820212Y-78413224D01*
X116030289Y-78291936D01*
X116222738Y-78144265D01*
X116394265Y-77972738D01*
X116541936Y-77780289D01*
X116663224Y-77570212D01*
X116756054Y-77346100D01*
X116818838Y-77111789D01*
X116850500Y-76871288D01*
X116850500Y-76628712D01*
X116818838Y-76388211D01*
X116756054Y-76153900D01*
X116752966Y-76146446D01*
X116731898Y-76095582D01*
X116663224Y-75929788D01*
X116541936Y-75719711D01*
X116394265Y-75527262D01*
X116394260Y-75527256D01*
X116222743Y-75355739D01*
X116222736Y-75355733D01*
X116030293Y-75208067D01*
X116030292Y-75208066D01*
X116030289Y-75208064D01*
X115820212Y-75086776D01*
X115770419Y-75066151D01*
X115596104Y-74993947D01*
X115361785Y-74931161D01*
X115121289Y-74899500D01*
X115121288Y-74899500D01*
X114878712Y-74899500D01*
X114878711Y-74899500D01*
X114638214Y-74931161D01*
X114403895Y-74993947D01*
X114179794Y-75086773D01*
X114179785Y-75086777D01*
X114043978Y-75165186D01*
X113983665Y-75200008D01*
X113969706Y-75208067D01*
X113777263Y-75355733D01*
X113777256Y-75355739D01*
X113605739Y-75527256D01*
X113605733Y-75527263D01*
X113458067Y-75719706D01*
X113336777Y-75929785D01*
X113336773Y-75929794D01*
X113243947Y-76153895D01*
X113181161Y-76388214D01*
X113149500Y-76628711D01*
X100903367Y-76628711D01*
X102945259Y-74586819D01*
X103006582Y-74553334D01*
X103032940Y-74550500D01*
X105125501Y-74550500D01*
X105192540Y-74570185D01*
X105238295Y-74622989D01*
X105249501Y-74674500D01*
X105249501Y-74797876D01*
X105255908Y-74857483D01*
X105306202Y-74992328D01*
X105306206Y-74992335D01*
X105392452Y-75107544D01*
X105392455Y-75107547D01*
X105507664Y-75193793D01*
X105507671Y-75193797D01*
X105642517Y-75244091D01*
X105642516Y-75244091D01*
X105649444Y-75244835D01*
X105702127Y-75250500D01*
X107797872Y-75250499D01*
X107857483Y-75244091D01*
X107992331Y-75193796D01*
X108107546Y-75107546D01*
X108193796Y-74992331D01*
X108244091Y-74857483D01*
X108250500Y-74797873D01*
X108250499Y-72702128D01*
X108244091Y-72642517D01*
X108230278Y-72605483D01*
X108193797Y-72507671D01*
X108193793Y-72507664D01*
X108107547Y-72392455D01*
X108107544Y-72392452D01*
X107992335Y-72306206D01*
X107992328Y-72306202D01*
X107857482Y-72255908D01*
X107857483Y-72255908D01*
X107797883Y-72249501D01*
X107797881Y-72249500D01*
X107797873Y-72249500D01*
X107797864Y-72249500D01*
X105702129Y-72249500D01*
X105702123Y-72249501D01*
X105642516Y-72255908D01*
X105507671Y-72306202D01*
X105507664Y-72306206D01*
X105392455Y-72392452D01*
X105392452Y-72392455D01*
X105306206Y-72507664D01*
X105306202Y-72507671D01*
X105255908Y-72642517D01*
X105249501Y-72702116D01*
X105249501Y-72702123D01*
X105249500Y-72702135D01*
X105249500Y-72825500D01*
X105229815Y-72892539D01*
X105177011Y-72938294D01*
X105125500Y-72949500D01*
X102571154Y-72949500D01*
X102416509Y-72980261D01*
X102416497Y-72980264D01*
X102373832Y-72997936D01*
X102373833Y-72997937D01*
X102270823Y-73040604D01*
X102270814Y-73040609D01*
X102139712Y-73128209D01*
X102139710Y-73128212D01*
X100677213Y-74590708D01*
X100615890Y-74624193D01*
X100546198Y-74619209D01*
X100490265Y-74577337D01*
X100465848Y-74511873D01*
X100479048Y-74446731D01*
X100540565Y-74325998D01*
X100540566Y-74325996D01*
X100540568Y-74325992D01*
X100613553Y-74101368D01*
X100613647Y-74100776D01*
X100650500Y-73868097D01*
X100650500Y-73631902D01*
X100613553Y-73398631D01*
X100540566Y-73174003D01*
X100450855Y-72997936D01*
X100433343Y-72963567D01*
X100294517Y-72772490D01*
X100127510Y-72605483D01*
X99936433Y-72466657D01*
X99725996Y-72359433D01*
X99501368Y-72286446D01*
X99268097Y-72249500D01*
X99268092Y-72249500D01*
X99031908Y-72249500D01*
X99031903Y-72249500D01*
X98798631Y-72286446D01*
X98574003Y-72359433D01*
X98363566Y-72466657D01*
X98307119Y-72507669D01*
X98172490Y-72605483D01*
X98172488Y-72605485D01*
X98172487Y-72605485D01*
X98005485Y-72772487D01*
X98005485Y-72772488D01*
X98005483Y-72772490D01*
X97966969Y-72825500D01*
X97866657Y-72963566D01*
X97759433Y-73174003D01*
X97686446Y-73398631D01*
X97649500Y-73631902D01*
X97649500Y-73868097D01*
X97686446Y-74101368D01*
X97759433Y-74325996D01*
X97846895Y-74497648D01*
X97866657Y-74536433D01*
X98005483Y-74727510D01*
X98172490Y-74894517D01*
X98363567Y-75033343D01*
X98453268Y-75079048D01*
X98574003Y-75140566D01*
X98574005Y-75140566D01*
X98574008Y-75140568D01*
X98694412Y-75179689D01*
X98798631Y-75213553D01*
X99031903Y-75250500D01*
X99031908Y-75250500D01*
X99268097Y-75250500D01*
X99501368Y-75213553D01*
X99518261Y-75208064D01*
X99725992Y-75140568D01*
X99846732Y-75079047D01*
X99915401Y-75066151D01*
X99980141Y-75092427D01*
X100020399Y-75149533D01*
X100023391Y-75219339D01*
X99990708Y-75277213D01*
X97304741Y-77963181D01*
X97243418Y-77996666D01*
X97217060Y-77999500D01*
X87382940Y-77999500D01*
X87315901Y-77979815D01*
X87295259Y-77963181D01*
X86026819Y-76694741D01*
X85993334Y-76633418D01*
X85990500Y-76607060D01*
X85990500Y-75945908D01*
X86010185Y-75878869D01*
X86054271Y-75840363D01*
X86053187Y-75838605D01*
X86059332Y-75834814D01*
X86059334Y-75834814D01*
X86208656Y-75742712D01*
X86332712Y-75618656D01*
X86424814Y-75469334D01*
X86479999Y-75302797D01*
X86490500Y-75200009D01*
X86490499Y-74497648D01*
X91509500Y-74497648D01*
X91509500Y-74702351D01*
X91541522Y-74904534D01*
X91604781Y-75099223D01*
X91659292Y-75206204D01*
X91685320Y-75257288D01*
X91697715Y-75281613D01*
X91818028Y-75447213D01*
X91962786Y-75591971D01*
X92075798Y-75674077D01*
X92128390Y-75712287D01*
X92244607Y-75771503D01*
X92310776Y-75805218D01*
X92310778Y-75805218D01*
X92310781Y-75805220D01*
X92401862Y-75834814D01*
X92505465Y-75868477D01*
X92571077Y-75878869D01*
X92707648Y-75900500D01*
X92707649Y-75900500D01*
X92912351Y-75900500D01*
X92912352Y-75900500D01*
X93114534Y-75868477D01*
X93309219Y-75805220D01*
X93491610Y-75712287D01*
X93620482Y-75618657D01*
X93657213Y-75591971D01*
X93657215Y-75591968D01*
X93657219Y-75591966D01*
X93801966Y-75447219D01*
X93801968Y-75447215D01*
X93801971Y-75447213D01*
X93865337Y-75359995D01*
X93922287Y-75281610D01*
X94015220Y-75099219D01*
X94078477Y-74904534D01*
X94110500Y-74702352D01*
X94110500Y-74497648D01*
X94078477Y-74295466D01*
X94015220Y-74100781D01*
X94015218Y-74100778D01*
X94015218Y-74100776D01*
X93963865Y-73999991D01*
X93922287Y-73918390D01*
X93906892Y-73897200D01*
X93801971Y-73752786D01*
X93657213Y-73608028D01*
X93491613Y-73487715D01*
X93491612Y-73487714D01*
X93491610Y-73487713D01*
X93431898Y-73457288D01*
X93309223Y-73394781D01*
X93114534Y-73331522D01*
X92939995Y-73303878D01*
X92912352Y-73299500D01*
X92707648Y-73299500D01*
X92683329Y-73303351D01*
X92505465Y-73331522D01*
X92310776Y-73394781D01*
X92128386Y-73487715D01*
X91962786Y-73608028D01*
X91818028Y-73752786D01*
X91697715Y-73918386D01*
X91604781Y-74100776D01*
X91541522Y-74295465D01*
X91509500Y-74497648D01*
X86490499Y-74497648D01*
X86490499Y-73999992D01*
X86479999Y-73897203D01*
X86424814Y-73730666D01*
X86332712Y-73581344D01*
X86208656Y-73457288D01*
X86059334Y-73365186D01*
X86059332Y-73365185D01*
X86053187Y-73361395D01*
X86054290Y-73359605D01*
X86009649Y-73320290D01*
X85990500Y-73254091D01*
X85990500Y-63497648D01*
X91339500Y-63497648D01*
X91339500Y-63702351D01*
X91371522Y-63904534D01*
X91434781Y-64099223D01*
X91527715Y-64281613D01*
X91648028Y-64447213D01*
X91792786Y-64591971D01*
X91947749Y-64704556D01*
X91958390Y-64712287D01*
X92074607Y-64771503D01*
X92140776Y-64805218D01*
X92140778Y-64805218D01*
X92140781Y-64805220D01*
X92245137Y-64839127D01*
X92335465Y-64868477D01*
X92436557Y-64884488D01*
X92537648Y-64900500D01*
X92537649Y-64900500D01*
X92742351Y-64900500D01*
X92742352Y-64900500D01*
X92944534Y-64868477D01*
X93139219Y-64805220D01*
X93321610Y-64712287D01*
X93414590Y-64644732D01*
X93487213Y-64591971D01*
X93487215Y-64591968D01*
X93487219Y-64591966D01*
X93631966Y-64447219D01*
X93631968Y-64447215D01*
X93631971Y-64447213D01*
X93684732Y-64374590D01*
X93752287Y-64281610D01*
X93845220Y-64099219D01*
X93908477Y-63904534D01*
X93940500Y-63702352D01*
X93940500Y-63497648D01*
X101499500Y-63497648D01*
X101499500Y-63702351D01*
X101531522Y-63904534D01*
X101594781Y-64099223D01*
X101687715Y-64281613D01*
X101808028Y-64447213D01*
X101952786Y-64591971D01*
X102107749Y-64704556D01*
X102118390Y-64712287D01*
X102234607Y-64771503D01*
X102300776Y-64805218D01*
X102300778Y-64805218D01*
X102300781Y-64805220D01*
X102405137Y-64839127D01*
X102495465Y-64868477D01*
X102596557Y-64884488D01*
X102697648Y-64900500D01*
X102697649Y-64900500D01*
X102902351Y-64900500D01*
X102902352Y-64900500D01*
X103104534Y-64868477D01*
X103299219Y-64805220D01*
X103481610Y-64712287D01*
X103574590Y-64644732D01*
X103647213Y-64591971D01*
X103647215Y-64591968D01*
X103647219Y-64591966D01*
X103791966Y-64447219D01*
X103791968Y-64447215D01*
X103791971Y-64447213D01*
X103844732Y-64374590D01*
X103912287Y-64281610D01*
X104005220Y-64099219D01*
X104068477Y-63904534D01*
X104100500Y-63702352D01*
X104100500Y-63497648D01*
X104090338Y-63433489D01*
X104068477Y-63295465D01*
X104005218Y-63100776D01*
X103971503Y-63034607D01*
X103912287Y-62918390D01*
X103904556Y-62907749D01*
X103791971Y-62752786D01*
X103647213Y-62608028D01*
X103481613Y-62487715D01*
X103481612Y-62487714D01*
X103481610Y-62487713D01*
X103424653Y-62458691D01*
X103299223Y-62394781D01*
X103104534Y-62331522D01*
X102929995Y-62303878D01*
X102902352Y-62299500D01*
X102697648Y-62299500D01*
X102673329Y-62303351D01*
X102495465Y-62331522D01*
X102300776Y-62394781D01*
X102118386Y-62487715D01*
X101952786Y-62608028D01*
X101808028Y-62752786D01*
X101687715Y-62918386D01*
X101594781Y-63100776D01*
X101531522Y-63295465D01*
X101499500Y-63497648D01*
X93940500Y-63497648D01*
X93930338Y-63433489D01*
X93908477Y-63295465D01*
X93845218Y-63100776D01*
X93811503Y-63034607D01*
X93752287Y-62918390D01*
X93744556Y-62907749D01*
X93631971Y-62752786D01*
X93487213Y-62608028D01*
X93321613Y-62487715D01*
X93321612Y-62487714D01*
X93321610Y-62487713D01*
X93264653Y-62458691D01*
X93139223Y-62394781D01*
X92944534Y-62331522D01*
X92769995Y-62303878D01*
X92742352Y-62299500D01*
X92537648Y-62299500D01*
X92513329Y-62303351D01*
X92335465Y-62331522D01*
X92140776Y-62394781D01*
X91958386Y-62487715D01*
X91792786Y-62608028D01*
X91648028Y-62752786D01*
X91527715Y-62918386D01*
X91434781Y-63100776D01*
X91371522Y-63295465D01*
X91339500Y-63497648D01*
X85990500Y-63497648D01*
X85990500Y-63495063D01*
X85990500Y-63311158D01*
X85984072Y-63278842D01*
X85959738Y-63156503D01*
X85899394Y-63010821D01*
X85899392Y-63010818D01*
X85899390Y-63010814D01*
X85811789Y-62879711D01*
X85811786Y-62879707D01*
X85510292Y-62578213D01*
X85510288Y-62578210D01*
X85379185Y-62490609D01*
X85379172Y-62490602D01*
X85233501Y-62430264D01*
X85233489Y-62430261D01*
X85078845Y-62399500D01*
X85078842Y-62399500D01*
X84921158Y-62399500D01*
X84921155Y-62399500D01*
X84766510Y-62430261D01*
X84766498Y-62430264D01*
X84620827Y-62490602D01*
X84620814Y-62490609D01*
X84489711Y-62578210D01*
X84489707Y-62578213D01*
X84378213Y-62689707D01*
X84378210Y-62689711D01*
X84290609Y-62820814D01*
X84290602Y-62820827D01*
X84230264Y-62966498D01*
X84230261Y-62966510D01*
X84199500Y-63121153D01*
X84199500Y-63278843D01*
X84230261Y-63433489D01*
X84230264Y-63433501D01*
X84290602Y-63579172D01*
X84290609Y-63579185D01*
X84368602Y-63695908D01*
X84389480Y-63762585D01*
X84389500Y-63764799D01*
X84389500Y-73254091D01*
X84369815Y-73321130D01*
X84325731Y-73359641D01*
X84326813Y-73361395D01*
X84320667Y-73365185D01*
X84320666Y-73365186D01*
X84272685Y-73394781D01*
X84171342Y-73457289D01*
X84047289Y-73581342D01*
X83955187Y-73730663D01*
X83955186Y-73730666D01*
X83900001Y-73897203D01*
X83900001Y-73897204D01*
X83900000Y-73897204D01*
X83889500Y-73999983D01*
X66780500Y-73999983D01*
X66780500Y-67097648D01*
X67299500Y-67097648D01*
X67299500Y-67302351D01*
X67331522Y-67504534D01*
X67394781Y-67699223D01*
X67428297Y-67765000D01*
X67487585Y-67881359D01*
X67487715Y-67881613D01*
X67608028Y-68047213D01*
X67752786Y-68191971D01*
X67873226Y-68279474D01*
X67918390Y-68312287D01*
X68034607Y-68371503D01*
X68100776Y-68405218D01*
X68100778Y-68405218D01*
X68100781Y-68405220D01*
X68205137Y-68439127D01*
X68295465Y-68468477D01*
X68396557Y-68484488D01*
X68497648Y-68500500D01*
X68497649Y-68500500D01*
X68702351Y-68500500D01*
X68702352Y-68500500D01*
X68904534Y-68468477D01*
X69099219Y-68405220D01*
X69281610Y-68312287D01*
X69426129Y-68207289D01*
X69447213Y-68191971D01*
X69447215Y-68191968D01*
X69447219Y-68191966D01*
X69591966Y-68047219D01*
X69591968Y-68047215D01*
X69591971Y-68047213D01*
X69645018Y-67974199D01*
X69712287Y-67881610D01*
X69805220Y-67699219D01*
X69868477Y-67504534D01*
X69900500Y-67302352D01*
X69900500Y-67097648D01*
X69889626Y-67028992D01*
X77349500Y-67028992D01*
X77349500Y-67231007D01*
X77388907Y-67429119D01*
X77388909Y-67429127D01*
X77466213Y-67615755D01*
X77519904Y-67696109D01*
X77540782Y-67762787D01*
X77522297Y-67830167D01*
X77519904Y-67833891D01*
X77466213Y-67914244D01*
X77388909Y-68100872D01*
X77388907Y-68100880D01*
X77349500Y-68298992D01*
X77349500Y-68501007D01*
X77388907Y-68699119D01*
X77388909Y-68699127D01*
X77466212Y-68885752D01*
X77466217Y-68885762D01*
X77578441Y-69053718D01*
X77721281Y-69196558D01*
X77889237Y-69308782D01*
X77889241Y-69308784D01*
X77889244Y-69308786D01*
X78075873Y-69386091D01*
X78273992Y-69425499D01*
X78273996Y-69425500D01*
X78273997Y-69425500D01*
X78926004Y-69425500D01*
X78926005Y-69425499D01*
X79124127Y-69386091D01*
X79310756Y-69308786D01*
X79478718Y-69196558D01*
X79621558Y-69053718D01*
X79733786Y-68885756D01*
X79811091Y-68699127D01*
X79850500Y-68501003D01*
X79850500Y-68298997D01*
X79811091Y-68100873D01*
X79733786Y-67914244D01*
X79680094Y-67833889D01*
X79659217Y-67767214D01*
X79677701Y-67699834D01*
X79680078Y-67696134D01*
X79733786Y-67615756D01*
X79811091Y-67429127D01*
X79850500Y-67231003D01*
X79850500Y-67028997D01*
X79811091Y-66830873D01*
X79777451Y-66749661D01*
X79769983Y-66680194D01*
X79789592Y-66635144D01*
X79789101Y-66634876D01*
X79792102Y-66629379D01*
X79792748Y-66627896D01*
X79793352Y-66627089D01*
X79843597Y-66492376D01*
X79843598Y-66492372D01*
X79849999Y-66432844D01*
X79850000Y-66432827D01*
X79850000Y-66110000D01*
X78965866Y-66110000D01*
X78941674Y-66107617D01*
X78926004Y-66104500D01*
X78926003Y-66104500D01*
X78885830Y-66104500D01*
X78900075Y-66090255D01*
X78949444Y-66004745D01*
X78975000Y-65909370D01*
X78975000Y-65810630D01*
X78949444Y-65715255D01*
X78900075Y-65629745D01*
X78880330Y-65610000D01*
X79850000Y-65610000D01*
X79850000Y-65287172D01*
X79849999Y-65287155D01*
X79843598Y-65227627D01*
X79843596Y-65227620D01*
X79793354Y-65092913D01*
X79793350Y-65092906D01*
X79707190Y-64977812D01*
X79707187Y-64977809D01*
X79592093Y-64891649D01*
X79592086Y-64891645D01*
X79457379Y-64841403D01*
X79457372Y-64841401D01*
X79397844Y-64835000D01*
X78850000Y-64835000D01*
X78850000Y-65579670D01*
X78830255Y-65559925D01*
X78744745Y-65510556D01*
X78649370Y-65485000D01*
X78550630Y-65485000D01*
X78455255Y-65510556D01*
X78369745Y-65559925D01*
X78350000Y-65579670D01*
X78350000Y-64835000D01*
X77802155Y-64835000D01*
X77742627Y-64841401D01*
X77742620Y-64841403D01*
X77607913Y-64891645D01*
X77607906Y-64891649D01*
X77492812Y-64977809D01*
X77492809Y-64977812D01*
X77406649Y-65092906D01*
X77406645Y-65092913D01*
X77356403Y-65227620D01*
X77356401Y-65227627D01*
X77350000Y-65287155D01*
X77350000Y-65610000D01*
X78319670Y-65610000D01*
X78299925Y-65629745D01*
X78250556Y-65715255D01*
X78225000Y-65810630D01*
X78225000Y-65909370D01*
X78250556Y-66004745D01*
X78299925Y-66090255D01*
X78314170Y-66104500D01*
X78273997Y-66104500D01*
X78273996Y-66104500D01*
X78258326Y-66107617D01*
X78234134Y-66110000D01*
X77350000Y-66110000D01*
X77350000Y-66432844D01*
X77356401Y-66492372D01*
X77356403Y-66492379D01*
X77406645Y-66627086D01*
X77407251Y-66627895D01*
X77407604Y-66628841D01*
X77410897Y-66634872D01*
X77410030Y-66635345D01*
X77431670Y-66693359D01*
X77422547Y-66749661D01*
X77388910Y-66830868D01*
X77388907Y-66830880D01*
X77349500Y-67028992D01*
X69889626Y-67028992D01*
X69877810Y-66954394D01*
X69868477Y-66895465D01*
X69813981Y-66727744D01*
X69805220Y-66700781D01*
X69805218Y-66700778D01*
X69805218Y-66700776D01*
X69712419Y-66518650D01*
X69712287Y-66518390D01*
X69680092Y-66474077D01*
X69591971Y-66352786D01*
X69447213Y-66208028D01*
X69281613Y-66087715D01*
X69281612Y-66087714D01*
X69281610Y-66087713D01*
X69207594Y-66050000D01*
X69099223Y-65994781D01*
X68904534Y-65931522D01*
X68729995Y-65903878D01*
X68702352Y-65899500D01*
X68497648Y-65899500D01*
X68473329Y-65903351D01*
X68295465Y-65931522D01*
X68100776Y-65994781D01*
X67918386Y-66087715D01*
X67752786Y-66208028D01*
X67608028Y-66352786D01*
X67487715Y-66518386D01*
X67394781Y-66700776D01*
X67331522Y-66895465D01*
X67299500Y-67097648D01*
X66780500Y-67097648D01*
X66780500Y-60002940D01*
X66800185Y-59935901D01*
X66816818Y-59915259D01*
X66821789Y-59910289D01*
X66909394Y-59779179D01*
X66969737Y-59633497D01*
X67000500Y-59478842D01*
X67000500Y-59321158D01*
X67000500Y-59321155D01*
X67000499Y-59321153D01*
X66969737Y-59166503D01*
X66969735Y-59166498D01*
X66909397Y-59020827D01*
X66909390Y-59020814D01*
X66821789Y-58889711D01*
X66821786Y-58889707D01*
X66713693Y-58781614D01*
X66680208Y-58720291D01*
X66685192Y-58650599D01*
X66713693Y-58606252D01*
X67077975Y-58241971D01*
X67505276Y-57814670D01*
X67549006Y-57749223D01*
X67576464Y-57708129D01*
X67576465Y-57708127D01*
X67625501Y-57589744D01*
X67640833Y-57512666D01*
X67650500Y-57464069D01*
X67650500Y-57147648D01*
X91449500Y-57147648D01*
X91449500Y-57352351D01*
X91481522Y-57554534D01*
X91544781Y-57749223D01*
X91608691Y-57874653D01*
X91636200Y-57928641D01*
X91637715Y-57931613D01*
X91758028Y-58097213D01*
X91902786Y-58241971D01*
X92057749Y-58354556D01*
X92068390Y-58362287D01*
X92184607Y-58421503D01*
X92250776Y-58455218D01*
X92250778Y-58455218D01*
X92250781Y-58455220D01*
X92355137Y-58489127D01*
X92445465Y-58518477D01*
X92546557Y-58534488D01*
X92647648Y-58550500D01*
X92647649Y-58550500D01*
X92852351Y-58550500D01*
X92852352Y-58550500D01*
X93054534Y-58518477D01*
X93249219Y-58455220D01*
X93431610Y-58362287D01*
X93524590Y-58294732D01*
X93597213Y-58241971D01*
X93597215Y-58241968D01*
X93597219Y-58241966D01*
X93741966Y-58097219D01*
X93741968Y-58097215D01*
X93741971Y-58097213D01*
X93825978Y-57981585D01*
X93862287Y-57931610D01*
X93955220Y-57749219D01*
X94018477Y-57554534D01*
X94050500Y-57352352D01*
X94050500Y-57147648D01*
X101609500Y-57147648D01*
X101609500Y-57352351D01*
X101641522Y-57554534D01*
X101704781Y-57749223D01*
X101768691Y-57874653D01*
X101796200Y-57928641D01*
X101797715Y-57931613D01*
X101918028Y-58097213D01*
X102062786Y-58241971D01*
X102217749Y-58354556D01*
X102228390Y-58362287D01*
X102344607Y-58421503D01*
X102410776Y-58455218D01*
X102410778Y-58455218D01*
X102410781Y-58455220D01*
X102515137Y-58489127D01*
X102605465Y-58518477D01*
X102706557Y-58534488D01*
X102807648Y-58550500D01*
X102807649Y-58550500D01*
X103012351Y-58550500D01*
X103012352Y-58550500D01*
X103214534Y-58518477D01*
X103409219Y-58455220D01*
X103591610Y-58362287D01*
X103684590Y-58294732D01*
X103757213Y-58241971D01*
X103757215Y-58241968D01*
X103757219Y-58241966D01*
X103901966Y-58097219D01*
X103901968Y-58097215D01*
X103901971Y-58097213D01*
X103985978Y-57981585D01*
X104022287Y-57931610D01*
X104115220Y-57749219D01*
X104178477Y-57554534D01*
X104210500Y-57352352D01*
X104210500Y-57147648D01*
X104203164Y-57101333D01*
X104178477Y-56945465D01*
X104144139Y-56839786D01*
X104115220Y-56750781D01*
X104115218Y-56750778D01*
X104115218Y-56750776D01*
X104056758Y-56636043D01*
X104022287Y-56568390D01*
X103978634Y-56508306D01*
X103901971Y-56402786D01*
X103757213Y-56258028D01*
X103591613Y-56137715D01*
X103591612Y-56137714D01*
X103591610Y-56137713D01*
X103534653Y-56108691D01*
X103409223Y-56044781D01*
X103214534Y-55981522D01*
X103031009Y-55952455D01*
X103012352Y-55949500D01*
X102807648Y-55949500D01*
X102788991Y-55952455D01*
X102605465Y-55981522D01*
X102410776Y-56044781D01*
X102228386Y-56137715D01*
X102062786Y-56258028D01*
X101918028Y-56402786D01*
X101797715Y-56568386D01*
X101704781Y-56750776D01*
X101641522Y-56945465D01*
X101609500Y-57147648D01*
X94050500Y-57147648D01*
X94043164Y-57101333D01*
X94018477Y-56945465D01*
X93984139Y-56839786D01*
X93955220Y-56750781D01*
X93955218Y-56750778D01*
X93955218Y-56750776D01*
X93896758Y-56636043D01*
X93862287Y-56568390D01*
X93818634Y-56508306D01*
X93741971Y-56402786D01*
X93597213Y-56258028D01*
X93431613Y-56137715D01*
X93431612Y-56137714D01*
X93431610Y-56137713D01*
X93374653Y-56108691D01*
X93249223Y-56044781D01*
X93054534Y-55981522D01*
X92871009Y-55952455D01*
X92852352Y-55949500D01*
X92647648Y-55949500D01*
X92628991Y-55952455D01*
X92445465Y-55981522D01*
X92250776Y-56044781D01*
X92068386Y-56137715D01*
X91902786Y-56258028D01*
X91758028Y-56402786D01*
X91637715Y-56568386D01*
X91544781Y-56750776D01*
X91481522Y-56945465D01*
X91449500Y-57147648D01*
X67650500Y-57147648D01*
X67650500Y-56704935D01*
X67670185Y-56637896D01*
X67671366Y-56636090D01*
X67709394Y-56579179D01*
X67769737Y-56433497D01*
X67800500Y-56278842D01*
X67800500Y-56121158D01*
X67800500Y-56121155D01*
X67800499Y-56121153D01*
X67789585Y-56066286D01*
X67769737Y-55966503D01*
X67749270Y-55917091D01*
X67709397Y-55820827D01*
X67709390Y-55820814D01*
X67621789Y-55689711D01*
X67621786Y-55689707D01*
X67510292Y-55578213D01*
X67510288Y-55578210D01*
X67379185Y-55490609D01*
X67379172Y-55490602D01*
X67233501Y-55430264D01*
X67233489Y-55430261D01*
X67078845Y-55399500D01*
X67078842Y-55399500D01*
X66921158Y-55399500D01*
X66921155Y-55399500D01*
X66766510Y-55430261D01*
X66766498Y-55430264D01*
X66620827Y-55490602D01*
X66620814Y-55490609D01*
X66489711Y-55578210D01*
X66489707Y-55578213D01*
X66378213Y-55689707D01*
X66378210Y-55689711D01*
X66290609Y-55820814D01*
X66290602Y-55820827D01*
X66230264Y-55966498D01*
X66230261Y-55966510D01*
X66199500Y-56121153D01*
X66199500Y-56278846D01*
X66230261Y-56433489D01*
X66230264Y-56433501D01*
X66290602Y-56579172D01*
X66290606Y-56579179D01*
X66328602Y-56636044D01*
X66349480Y-56702721D01*
X66349500Y-56704935D01*
X66349500Y-57079192D01*
X66329815Y-57146231D01*
X66313181Y-57166873D01*
X63084725Y-60395328D01*
X63084724Y-60395329D01*
X63084723Y-60395331D01*
X63039914Y-60462394D01*
X63026724Y-60482133D01*
X63013535Y-60501872D01*
X63013533Y-60501875D01*
X62964499Y-60620255D01*
X62964497Y-60620261D01*
X62939500Y-60745928D01*
X62939500Y-75240382D01*
X62919815Y-75307421D01*
X62885408Y-75341099D01*
X62886125Y-75342085D01*
X62710213Y-75469890D01*
X62559890Y-75620213D01*
X62434949Y-75792182D01*
X62430484Y-75800946D01*
X62382509Y-75851742D01*
X62314688Y-75868536D01*
X62248553Y-75845998D01*
X62209516Y-75800946D01*
X62205050Y-75792182D01*
X62080109Y-75620213D01*
X61929786Y-75469890D01*
X61757820Y-75344951D01*
X61568414Y-75248444D01*
X61568413Y-75248443D01*
X61568412Y-75248443D01*
X61366243Y-75182754D01*
X61366241Y-75182753D01*
X61366240Y-75182753D01*
X61204957Y-75157208D01*
X61156287Y-75149500D01*
X60943713Y-75149500D01*
X60895042Y-75157208D01*
X60733760Y-75182753D01*
X60531585Y-75248444D01*
X60342179Y-75344951D01*
X60170213Y-75469890D01*
X60019890Y-75620213D01*
X59894951Y-75792179D01*
X59798444Y-75981585D01*
X59732753Y-76183760D01*
X59714710Y-76297682D01*
X59699500Y-76393713D01*
X48069562Y-76393713D01*
X48068838Y-76388213D01*
X48068838Y-76388211D01*
X48006054Y-76153900D01*
X48002966Y-76146446D01*
X47981898Y-76095582D01*
X47913224Y-75929788D01*
X47791936Y-75719711D01*
X47644265Y-75527262D01*
X47644260Y-75527256D01*
X47472743Y-75355739D01*
X47472736Y-75355733D01*
X47280293Y-75208067D01*
X47280292Y-75208066D01*
X47280289Y-75208064D01*
X47070212Y-75086776D01*
X47020419Y-75066151D01*
X46846104Y-74993947D01*
X46611785Y-74931161D01*
X46371289Y-74899500D01*
X46371288Y-74899500D01*
X46128712Y-74899500D01*
X46128711Y-74899500D01*
X45888214Y-74931161D01*
X45653895Y-74993947D01*
X45429794Y-75086773D01*
X45429785Y-75086777D01*
X45293978Y-75165186D01*
X45233665Y-75200008D01*
X45219706Y-75208067D01*
X45027263Y-75355733D01*
X45027256Y-75355739D01*
X44855739Y-75527256D01*
X44855733Y-75527263D01*
X44708067Y-75719706D01*
X44586777Y-75929785D01*
X44586773Y-75929794D01*
X44493947Y-76153895D01*
X44431161Y-76388214D01*
X44399500Y-76628711D01*
X40500500Y-76628711D01*
X40500500Y-68749983D01*
X51074500Y-68749983D01*
X51074500Y-69550001D01*
X51074501Y-69550019D01*
X51085000Y-69652796D01*
X51085001Y-69652799D01*
X51140185Y-69819331D01*
X51140186Y-69819334D01*
X51232288Y-69968656D01*
X51356344Y-70092712D01*
X51505666Y-70184814D01*
X51672203Y-70239999D01*
X51774991Y-70250500D01*
X53125008Y-70250499D01*
X53227797Y-70239999D01*
X53394334Y-70184814D01*
X53543656Y-70092712D01*
X53667712Y-69968656D01*
X53759814Y-69819334D01*
X53814999Y-69652797D01*
X53825500Y-69550009D01*
X53825499Y-68749992D01*
X53814999Y-68647203D01*
X53759814Y-68480666D01*
X53667712Y-68331344D01*
X53543656Y-68207288D01*
X53543655Y-68207287D01*
X53479019Y-68167420D01*
X53432294Y-68115472D01*
X53421071Y-68046510D01*
X53448914Y-67982428D01*
X53456434Y-67974199D01*
X53564035Y-67866598D01*
X53665804Y-67726524D01*
X53744408Y-67572255D01*
X53797914Y-67407584D01*
X53799115Y-67400000D01*
X52730330Y-67400000D01*
X52750075Y-67380255D01*
X52799444Y-67294745D01*
X52825000Y-67199370D01*
X52825000Y-67100630D01*
X52824210Y-67097682D01*
X57140000Y-67097682D01*
X57140000Y-67302317D01*
X57172009Y-67504417D01*
X57235244Y-67699031D01*
X57328141Y-67881350D01*
X57328147Y-67881359D01*
X57360523Y-67925921D01*
X57360524Y-67925922D01*
X58040000Y-67246446D01*
X58040000Y-67252661D01*
X58067259Y-67354394D01*
X58119920Y-67445606D01*
X58194394Y-67520080D01*
X58285606Y-67572741D01*
X58387339Y-67600000D01*
X58393553Y-67600000D01*
X57714076Y-68279474D01*
X57758650Y-68311859D01*
X57940968Y-68404755D01*
X58135582Y-68467990D01*
X58337683Y-68500000D01*
X58542317Y-68500000D01*
X58744417Y-68467990D01*
X58939031Y-68404755D01*
X59121349Y-68311859D01*
X59165921Y-68279474D01*
X58486447Y-67600000D01*
X58492661Y-67600000D01*
X58594394Y-67572741D01*
X58685606Y-67520080D01*
X58760080Y-67445606D01*
X58812741Y-67354394D01*
X58840000Y-67252661D01*
X58840000Y-67246448D01*
X59519474Y-67925922D01*
X59519474Y-67925921D01*
X59551859Y-67881349D01*
X59644755Y-67699031D01*
X59707990Y-67504417D01*
X59740000Y-67302317D01*
X59740000Y-67097682D01*
X59707990Y-66895582D01*
X59644755Y-66700968D01*
X59551859Y-66518650D01*
X59519474Y-66474077D01*
X59519474Y-66474076D01*
X58840000Y-67153551D01*
X58840000Y-67147339D01*
X58812741Y-67045606D01*
X58760080Y-66954394D01*
X58685606Y-66879920D01*
X58594394Y-66827259D01*
X58492661Y-66800000D01*
X58486446Y-66800000D01*
X59165922Y-66120524D01*
X59165921Y-66120523D01*
X59121359Y-66088147D01*
X59121350Y-66088141D01*
X58939031Y-65995244D01*
X58744417Y-65932009D01*
X58542317Y-65900000D01*
X58337683Y-65900000D01*
X58135582Y-65932009D01*
X57940968Y-65995244D01*
X57758644Y-66088143D01*
X57714077Y-66120523D01*
X57714077Y-66120524D01*
X58393554Y-66800000D01*
X58387339Y-66800000D01*
X58285606Y-66827259D01*
X58194394Y-66879920D01*
X58119920Y-66954394D01*
X58067259Y-67045606D01*
X58040000Y-67147339D01*
X58040000Y-67153553D01*
X57360524Y-66474077D01*
X57360523Y-66474077D01*
X57328143Y-66518644D01*
X57235244Y-66700968D01*
X57172009Y-66895582D01*
X57140000Y-67097682D01*
X52824210Y-67097682D01*
X52799444Y-67005255D01*
X52750075Y-66919745D01*
X52730330Y-66900000D01*
X53799115Y-66900000D01*
X53799115Y-66899999D01*
X53797914Y-66892415D01*
X53744408Y-66727744D01*
X53665804Y-66573475D01*
X53564032Y-66433397D01*
X53441600Y-66310965D01*
X53441595Y-66310961D01*
X53382626Y-66268117D01*
X53382603Y-66268102D01*
X53301524Y-66209195D01*
X53147257Y-66130591D01*
X52982584Y-66077085D01*
X52811571Y-66050000D01*
X52700000Y-66050000D01*
X52700000Y-66869670D01*
X52680255Y-66849925D01*
X52594745Y-66800556D01*
X52499370Y-66775000D01*
X52400630Y-66775000D01*
X52305255Y-66800556D01*
X52219745Y-66849925D01*
X52200000Y-66869670D01*
X52200000Y-66050000D01*
X52088429Y-66050000D01*
X51917415Y-66077085D01*
X51752742Y-66130591D01*
X51598475Y-66209195D01*
X51458397Y-66310967D01*
X51335967Y-66433397D01*
X51234195Y-66573475D01*
X51155591Y-66727744D01*
X51102085Y-66892415D01*
X51100884Y-66899999D01*
X51100885Y-66900000D01*
X52169670Y-66900000D01*
X52149925Y-66919745D01*
X52100556Y-67005255D01*
X52075000Y-67100630D01*
X52075000Y-67199370D01*
X52100556Y-67294745D01*
X52149925Y-67380255D01*
X52169670Y-67400000D01*
X51100885Y-67400000D01*
X51102085Y-67407584D01*
X51155591Y-67572255D01*
X51234195Y-67726524D01*
X51335967Y-67866602D01*
X51443565Y-67974200D01*
X51477050Y-68035523D01*
X51472066Y-68105215D01*
X51430194Y-68161148D01*
X51420981Y-68167420D01*
X51356342Y-68207289D01*
X51232289Y-68331342D01*
X51140187Y-68480663D01*
X51140185Y-68480668D01*
X51112349Y-68564670D01*
X51085001Y-68647203D01*
X51085001Y-68647204D01*
X51085000Y-68647204D01*
X51074500Y-68749983D01*
X40500500Y-68749983D01*
X40500500Y-52522135D01*
X46149500Y-52522135D01*
X46149500Y-54317870D01*
X46149501Y-54317876D01*
X46155908Y-54377483D01*
X46206202Y-54512328D01*
X46206206Y-54512335D01*
X46292452Y-54627544D01*
X46292455Y-54627547D01*
X46407664Y-54713793D01*
X46407671Y-54713797D01*
X46539082Y-54762810D01*
X46595016Y-54804681D01*
X46619433Y-54870145D01*
X46604582Y-54938418D01*
X46583431Y-54966673D01*
X46469889Y-55080215D01*
X46344951Y-55252179D01*
X46248444Y-55441585D01*
X46182753Y-55643760D01*
X46149500Y-55853713D01*
X46149500Y-56066286D01*
X46180603Y-56262667D01*
X46182754Y-56276243D01*
X46233850Y-56433501D01*
X46248444Y-56478414D01*
X46344951Y-56667820D01*
X46469890Y-56839786D01*
X46620213Y-56990109D01*
X46792182Y-57115050D01*
X46800946Y-57119516D01*
X46851742Y-57167491D01*
X46868536Y-57235312D01*
X46845998Y-57301447D01*
X46800946Y-57340484D01*
X46792182Y-57344949D01*
X46620213Y-57469890D01*
X46469890Y-57620213D01*
X46344951Y-57792179D01*
X46248444Y-57981585D01*
X46182753Y-58183760D01*
X46149500Y-58393713D01*
X46149500Y-58606286D01*
X46169217Y-58730778D01*
X46182754Y-58816243D01*
X46226611Y-58951221D01*
X46248444Y-59018414D01*
X46344951Y-59207820D01*
X46469890Y-59379786D01*
X46620213Y-59530109D01*
X46792179Y-59655048D01*
X46792181Y-59655049D01*
X46792184Y-59655051D01*
X46981588Y-59751557D01*
X47183757Y-59817246D01*
X47393713Y-59850500D01*
X47393714Y-59850500D01*
X47606286Y-59850500D01*
X47606287Y-59850500D01*
X47816243Y-59817246D01*
X48018412Y-59751557D01*
X48207816Y-59655051D01*
X48237494Y-59633489D01*
X48379786Y-59530109D01*
X48379788Y-59530106D01*
X48379792Y-59530104D01*
X48530104Y-59379792D01*
X48530106Y-59379788D01*
X48530109Y-59379786D01*
X48655048Y-59207820D01*
X48655047Y-59207820D01*
X48655051Y-59207816D01*
X48751557Y-59018412D01*
X48817246Y-58816243D01*
X48850500Y-58606287D01*
X48850500Y-58393713D01*
X48817246Y-58183757D01*
X48803506Y-58141473D01*
X48801512Y-58071635D01*
X48833755Y-58015478D01*
X52012416Y-54836819D01*
X52073739Y-54803334D01*
X52100097Y-54800500D01*
X103313331Y-54800500D01*
X103313347Y-54800501D01*
X103320943Y-54800501D01*
X103479054Y-54800501D01*
X103479057Y-54800501D01*
X103631785Y-54759577D01*
X103681904Y-54730639D01*
X103768716Y-54680520D01*
X103880520Y-54568716D01*
X103880520Y-54568714D01*
X103890728Y-54558507D01*
X103890730Y-54558504D01*
X104874099Y-53575135D01*
X111599500Y-53575135D01*
X111599500Y-55470870D01*
X111599501Y-55470876D01*
X111605908Y-55530483D01*
X111656202Y-55665328D01*
X111656206Y-55665335D01*
X111742452Y-55780544D01*
X111742453Y-55780544D01*
X111742454Y-55780546D01*
X111761841Y-55795059D01*
X111764292Y-55796894D01*
X111806163Y-55852828D01*
X111811146Y-55922520D01*
X111800465Y-55952455D01*
X111702567Y-56144589D01*
X111634473Y-56354164D01*
X111600000Y-56571818D01*
X111600000Y-56792181D01*
X111634473Y-57009835D01*
X111702567Y-57219410D01*
X111802611Y-57415756D01*
X111848932Y-57479513D01*
X112557861Y-56770584D01*
X112580667Y-56855694D01*
X112639910Y-56958306D01*
X112723694Y-57042090D01*
X112826306Y-57101333D01*
X112911414Y-57124137D01*
X112527962Y-57507589D01*
X112478603Y-57537838D01*
X112462395Y-57543104D01*
X112265974Y-57643187D01*
X112087641Y-57772752D01*
X112087636Y-57772756D01*
X111931756Y-57928636D01*
X111931752Y-57928641D01*
X111802187Y-58106974D01*
X111702104Y-58303393D01*
X111702103Y-58303396D01*
X111633985Y-58513047D01*
X111599500Y-58730778D01*
X111599500Y-58951221D01*
X111633985Y-59168952D01*
X111702103Y-59378603D01*
X111702104Y-59378606D01*
X111753178Y-59478842D01*
X111779300Y-59530109D01*
X111802187Y-59575025D01*
X111931752Y-59753358D01*
X111931756Y-59753363D01*
X112011212Y-59832819D01*
X112044697Y-59894142D01*
X112039713Y-59963834D01*
X112011212Y-60008181D01*
X111931756Y-60087636D01*
X111931752Y-60087641D01*
X111802187Y-60265974D01*
X111702105Y-60462393D01*
X111633985Y-60672047D01*
X111599500Y-60889778D01*
X111599500Y-61110221D01*
X111633985Y-61327952D01*
X111702103Y-61537603D01*
X111702104Y-61537606D01*
X111802187Y-61734025D01*
X111931752Y-61912358D01*
X111931756Y-61912363D01*
X112087636Y-62068243D01*
X112087641Y-62068247D01*
X112243192Y-62181260D01*
X112265978Y-62197815D01*
X112394375Y-62263237D01*
X112462393Y-62297895D01*
X112462396Y-62297896D01*
X112565889Y-62331522D01*
X112672049Y-62366015D01*
X112889778Y-62400500D01*
X112889779Y-62400500D01*
X113110221Y-62400500D01*
X113110222Y-62400500D01*
X113327951Y-62366015D01*
X113537606Y-62297895D01*
X113734022Y-62197815D01*
X113912365Y-62068242D01*
X114068242Y-61912365D01*
X114197815Y-61734022D01*
X114297895Y-61537606D01*
X114366015Y-61327951D01*
X114400500Y-61110222D01*
X114400500Y-60889778D01*
X114366015Y-60672049D01*
X114310723Y-60501875D01*
X114297895Y-60462393D01*
X114263237Y-60394375D01*
X114197815Y-60265978D01*
X114099721Y-60130962D01*
X114068247Y-60087641D01*
X114068243Y-60087636D01*
X113988788Y-60008181D01*
X113955303Y-59946858D01*
X113960287Y-59877166D01*
X113988788Y-59832819D01*
X114004361Y-59817246D01*
X114068242Y-59753365D01*
X114197815Y-59575022D01*
X114297895Y-59378606D01*
X114366015Y-59168951D01*
X114400500Y-58951222D01*
X114400500Y-58730778D01*
X114366015Y-58513049D01*
X114297895Y-58303394D01*
X114297895Y-58303393D01*
X114263237Y-58235375D01*
X114197815Y-58106978D01*
X114170374Y-58069208D01*
X114068247Y-57928641D01*
X114068243Y-57928636D01*
X113912363Y-57772756D01*
X113912358Y-57772752D01*
X113734025Y-57643187D01*
X113734024Y-57643186D01*
X113734022Y-57643185D01*
X113537606Y-57543105D01*
X113537605Y-57543104D01*
X113537604Y-57543104D01*
X113521394Y-57537837D01*
X113472035Y-57507588D01*
X113088585Y-57124137D01*
X113173694Y-57101333D01*
X113276306Y-57042090D01*
X113360090Y-56958306D01*
X113419333Y-56855694D01*
X113442137Y-56770585D01*
X114151066Y-57479514D01*
X114151066Y-57479513D01*
X114197386Y-57415760D01*
X114297432Y-57219410D01*
X114365526Y-57009835D01*
X114400000Y-56792181D01*
X114400000Y-56571818D01*
X114365526Y-56354164D01*
X114297432Y-56144589D01*
X114199534Y-55952454D01*
X114186638Y-55883785D01*
X114212914Y-55819044D01*
X114235703Y-55796897D01*
X114257546Y-55780546D01*
X114343796Y-55665331D01*
X114394091Y-55530483D01*
X114400500Y-55470873D01*
X114400499Y-53575128D01*
X114394091Y-53515517D01*
X114343796Y-53380669D01*
X114343795Y-53380668D01*
X114343793Y-53380664D01*
X114257547Y-53265455D01*
X114257544Y-53265452D01*
X114142335Y-53179206D01*
X114142328Y-53179202D01*
X114007482Y-53128908D01*
X114007483Y-53128908D01*
X113947883Y-53122501D01*
X113947881Y-53122500D01*
X113947873Y-53122500D01*
X113947864Y-53122500D01*
X112052129Y-53122500D01*
X112052123Y-53122501D01*
X111992516Y-53128908D01*
X111857671Y-53179202D01*
X111857664Y-53179206D01*
X111742455Y-53265452D01*
X111742452Y-53265455D01*
X111656206Y-53380664D01*
X111656202Y-53380671D01*
X111605908Y-53515517D01*
X111600784Y-53563181D01*
X111599501Y-53575123D01*
X111599500Y-53575135D01*
X104874099Y-53575135D01*
X112262416Y-46186818D01*
X112323739Y-46153333D01*
X112350097Y-46150499D01*
X113697871Y-46150499D01*
X113697872Y-46150499D01*
X113757483Y-46144091D01*
X113892331Y-46093796D01*
X114007546Y-46007546D01*
X114093796Y-45892331D01*
X114144091Y-45757483D01*
X114150500Y-45697873D01*
X114150499Y-43902128D01*
X114144091Y-43842517D01*
X114093796Y-43707669D01*
X114093795Y-43707668D01*
X114093793Y-43707664D01*
X114007547Y-43592455D01*
X114007544Y-43592452D01*
X113892335Y-43506206D01*
X113892328Y-43506202D01*
X113757482Y-43455908D01*
X113757483Y-43455908D01*
X113697883Y-43449501D01*
X113697881Y-43449500D01*
X113697873Y-43449500D01*
X113697865Y-43449500D01*
X113687309Y-43449500D01*
X113620270Y-43429815D01*
X113599628Y-43413181D01*
X112929408Y-42742962D01*
X112992993Y-42725925D01*
X113107007Y-42660099D01*
X113200099Y-42567007D01*
X113265925Y-42452993D01*
X113282962Y-42389409D01*
X113915270Y-43021717D01*
X113915270Y-43021716D01*
X113954622Y-42967554D01*
X114051095Y-42778217D01*
X114116757Y-42576130D01*
X114116757Y-42576127D01*
X114150000Y-42366246D01*
X114150000Y-42153753D01*
X114116757Y-41943872D01*
X114116757Y-41943869D01*
X114051095Y-41741782D01*
X113954624Y-41552449D01*
X113915270Y-41498282D01*
X113915269Y-41498282D01*
X113282962Y-42130590D01*
X113265925Y-42067007D01*
X113200099Y-41952993D01*
X113107007Y-41859901D01*
X112992993Y-41794075D01*
X112929409Y-41777037D01*
X113561716Y-41144728D01*
X113507550Y-41105375D01*
X113318217Y-41008904D01*
X113116129Y-40943242D01*
X112906246Y-40910000D01*
X112693754Y-40910000D01*
X112483872Y-40943242D01*
X112483869Y-40943242D01*
X112281782Y-41008904D01*
X112092439Y-41105380D01*
X112038282Y-41144727D01*
X112038282Y-41144728D01*
X112670591Y-41777037D01*
X112607007Y-41794075D01*
X112492993Y-41859901D01*
X112399901Y-41952993D01*
X112334075Y-42067007D01*
X112317037Y-42130591D01*
X111684728Y-41498282D01*
X111684727Y-41498282D01*
X111645380Y-41552439D01*
X111548904Y-41741782D01*
X111483242Y-41943869D01*
X111483242Y-41943872D01*
X111450000Y-42153753D01*
X111450000Y-42366246D01*
X111483242Y-42576127D01*
X111483242Y-42576130D01*
X111548904Y-42778217D01*
X111645375Y-42967550D01*
X111684728Y-43021716D01*
X112317037Y-42389408D01*
X112334075Y-42452993D01*
X112399901Y-42567007D01*
X112492993Y-42660099D01*
X112607007Y-42725925D01*
X112670590Y-42742962D01*
X112000370Y-43413181D01*
X111939047Y-43446666D01*
X111912698Y-43449500D01*
X111902134Y-43449500D01*
X111902123Y-43449501D01*
X111842516Y-43455908D01*
X111707671Y-43506202D01*
X111707664Y-43506206D01*
X111592455Y-43592452D01*
X111592452Y-43592455D01*
X111506206Y-43707664D01*
X111506202Y-43707671D01*
X111455908Y-43842517D01*
X111449501Y-43902116D01*
X111449501Y-43902123D01*
X111449500Y-43902135D01*
X111449500Y-45249902D01*
X111429815Y-45316941D01*
X111413181Y-45337583D01*
X103187584Y-53563181D01*
X103126261Y-53596666D01*
X103099903Y-53599500D01*
X51879057Y-53599500D01*
X51720942Y-53599500D01*
X51568215Y-53640423D01*
X51568214Y-53640423D01*
X51568212Y-53640424D01*
X51568209Y-53640425D01*
X51518096Y-53669359D01*
X51518095Y-53669360D01*
X51474689Y-53694420D01*
X51431285Y-53719479D01*
X51431282Y-53719481D01*
X49062181Y-56088583D01*
X49000858Y-56122068D01*
X48931166Y-56117084D01*
X48875233Y-56075212D01*
X48850816Y-56009748D01*
X48850500Y-56000902D01*
X48850500Y-55853713D01*
X48824524Y-55689711D01*
X48817246Y-55643757D01*
X48751557Y-55441588D01*
X48655051Y-55252184D01*
X48655049Y-55252181D01*
X48655048Y-55252179D01*
X48530109Y-55080213D01*
X48416569Y-54966673D01*
X48383084Y-54905350D01*
X48388068Y-54835658D01*
X48429940Y-54779725D01*
X48460915Y-54762810D01*
X48592331Y-54713796D01*
X48707546Y-54627546D01*
X48793796Y-54512331D01*
X48844091Y-54377483D01*
X48850500Y-54317873D01*
X48850499Y-52522128D01*
X48844091Y-52462517D01*
X48793796Y-52327669D01*
X48793795Y-52327668D01*
X48793793Y-52327664D01*
X48707547Y-52212455D01*
X48707544Y-52212452D01*
X48592335Y-52126206D01*
X48592328Y-52126202D01*
X48457482Y-52075908D01*
X48457483Y-52075908D01*
X48397883Y-52069501D01*
X48397881Y-52069500D01*
X48397873Y-52069500D01*
X48397864Y-52069500D01*
X46602129Y-52069500D01*
X46602123Y-52069501D01*
X46542516Y-52075908D01*
X46407671Y-52126202D01*
X46407664Y-52126206D01*
X46292455Y-52212452D01*
X46292452Y-52212455D01*
X46206206Y-52327664D01*
X46206202Y-52327671D01*
X46155908Y-52462517D01*
X46149501Y-52522116D01*
X46149501Y-52522123D01*
X46149500Y-52522135D01*
X40500500Y-52522135D01*
X40500500Y-50721153D01*
X65399500Y-50721153D01*
X65399500Y-50878846D01*
X65430261Y-51033489D01*
X65430264Y-51033501D01*
X65490602Y-51179172D01*
X65490609Y-51179185D01*
X65578210Y-51310288D01*
X65578213Y-51310292D01*
X65689707Y-51421786D01*
X65689711Y-51421789D01*
X65820814Y-51509390D01*
X65820827Y-51509397D01*
X65966498Y-51569735D01*
X65966503Y-51569737D01*
X66121153Y-51600499D01*
X66121156Y-51600500D01*
X66121158Y-51600500D01*
X66278843Y-51600500D01*
X66312334Y-51593837D01*
X66371962Y-51581977D01*
X66441552Y-51588204D01*
X66483834Y-51615913D01*
X66489707Y-51621786D01*
X66489711Y-51621789D01*
X66620814Y-51709390D01*
X66620827Y-51709397D01*
X66766498Y-51769735D01*
X66766503Y-51769737D01*
X66921153Y-51800499D01*
X66921156Y-51800500D01*
X66921158Y-51800500D01*
X67078844Y-51800500D01*
X67078845Y-51800499D01*
X67233497Y-51769737D01*
X67379179Y-51709394D01*
X67436044Y-51671397D01*
X67502721Y-51650520D01*
X67504935Y-51650500D01*
X74064071Y-51650500D01*
X74148615Y-51633682D01*
X74189744Y-51625501D01*
X74308127Y-51576465D01*
X74318195Y-51569738D01*
X74318198Y-51569736D01*
X74366432Y-51537507D01*
X74414669Y-51505277D01*
X74740774Y-51179172D01*
X75022299Y-50897648D01*
X91539500Y-50897648D01*
X91539500Y-51102351D01*
X91571522Y-51304534D01*
X91634781Y-51499223D01*
X91727715Y-51681613D01*
X91848028Y-51847213D01*
X91992786Y-51991971D01*
X92147749Y-52104556D01*
X92158390Y-52112287D01*
X92274607Y-52171503D01*
X92340776Y-52205218D01*
X92340778Y-52205218D01*
X92340781Y-52205220D01*
X92445137Y-52239127D01*
X92535465Y-52268477D01*
X92636557Y-52284488D01*
X92737648Y-52300500D01*
X92737649Y-52300500D01*
X92942351Y-52300500D01*
X92942352Y-52300500D01*
X93144534Y-52268477D01*
X93339219Y-52205220D01*
X93521610Y-52112287D01*
X93614590Y-52044732D01*
X93687213Y-51991971D01*
X93687215Y-51991968D01*
X93687219Y-51991966D01*
X93831966Y-51847219D01*
X93831968Y-51847215D01*
X93831971Y-51847213D01*
X93888259Y-51769738D01*
X93952287Y-51681610D01*
X94045220Y-51499219D01*
X94108477Y-51304534D01*
X94140500Y-51102352D01*
X94140500Y-50897648D01*
X101699500Y-50897648D01*
X101699500Y-51102351D01*
X101731522Y-51304534D01*
X101794781Y-51499223D01*
X101887715Y-51681613D01*
X102008028Y-51847213D01*
X102152786Y-51991971D01*
X102307749Y-52104556D01*
X102318390Y-52112287D01*
X102434607Y-52171503D01*
X102500776Y-52205218D01*
X102500778Y-52205218D01*
X102500781Y-52205220D01*
X102605137Y-52239127D01*
X102695465Y-52268477D01*
X102796557Y-52284488D01*
X102897648Y-52300500D01*
X102897649Y-52300500D01*
X103102351Y-52300500D01*
X103102352Y-52300500D01*
X103304534Y-52268477D01*
X103499219Y-52205220D01*
X103681610Y-52112287D01*
X103774590Y-52044732D01*
X103847213Y-51991971D01*
X103847215Y-51991968D01*
X103847219Y-51991966D01*
X103991966Y-51847219D01*
X103991968Y-51847215D01*
X103991971Y-51847213D01*
X104048259Y-51769738D01*
X104112287Y-51681610D01*
X104205220Y-51499219D01*
X104268477Y-51304534D01*
X104300500Y-51102352D01*
X104300500Y-50897648D01*
X104272546Y-50721158D01*
X104268477Y-50695465D01*
X104205218Y-50500776D01*
X104164475Y-50420814D01*
X104112287Y-50318390D01*
X104091448Y-50289707D01*
X103991971Y-50152786D01*
X103847213Y-50008028D01*
X103681613Y-49887715D01*
X103681612Y-49887714D01*
X103681610Y-49887713D01*
X103624653Y-49858691D01*
X103499223Y-49794781D01*
X103304534Y-49731522D01*
X103129995Y-49703878D01*
X103102352Y-49699500D01*
X102897648Y-49699500D01*
X102873329Y-49703351D01*
X102695465Y-49731522D01*
X102500776Y-49794781D01*
X102318386Y-49887715D01*
X102152786Y-50008028D01*
X102008028Y-50152786D01*
X101887715Y-50318386D01*
X101794781Y-50500776D01*
X101731522Y-50695465D01*
X101699500Y-50897648D01*
X94140500Y-50897648D01*
X94112546Y-50721158D01*
X94108477Y-50695465D01*
X94045218Y-50500776D01*
X94004475Y-50420814D01*
X93952287Y-50318390D01*
X93931448Y-50289707D01*
X93831971Y-50152786D01*
X93687213Y-50008028D01*
X93521613Y-49887715D01*
X93521612Y-49887714D01*
X93521610Y-49887713D01*
X93464653Y-49858691D01*
X93339223Y-49794781D01*
X93144534Y-49731522D01*
X92969995Y-49703878D01*
X92942352Y-49699500D01*
X92737648Y-49699500D01*
X92713329Y-49703351D01*
X92535465Y-49731522D01*
X92340776Y-49794781D01*
X92158386Y-49887715D01*
X91992786Y-50008028D01*
X91848028Y-50152786D01*
X91727715Y-50318386D01*
X91634781Y-50500776D01*
X91571522Y-50695465D01*
X91539500Y-50897648D01*
X75022299Y-50897648D01*
X75114852Y-50805095D01*
X88363127Y-37556819D01*
X88424450Y-37523334D01*
X88450808Y-37520500D01*
X90143641Y-37520500D01*
X90210680Y-37540185D01*
X90254126Y-37588205D01*
X90262187Y-37604026D01*
X90391752Y-37782358D01*
X90391756Y-37782363D01*
X90547636Y-37938243D01*
X90547641Y-37938247D01*
X90687254Y-38039682D01*
X90729920Y-38095012D01*
X90735899Y-38164625D01*
X90703293Y-38226420D01*
X90687254Y-38240318D01*
X90547641Y-38341752D01*
X90547636Y-38341756D01*
X90391756Y-38497636D01*
X90391752Y-38497641D01*
X90262187Y-38675974D01*
X90162104Y-38872393D01*
X90162103Y-38872396D01*
X90093985Y-39082047D01*
X90059500Y-39299778D01*
X90059500Y-39520221D01*
X90093985Y-39737952D01*
X90162103Y-39947603D01*
X90162104Y-39947606D01*
X90262187Y-40144025D01*
X90391752Y-40322358D01*
X90391756Y-40322363D01*
X90547636Y-40478243D01*
X90547641Y-40478247D01*
X90687254Y-40579682D01*
X90729920Y-40635012D01*
X90735899Y-40704625D01*
X90703293Y-40766420D01*
X90687254Y-40780318D01*
X90547641Y-40881752D01*
X90547636Y-40881756D01*
X90391756Y-41037636D01*
X90391752Y-41037641D01*
X90262187Y-41215974D01*
X90162104Y-41412393D01*
X90162103Y-41412396D01*
X90093985Y-41622047D01*
X90059500Y-41839778D01*
X90059500Y-42060221D01*
X90093985Y-42277952D01*
X90162103Y-42487603D01*
X90162104Y-42487606D01*
X90226279Y-42613554D01*
X90249995Y-42660099D01*
X90262187Y-42684025D01*
X90391752Y-42862358D01*
X90391756Y-42862363D01*
X90547636Y-43018243D01*
X90547641Y-43018247D01*
X90687254Y-43119682D01*
X90729920Y-43175012D01*
X90735899Y-43244625D01*
X90703293Y-43306420D01*
X90687254Y-43320318D01*
X90547641Y-43421752D01*
X90547636Y-43421756D01*
X90391756Y-43577636D01*
X90391752Y-43577641D01*
X90262187Y-43755974D01*
X90162104Y-43952393D01*
X90162103Y-43952396D01*
X90093985Y-44162047D01*
X90093985Y-44162049D01*
X90059500Y-44379778D01*
X90059500Y-44600222D01*
X90071661Y-44677001D01*
X90093985Y-44817952D01*
X90162103Y-45027603D01*
X90162104Y-45027606D01*
X90262187Y-45224025D01*
X90391752Y-45402358D01*
X90391756Y-45402363D01*
X90547636Y-45558243D01*
X90547641Y-45558247D01*
X90703192Y-45671260D01*
X90725978Y-45687815D01*
X90854375Y-45753237D01*
X90922393Y-45787895D01*
X90922396Y-45787896D01*
X91027221Y-45821955D01*
X91132049Y-45856015D01*
X91349778Y-45890500D01*
X91349779Y-45890500D01*
X91570221Y-45890500D01*
X91570222Y-45890500D01*
X91787951Y-45856015D01*
X91997606Y-45787895D01*
X92194022Y-45687815D01*
X92372365Y-45558242D01*
X92488466Y-45442141D01*
X101714500Y-45442141D01*
X101714500Y-46712860D01*
X101714501Y-46712863D01*
X101717275Y-46753794D01*
X101717275Y-46753795D01*
X101761266Y-46930686D01*
X101761267Y-46930687D01*
X101842250Y-47093977D01*
X101842252Y-47093979D01*
X101842253Y-47093981D01*
X101956451Y-47236049D01*
X102098519Y-47350247D01*
X102098520Y-47350247D01*
X102098522Y-47350249D01*
X102180167Y-47390740D01*
X102261815Y-47431234D01*
X102438699Y-47475223D01*
X102438700Y-47475223D01*
X102438703Y-47475224D01*
X102479639Y-47478000D01*
X103300360Y-47477999D01*
X103341297Y-47475224D01*
X103518185Y-47431234D01*
X103681481Y-47350247D01*
X103764815Y-47283260D01*
X103829396Y-47256603D01*
X103898140Y-47269093D01*
X103920179Y-47283256D01*
X104003519Y-47350247D01*
X104166815Y-47431234D01*
X104343699Y-47475223D01*
X104343700Y-47475223D01*
X104343703Y-47475224D01*
X104384639Y-47478000D01*
X105205360Y-47477999D01*
X105246297Y-47475224D01*
X105423185Y-47431234D01*
X105586481Y-47350247D01*
X105728549Y-47236049D01*
X105842747Y-47093981D01*
X105923734Y-46930685D01*
X105967724Y-46753797D01*
X105970500Y-46712861D01*
X105970499Y-45892467D01*
X105990183Y-45825429D01*
X106042987Y-45779674D01*
X106112146Y-45769730D01*
X106150792Y-45781983D01*
X106162394Y-45787895D01*
X106372049Y-45856015D01*
X106589778Y-45890500D01*
X106589779Y-45890500D01*
X106810221Y-45890500D01*
X106810222Y-45890500D01*
X107027951Y-45856015D01*
X107237606Y-45787895D01*
X107434022Y-45687815D01*
X107612365Y-45558242D01*
X107768242Y-45402365D01*
X107897815Y-45224022D01*
X107997895Y-45027606D01*
X108066015Y-44817951D01*
X108100500Y-44600222D01*
X108100500Y-44379778D01*
X108066015Y-44162049D01*
X107997895Y-43952394D01*
X107997895Y-43952393D01*
X107941909Y-43842517D01*
X107897815Y-43755978D01*
X107862713Y-43707664D01*
X107768247Y-43577641D01*
X107768243Y-43577636D01*
X107612363Y-43421756D01*
X107612358Y-43421752D01*
X107472745Y-43320318D01*
X107430079Y-43264989D01*
X107424100Y-43195375D01*
X107456705Y-43133580D01*
X107472745Y-43119682D01*
X107612358Y-43018247D01*
X107612356Y-43018247D01*
X107612365Y-43018242D01*
X107768242Y-42862365D01*
X107897815Y-42684022D01*
X107997895Y-42487606D01*
X108066015Y-42277951D01*
X108100500Y-42060222D01*
X108100500Y-41839778D01*
X108066015Y-41622049D01*
X107997895Y-41412394D01*
X107997895Y-41412393D01*
X107914275Y-41248282D01*
X107914274Y-41248280D01*
X107897814Y-41215976D01*
X107768247Y-41037641D01*
X107768243Y-41037636D01*
X107612363Y-40881756D01*
X107612358Y-40881752D01*
X107472745Y-40780318D01*
X107430079Y-40724989D01*
X107424100Y-40655375D01*
X107456705Y-40593580D01*
X107472745Y-40579682D01*
X107612358Y-40478247D01*
X107612356Y-40478247D01*
X107612365Y-40478242D01*
X107768242Y-40322365D01*
X107897815Y-40144022D01*
X107997895Y-39947606D01*
X108066015Y-39737951D01*
X108100500Y-39520222D01*
X108100500Y-39299778D01*
X108066015Y-39082049D01*
X107997895Y-38872394D01*
X107997895Y-38872393D01*
X107963237Y-38804375D01*
X107897815Y-38675978D01*
X107846405Y-38605218D01*
X107768247Y-38497641D01*
X107768243Y-38497636D01*
X107612363Y-38341756D01*
X107612358Y-38341752D01*
X107472745Y-38240318D01*
X107430079Y-38184989D01*
X107424100Y-38115375D01*
X107456705Y-38053580D01*
X107472745Y-38039682D01*
X107612358Y-37938247D01*
X107612356Y-37938247D01*
X107612365Y-37938242D01*
X107768242Y-37782365D01*
X107897815Y-37604022D01*
X107997895Y-37407606D01*
X108066015Y-37197951D01*
X108100500Y-36980222D01*
X108100500Y-36759778D01*
X108066015Y-36542049D01*
X107997895Y-36332394D01*
X107997895Y-36332393D01*
X107940372Y-36219500D01*
X107897815Y-36135978D01*
X107845446Y-36063898D01*
X107768247Y-35957641D01*
X107768243Y-35957636D01*
X107612363Y-35801756D01*
X107612358Y-35801752D01*
X107472745Y-35700318D01*
X107430079Y-35644989D01*
X107424100Y-35575375D01*
X107456705Y-35513580D01*
X107472745Y-35499682D01*
X107612358Y-35398247D01*
X107612356Y-35398247D01*
X107612365Y-35398242D01*
X107768242Y-35242365D01*
X107897815Y-35064022D01*
X107997895Y-34867606D01*
X108066015Y-34657951D01*
X108100500Y-34440222D01*
X108100500Y-34219778D01*
X108066015Y-34002049D01*
X107997895Y-33792394D01*
X107997895Y-33792393D01*
X107922419Y-33644266D01*
X107897815Y-33595978D01*
X107841718Y-33518766D01*
X107768247Y-33417641D01*
X107768243Y-33417636D01*
X107608920Y-33258313D01*
X107609766Y-33257466D01*
X107574635Y-33203639D01*
X107574142Y-33133771D01*
X107611501Y-33074728D01*
X107635954Y-33057956D01*
X107675474Y-33037313D01*
X107825215Y-32915215D01*
X107947313Y-32765474D01*
X108036771Y-32594215D01*
X108089920Y-32408461D01*
X108089921Y-32408458D01*
X108099999Y-32295097D01*
X108100000Y-32295095D01*
X108100000Y-32128711D01*
X113099500Y-32128711D01*
X113099500Y-32371288D01*
X113131161Y-32611785D01*
X113193947Y-32846104D01*
X113286773Y-33070205D01*
X113286777Y-33070214D01*
X113307694Y-33106443D01*
X113408064Y-33280289D01*
X113408066Y-33280292D01*
X113408067Y-33280293D01*
X113555733Y-33472736D01*
X113555739Y-33472743D01*
X113727256Y-33644260D01*
X113727262Y-33644265D01*
X113919711Y-33791936D01*
X114129788Y-33913224D01*
X114353900Y-34006054D01*
X114588211Y-34068838D01*
X114753581Y-34090609D01*
X114828711Y-34100500D01*
X114828712Y-34100500D01*
X115071289Y-34100500D01*
X115119388Y-34094167D01*
X115311789Y-34068838D01*
X115546100Y-34006054D01*
X115770212Y-33913224D01*
X115980289Y-33791936D01*
X116172738Y-33644265D01*
X116344265Y-33472738D01*
X116491936Y-33280289D01*
X116613224Y-33070212D01*
X116706054Y-32846100D01*
X116768838Y-32611789D01*
X116800500Y-32371288D01*
X116800500Y-32128712D01*
X116799083Y-32117952D01*
X116778693Y-31963071D01*
X116768838Y-31888211D01*
X116706054Y-31653900D01*
X116613224Y-31429788D01*
X116491936Y-31219711D01*
X116366300Y-31055978D01*
X116344266Y-31027263D01*
X116344260Y-31027256D01*
X116172743Y-30855739D01*
X116172736Y-30855733D01*
X115980293Y-30708067D01*
X115980292Y-30708066D01*
X115980289Y-30708064D01*
X115770212Y-30586776D01*
X115770205Y-30586773D01*
X115546104Y-30493947D01*
X115311785Y-30431161D01*
X115071289Y-30399500D01*
X115071288Y-30399500D01*
X114828712Y-30399500D01*
X114828711Y-30399500D01*
X114588214Y-30431161D01*
X114353895Y-30493947D01*
X114129794Y-30586773D01*
X114129785Y-30586777D01*
X113919706Y-30708067D01*
X113727263Y-30855733D01*
X113727256Y-30855739D01*
X113555739Y-31027256D01*
X113555733Y-31027263D01*
X113408067Y-31219706D01*
X113286777Y-31429785D01*
X113286773Y-31429794D01*
X113193947Y-31653895D01*
X113131161Y-31888214D01*
X113099500Y-32128711D01*
X108100000Y-32128711D01*
X108100000Y-32040000D01*
X107133012Y-32040000D01*
X107165925Y-31982993D01*
X107200000Y-31855826D01*
X107200000Y-31724174D01*
X107165925Y-31597007D01*
X107133012Y-31540000D01*
X108099999Y-31540000D01*
X108099999Y-31284907D01*
X108099998Y-31284901D01*
X108089921Y-31171539D01*
X108036771Y-30985784D01*
X107947313Y-30814525D01*
X107825215Y-30664784D01*
X107675474Y-30542686D01*
X107635952Y-30522042D01*
X107585644Y-30473555D01*
X107569537Y-30405568D01*
X107592743Y-30339665D01*
X107609114Y-30321881D01*
X107608920Y-30321687D01*
X107636894Y-30293713D01*
X107768242Y-30162365D01*
X107897815Y-29984022D01*
X107997895Y-29787606D01*
X108066015Y-29577951D01*
X108100500Y-29360222D01*
X108100500Y-29139778D01*
X108066015Y-28922049D01*
X107997895Y-28712394D01*
X107997895Y-28712393D01*
X107953595Y-28625451D01*
X107897815Y-28515978D01*
X107819163Y-28407722D01*
X107768247Y-28337641D01*
X107768243Y-28337636D01*
X107612363Y-28181756D01*
X107612358Y-28181752D01*
X107434025Y-28052187D01*
X107434024Y-28052186D01*
X107434022Y-28052185D01*
X107371096Y-28020122D01*
X107237606Y-27952104D01*
X107237603Y-27952103D01*
X107027952Y-27883985D01*
X106919086Y-27866742D01*
X106810222Y-27849500D01*
X106589778Y-27849500D01*
X106517201Y-27860995D01*
X106372047Y-27883985D01*
X106162396Y-27952103D01*
X106162393Y-27952104D01*
X105965974Y-28052187D01*
X105787641Y-28181752D01*
X105787636Y-28181756D01*
X105631756Y-28337636D01*
X105631752Y-28337641D01*
X105502187Y-28515974D01*
X105402104Y-28712393D01*
X105402103Y-28712396D01*
X105333985Y-28922047D01*
X105310513Y-29070245D01*
X105299500Y-29139778D01*
X105299500Y-29360222D01*
X105303712Y-29386813D01*
X105333985Y-29577952D01*
X105402103Y-29787603D01*
X105402104Y-29787606D01*
X105459373Y-29900000D01*
X105481967Y-29944343D01*
X105502187Y-29984025D01*
X105631752Y-30162358D01*
X105631756Y-30162363D01*
X105791080Y-30321687D01*
X105790232Y-30322534D01*
X105825363Y-30376357D01*
X105825857Y-30446225D01*
X105788500Y-30505269D01*
X105764048Y-30522041D01*
X105724528Y-30542684D01*
X105724526Y-30542686D01*
X105574784Y-30664784D01*
X105452686Y-30814525D01*
X105363228Y-30985784D01*
X105310079Y-31171538D01*
X105310078Y-31171541D01*
X105300000Y-31284902D01*
X105300000Y-31540000D01*
X106266988Y-31540000D01*
X106234075Y-31597007D01*
X106200000Y-31724174D01*
X106200000Y-31855826D01*
X106234075Y-31982993D01*
X106266988Y-32040000D01*
X105300001Y-32040000D01*
X105300001Y-32295098D01*
X105310078Y-32408460D01*
X105363228Y-32594215D01*
X105452686Y-32765474D01*
X105574784Y-32915215D01*
X105724526Y-33037313D01*
X105724527Y-33037314D01*
X105764046Y-33057957D01*
X105814354Y-33106443D01*
X105830462Y-33174430D01*
X105807256Y-33240334D01*
X105790886Y-33258119D01*
X105791080Y-33258313D01*
X105631756Y-33417636D01*
X105631752Y-33417641D01*
X105502187Y-33595974D01*
X105402104Y-33792393D01*
X105402103Y-33792396D01*
X105333985Y-34002047D01*
X105299500Y-34219778D01*
X105299500Y-34440221D01*
X105333985Y-34657952D01*
X105402103Y-34867603D01*
X105402104Y-34867606D01*
X105470122Y-35001096D01*
X105499045Y-35057860D01*
X105502187Y-35064025D01*
X105631752Y-35242358D01*
X105631756Y-35242363D01*
X105787636Y-35398243D01*
X105787641Y-35398247D01*
X105927254Y-35499682D01*
X105969920Y-35555012D01*
X105975899Y-35624625D01*
X105943293Y-35686420D01*
X105927254Y-35700318D01*
X105787641Y-35801752D01*
X105787636Y-35801756D01*
X105631756Y-35957636D01*
X105631752Y-35957641D01*
X105502187Y-36135974D01*
X105402104Y-36332393D01*
X105402103Y-36332396D01*
X105333985Y-36542047D01*
X105333985Y-36542049D01*
X105299500Y-36759778D01*
X105299500Y-36980222D01*
X105303234Y-37003795D01*
X105333985Y-37197952D01*
X105402103Y-37407603D01*
X105402104Y-37407606D01*
X105502187Y-37604025D01*
X105631752Y-37782358D01*
X105631756Y-37782363D01*
X105787636Y-37938243D01*
X105787641Y-37938247D01*
X105927254Y-38039682D01*
X105969920Y-38095012D01*
X105975899Y-38164625D01*
X105943293Y-38226420D01*
X105927254Y-38240318D01*
X105787641Y-38341752D01*
X105787636Y-38341756D01*
X105631756Y-38497636D01*
X105631752Y-38497641D01*
X105502187Y-38675974D01*
X105402104Y-38872393D01*
X105402103Y-38872396D01*
X105333985Y-39082047D01*
X105299500Y-39299778D01*
X105299500Y-39520221D01*
X105333985Y-39737952D01*
X105402103Y-39947603D01*
X105402104Y-39947606D01*
X105502187Y-40144025D01*
X105631752Y-40322358D01*
X105631756Y-40322363D01*
X105787636Y-40478243D01*
X105787641Y-40478247D01*
X105927254Y-40579682D01*
X105969920Y-40635012D01*
X105975899Y-40704625D01*
X105943293Y-40766420D01*
X105927254Y-40780318D01*
X105787641Y-40881752D01*
X105787636Y-40881756D01*
X105631756Y-41037636D01*
X105631752Y-41037641D01*
X105502187Y-41215974D01*
X105402104Y-41412393D01*
X105402103Y-41412396D01*
X105333985Y-41622047D01*
X105299500Y-41839778D01*
X105299500Y-42060221D01*
X105333985Y-42277952D01*
X105402103Y-42487603D01*
X105402104Y-42487606D01*
X105466279Y-42613554D01*
X105489995Y-42660099D01*
X105502187Y-42684025D01*
X105631752Y-42862358D01*
X105631756Y-42862363D01*
X105787636Y-43018243D01*
X105787641Y-43018247D01*
X105927254Y-43119682D01*
X105969920Y-43175012D01*
X105975899Y-43244625D01*
X105943293Y-43306420D01*
X105927254Y-43320318D01*
X105787641Y-43421752D01*
X105787636Y-43421756D01*
X105631756Y-43577636D01*
X105631752Y-43577641D01*
X105502187Y-43755974D01*
X105402104Y-43952393D01*
X105402103Y-43952396D01*
X105333985Y-44162047D01*
X105299500Y-44379778D01*
X105299500Y-44553000D01*
X105279815Y-44620039D01*
X105227011Y-44665794D01*
X105175500Y-44677000D01*
X104384640Y-44677000D01*
X104384636Y-44677001D01*
X104343705Y-44679775D01*
X104343704Y-44679775D01*
X104166813Y-44723766D01*
X104166812Y-44723767D01*
X104003522Y-44804750D01*
X104003519Y-44804752D01*
X103920187Y-44871737D01*
X103855603Y-44898396D01*
X103786859Y-44885905D01*
X103764813Y-44871737D01*
X103681480Y-44804752D01*
X103681477Y-44804750D01*
X103518187Y-44723767D01*
X103518185Y-44723766D01*
X103341299Y-44679776D01*
X103341303Y-44679776D01*
X103314006Y-44677925D01*
X103300361Y-44677000D01*
X103300358Y-44677000D01*
X102479640Y-44677000D01*
X102479636Y-44677001D01*
X102438705Y-44679775D01*
X102438704Y-44679775D01*
X102261813Y-44723766D01*
X102261812Y-44723767D01*
X102098522Y-44804750D01*
X102098520Y-44804752D01*
X101956451Y-44918950D01*
X101956450Y-44918951D01*
X101842252Y-45061020D01*
X101842250Y-45061022D01*
X101761267Y-45224312D01*
X101761266Y-45224314D01*
X101717276Y-45401198D01*
X101714500Y-45442141D01*
X92488466Y-45442141D01*
X92528242Y-45402365D01*
X92657815Y-45224022D01*
X92757895Y-45027606D01*
X92826015Y-44817951D01*
X92860500Y-44600222D01*
X92860500Y-44379778D01*
X92826015Y-44162049D01*
X92757895Y-43952394D01*
X92757895Y-43952393D01*
X92701909Y-43842517D01*
X92657815Y-43755978D01*
X92622713Y-43707664D01*
X92528247Y-43577641D01*
X92528243Y-43577636D01*
X92372363Y-43421756D01*
X92372358Y-43421752D01*
X92232745Y-43320318D01*
X92190079Y-43264989D01*
X92184100Y-43195375D01*
X92216705Y-43133580D01*
X92232745Y-43119682D01*
X92372358Y-43018247D01*
X92372356Y-43018247D01*
X92372365Y-43018242D01*
X92528242Y-42862365D01*
X92657815Y-42684022D01*
X92757895Y-42487606D01*
X92826015Y-42277951D01*
X92860500Y-42060222D01*
X92860500Y-41839778D01*
X92826015Y-41622049D01*
X92757895Y-41412394D01*
X92757895Y-41412393D01*
X92723237Y-41344375D01*
X92657815Y-41215978D01*
X92606049Y-41144728D01*
X92528247Y-41037641D01*
X92528243Y-41037636D01*
X92372363Y-40881756D01*
X92372358Y-40881752D01*
X92232745Y-40780318D01*
X92190079Y-40724989D01*
X92184100Y-40655375D01*
X92216705Y-40593580D01*
X92232745Y-40579682D01*
X92372358Y-40478247D01*
X92372356Y-40478247D01*
X92372365Y-40478242D01*
X92528242Y-40322365D01*
X92657815Y-40144022D01*
X92757895Y-39947606D01*
X92826015Y-39737951D01*
X92860500Y-39520222D01*
X92860500Y-39299778D01*
X92826015Y-39082049D01*
X92757895Y-38872394D01*
X92757895Y-38872393D01*
X92723237Y-38804375D01*
X92657815Y-38675978D01*
X92606405Y-38605218D01*
X92528247Y-38497641D01*
X92528243Y-38497636D01*
X92372363Y-38341756D01*
X92372358Y-38341752D01*
X92232745Y-38240318D01*
X92190079Y-38184989D01*
X92184100Y-38115375D01*
X92216705Y-38053580D01*
X92232745Y-38039682D01*
X92372358Y-37938247D01*
X92372356Y-37938247D01*
X92372365Y-37938242D01*
X92528242Y-37782365D01*
X92657815Y-37604022D01*
X92757895Y-37407606D01*
X92826015Y-37197951D01*
X92860500Y-36980222D01*
X92860500Y-36759778D01*
X92826015Y-36542049D01*
X92757895Y-36332394D01*
X92757895Y-36332393D01*
X92688569Y-36196335D01*
X92688568Y-36196333D01*
X92660955Y-36142141D01*
X93234498Y-36142141D01*
X93234498Y-36962859D01*
X93234499Y-36962863D01*
X93237273Y-37003794D01*
X93237273Y-37003795D01*
X93281264Y-37180686D01*
X93281265Y-37180687D01*
X93362248Y-37343977D01*
X93362250Y-37343979D01*
X93362251Y-37343981D01*
X93476449Y-37486049D01*
X93618517Y-37600247D01*
X93618518Y-37600247D01*
X93618520Y-37600249D01*
X93700165Y-37640740D01*
X93781813Y-37681234D01*
X93958697Y-37725223D01*
X93958698Y-37725223D01*
X93958701Y-37725224D01*
X93999637Y-37728000D01*
X95270358Y-37727999D01*
X95311295Y-37725224D01*
X95488183Y-37681234D01*
X95651479Y-37600247D01*
X95793547Y-37486049D01*
X95907745Y-37343981D01*
X95988732Y-37180685D01*
X96032722Y-37003797D01*
X96035498Y-36962861D01*
X96035497Y-36142140D01*
X96032722Y-36101203D01*
X95988732Y-35924315D01*
X95927947Y-35801752D01*
X95907747Y-35761022D01*
X95907745Y-35761019D01*
X95840761Y-35677687D01*
X95814102Y-35613103D01*
X95826593Y-35544359D01*
X95840755Y-35522320D01*
X95907746Y-35438981D01*
X95988733Y-35275685D01*
X96032723Y-35098797D01*
X96035499Y-35057861D01*
X96035498Y-34237140D01*
X96032723Y-34196203D01*
X95988733Y-34019315D01*
X95936116Y-33913222D01*
X95907748Y-33856022D01*
X95907746Y-33856020D01*
X95907746Y-33856019D01*
X95793548Y-33713951D01*
X95651480Y-33599753D01*
X95651478Y-33599752D01*
X95651476Y-33599750D01*
X95488186Y-33518767D01*
X95488184Y-33518766D01*
X95311298Y-33474776D01*
X95311302Y-33474776D01*
X95284005Y-33472925D01*
X95270360Y-33472000D01*
X95270357Y-33472000D01*
X93999638Y-33472000D01*
X93999635Y-33472001D01*
X93958704Y-33474775D01*
X93958703Y-33474775D01*
X93781812Y-33518766D01*
X93781811Y-33518767D01*
X93618521Y-33599750D01*
X93618519Y-33599752D01*
X93476450Y-33713950D01*
X93476449Y-33713951D01*
X93362251Y-33856020D01*
X93362249Y-33856022D01*
X93281266Y-34019312D01*
X93281265Y-34019314D01*
X93237275Y-34196198D01*
X93234499Y-34237141D01*
X93234499Y-35057859D01*
X93234500Y-35057863D01*
X93237274Y-35098794D01*
X93237274Y-35098795D01*
X93281265Y-35275686D01*
X93281266Y-35275687D01*
X93362249Y-35438977D01*
X93362251Y-35438980D01*
X93429235Y-35522312D01*
X93455894Y-35586896D01*
X93443403Y-35655640D01*
X93429236Y-35677686D01*
X93362247Y-35761024D01*
X93281265Y-35924312D01*
X93281264Y-35924314D01*
X93237274Y-36101198D01*
X93234498Y-36142141D01*
X92660955Y-36142141D01*
X92657814Y-36135976D01*
X92528247Y-35957641D01*
X92528243Y-35957636D01*
X92372363Y-35801756D01*
X92372358Y-35801752D01*
X92232745Y-35700318D01*
X92190079Y-35644989D01*
X92184100Y-35575375D01*
X92216705Y-35513580D01*
X92232745Y-35499682D01*
X92372358Y-35398247D01*
X92372356Y-35398247D01*
X92372365Y-35398242D01*
X92528242Y-35242365D01*
X92657815Y-35064022D01*
X92757895Y-34867606D01*
X92826015Y-34657951D01*
X92860500Y-34440222D01*
X92860500Y-34219778D01*
X92826015Y-34002049D01*
X92757895Y-33792394D01*
X92757895Y-33792393D01*
X92682419Y-33644266D01*
X92657815Y-33595978D01*
X92601718Y-33518766D01*
X92528247Y-33417641D01*
X92528243Y-33417636D01*
X92372363Y-33261756D01*
X92372358Y-33261752D01*
X92232745Y-33160318D01*
X92190079Y-33104989D01*
X92184100Y-33035375D01*
X92216705Y-32973580D01*
X92232745Y-32959682D01*
X92372358Y-32858247D01*
X92372356Y-32858247D01*
X92372365Y-32858242D01*
X92528242Y-32702365D01*
X92657815Y-32524022D01*
X92757895Y-32327606D01*
X92826015Y-32117951D01*
X92860500Y-31900222D01*
X92860500Y-31679778D01*
X92826015Y-31462049D01*
X92772672Y-31297873D01*
X92757896Y-31252396D01*
X92757895Y-31252393D01*
X92684230Y-31107820D01*
X92657815Y-31055978D01*
X92636947Y-31027256D01*
X92528247Y-30877641D01*
X92528243Y-30877636D01*
X92372363Y-30721756D01*
X92372358Y-30721752D01*
X92232745Y-30620318D01*
X92190079Y-30564989D01*
X92184100Y-30495375D01*
X92216705Y-30433580D01*
X92232745Y-30419682D01*
X92357826Y-30328804D01*
X92372365Y-30318242D01*
X92528242Y-30162365D01*
X92657815Y-29984022D01*
X92757895Y-29787606D01*
X92826015Y-29577951D01*
X92860500Y-29360222D01*
X92860500Y-29139778D01*
X92826015Y-28922049D01*
X92757895Y-28712394D01*
X92757895Y-28712393D01*
X92713595Y-28625451D01*
X92657815Y-28515978D01*
X92579163Y-28407722D01*
X92528247Y-28337641D01*
X92528243Y-28337636D01*
X92377885Y-28187278D01*
X96409500Y-28187278D01*
X96409500Y-28407721D01*
X96443985Y-28625452D01*
X96512103Y-28835103D01*
X96512104Y-28835106D01*
X96556404Y-28922047D01*
X96607129Y-29021600D01*
X96612187Y-29031525D01*
X96741752Y-29209858D01*
X96741756Y-29209863D01*
X96897636Y-29365743D01*
X96897641Y-29365747D01*
X97037254Y-29467182D01*
X97079920Y-29522512D01*
X97085899Y-29592125D01*
X97053293Y-29653920D01*
X97037254Y-29667818D01*
X96897641Y-29769252D01*
X96897636Y-29769256D01*
X96741756Y-29925136D01*
X96741752Y-29925141D01*
X96612187Y-30103474D01*
X96512104Y-30299893D01*
X96512103Y-30299896D01*
X96443985Y-30509547D01*
X96435204Y-30564989D01*
X96409500Y-30727278D01*
X96409500Y-30947722D01*
X96422097Y-31027256D01*
X96443985Y-31165452D01*
X96512103Y-31375103D01*
X96512104Y-31375106D01*
X96612187Y-31571525D01*
X96741752Y-31749858D01*
X96741756Y-31749863D01*
X96897636Y-31905743D01*
X96897641Y-31905747D01*
X97053192Y-32018760D01*
X97075978Y-32035315D01*
X97173949Y-32085234D01*
X97272393Y-32135395D01*
X97272396Y-32135396D01*
X97376941Y-32169364D01*
X97482049Y-32203515D01*
X97699778Y-32238000D01*
X97699779Y-32238000D01*
X97920221Y-32238000D01*
X97920222Y-32238000D01*
X98137951Y-32203515D01*
X98347606Y-32135395D01*
X98544022Y-32035315D01*
X98722365Y-31905742D01*
X98878242Y-31749865D01*
X98878242Y-31749864D01*
X98881687Y-31746420D01*
X98882647Y-31747380D01*
X98935987Y-31712553D01*
X99005855Y-31712047D01*
X99064905Y-31749395D01*
X99081690Y-31773862D01*
X99102263Y-31813247D01*
X99102265Y-31813249D01*
X99102266Y-31813251D01*
X99127594Y-31844313D01*
X99224428Y-31963071D01*
X99248861Y-31982993D01*
X99374249Y-32085234D01*
X99545594Y-32174737D01*
X99731448Y-32227917D01*
X99844862Y-32238000D01*
X99844870Y-32238000D01*
X100855130Y-32238000D01*
X100855138Y-32238000D01*
X100968552Y-32227917D01*
X101154406Y-32174737D01*
X101325751Y-32085234D01*
X101475571Y-31963071D01*
X101597734Y-31813251D01*
X101687237Y-31641906D01*
X101740417Y-31456052D01*
X101750500Y-31342638D01*
X101750500Y-30332362D01*
X101740417Y-30218948D01*
X101687237Y-30033094D01*
X101597734Y-29861749D01*
X101522317Y-29769258D01*
X101475571Y-29711928D01*
X101325747Y-29589763D01*
X101286362Y-29569190D01*
X101236055Y-29520704D01*
X101219948Y-29452716D01*
X101243155Y-29386813D01*
X101259160Y-29369427D01*
X101258920Y-29369187D01*
X101320443Y-29307664D01*
X101418242Y-29209865D01*
X101418244Y-29209861D01*
X101418247Y-29209859D01*
X101525657Y-29062021D01*
X101535763Y-29048109D01*
X101547815Y-29031522D01*
X101647895Y-28835106D01*
X101716015Y-28625451D01*
X101750500Y-28407722D01*
X101750500Y-28187278D01*
X101716015Y-27969549D01*
X101647895Y-27759894D01*
X101647895Y-27759893D01*
X101613237Y-27691875D01*
X101547815Y-27563478D01*
X101519681Y-27524754D01*
X101418247Y-27385141D01*
X101418243Y-27385136D01*
X101262363Y-27229256D01*
X101262358Y-27229252D01*
X101084025Y-27099687D01*
X101084024Y-27099686D01*
X101084022Y-27099685D01*
X101021096Y-27067622D01*
X100887606Y-26999604D01*
X100887603Y-26999603D01*
X100677952Y-26931485D01*
X100569086Y-26914242D01*
X100460222Y-26897000D01*
X100239778Y-26897000D01*
X100167201Y-26908495D01*
X100022047Y-26931485D01*
X99812396Y-26999603D01*
X99812393Y-26999604D01*
X99615974Y-27099687D01*
X99437641Y-27229252D01*
X99437636Y-27229256D01*
X99281756Y-27385136D01*
X99281752Y-27385141D01*
X99180318Y-27524754D01*
X99124988Y-27567420D01*
X99055375Y-27573399D01*
X98993580Y-27540793D01*
X98979682Y-27524754D01*
X98878247Y-27385141D01*
X98878243Y-27385136D01*
X98722363Y-27229256D01*
X98722358Y-27229252D01*
X98544025Y-27099687D01*
X98544024Y-27099686D01*
X98544022Y-27099685D01*
X98481096Y-27067622D01*
X98347606Y-26999604D01*
X98347603Y-26999603D01*
X98137952Y-26931485D01*
X98029086Y-26914242D01*
X97920222Y-26897000D01*
X97699778Y-26897000D01*
X97627201Y-26908495D01*
X97482047Y-26931485D01*
X97272396Y-26999603D01*
X97272393Y-26999604D01*
X97075974Y-27099687D01*
X96897641Y-27229252D01*
X96897636Y-27229256D01*
X96741756Y-27385136D01*
X96741752Y-27385141D01*
X96612187Y-27563474D01*
X96512104Y-27759893D01*
X96512103Y-27759896D01*
X96443985Y-27969547D01*
X96409500Y-28187278D01*
X92377885Y-28187278D01*
X92372363Y-28181756D01*
X92372358Y-28181752D01*
X92194025Y-28052187D01*
X92194024Y-28052186D01*
X92194022Y-28052185D01*
X92131096Y-28020122D01*
X91997606Y-27952104D01*
X91997603Y-27952103D01*
X91787952Y-27883985D01*
X91679086Y-27866742D01*
X91570222Y-27849500D01*
X91349778Y-27849500D01*
X91277201Y-27860995D01*
X91132047Y-27883985D01*
X90922396Y-27952103D01*
X90922393Y-27952104D01*
X90725974Y-28052187D01*
X90547641Y-28181752D01*
X90547636Y-28181756D01*
X90391756Y-28337636D01*
X90391752Y-28337641D01*
X90262187Y-28515974D01*
X90162104Y-28712393D01*
X90162103Y-28712396D01*
X90093985Y-28922047D01*
X90070513Y-29070245D01*
X90059500Y-29139778D01*
X90059500Y-29360222D01*
X90063712Y-29386813D01*
X90093985Y-29577952D01*
X90162103Y-29787603D01*
X90162104Y-29787606D01*
X90219373Y-29900000D01*
X90241967Y-29944343D01*
X90262187Y-29984025D01*
X90391752Y-30162358D01*
X90391756Y-30162363D01*
X90547636Y-30318243D01*
X90547641Y-30318247D01*
X90687254Y-30419682D01*
X90729920Y-30475012D01*
X90735899Y-30544625D01*
X90703293Y-30606420D01*
X90687254Y-30620318D01*
X90547641Y-30721752D01*
X90547636Y-30721756D01*
X90391756Y-30877636D01*
X90391752Y-30877641D01*
X90262187Y-31055974D01*
X90162104Y-31252393D01*
X90162103Y-31252396D01*
X90093985Y-31462047D01*
X90059500Y-31679778D01*
X90059500Y-31900222D01*
X90059499Y-31900222D01*
X90093414Y-32114352D01*
X90084459Y-32183645D01*
X90058622Y-32221430D01*
X72966873Y-49313181D01*
X72905550Y-49346666D01*
X72879192Y-49349500D01*
X66935929Y-49349500D01*
X66810261Y-49374497D01*
X66810255Y-49374499D01*
X66691874Y-49423534D01*
X66585326Y-49494726D01*
X66097068Y-49982984D01*
X66035745Y-50016469D01*
X66033579Y-50016920D01*
X65966508Y-50030261D01*
X65966498Y-50030264D01*
X65820827Y-50090602D01*
X65820814Y-50090609D01*
X65689711Y-50178210D01*
X65689707Y-50178213D01*
X65578213Y-50289707D01*
X65578210Y-50289711D01*
X65490609Y-50420814D01*
X65490602Y-50420827D01*
X65430264Y-50566498D01*
X65430261Y-50566510D01*
X65399500Y-50721153D01*
X40500500Y-50721153D01*
X40500500Y-37097648D01*
X53819500Y-37097648D01*
X53819500Y-37302351D01*
X53851522Y-37504534D01*
X53914781Y-37699223D01*
X54007715Y-37881613D01*
X54128028Y-38047213D01*
X54272786Y-38191971D01*
X54427749Y-38304556D01*
X54438390Y-38312287D01*
X54554607Y-38371503D01*
X54620776Y-38405218D01*
X54620778Y-38405218D01*
X54620781Y-38405220D01*
X54725137Y-38439127D01*
X54815465Y-38468477D01*
X54916557Y-38484488D01*
X55017648Y-38500500D01*
X55017649Y-38500500D01*
X55222351Y-38500500D01*
X55222352Y-38500500D01*
X55424534Y-38468477D01*
X55619219Y-38405220D01*
X55801610Y-38312287D01*
X55939390Y-38212185D01*
X55967213Y-38191971D01*
X55967215Y-38191968D01*
X55967219Y-38191966D01*
X56111966Y-38047219D01*
X56111968Y-38047215D01*
X56111971Y-38047213D01*
X56191141Y-37938243D01*
X56232287Y-37881610D01*
X56325220Y-37699219D01*
X56388477Y-37504534D01*
X56420500Y-37302352D01*
X56420500Y-37097648D01*
X63979500Y-37097648D01*
X63979500Y-37302351D01*
X64011522Y-37504534D01*
X64074781Y-37699223D01*
X64167715Y-37881613D01*
X64288028Y-38047213D01*
X64432786Y-38191971D01*
X64587749Y-38304556D01*
X64598390Y-38312287D01*
X64714607Y-38371503D01*
X64780776Y-38405218D01*
X64780778Y-38405218D01*
X64780781Y-38405220D01*
X64885137Y-38439127D01*
X64975465Y-38468477D01*
X65076557Y-38484488D01*
X65177648Y-38500500D01*
X65177649Y-38500500D01*
X65382351Y-38500500D01*
X65382352Y-38500500D01*
X65584534Y-38468477D01*
X65779219Y-38405220D01*
X65961610Y-38312287D01*
X66099390Y-38212185D01*
X66127213Y-38191971D01*
X66127215Y-38191968D01*
X66127219Y-38191966D01*
X66271966Y-38047219D01*
X66271968Y-38047215D01*
X66271971Y-38047213D01*
X66351141Y-37938243D01*
X66392287Y-37881610D01*
X66485220Y-37699219D01*
X66548477Y-37504534D01*
X66580500Y-37302352D01*
X66580500Y-37297648D01*
X70019500Y-37297648D01*
X70019500Y-37502351D01*
X70051522Y-37704534D01*
X70114781Y-37899223D01*
X70207715Y-38081613D01*
X70328028Y-38247213D01*
X70472786Y-38391971D01*
X70578090Y-38468477D01*
X70638390Y-38512287D01*
X70754607Y-38571503D01*
X70820776Y-38605218D01*
X70820778Y-38605218D01*
X70820781Y-38605220D01*
X70925137Y-38639127D01*
X71015465Y-38668477D01*
X71116557Y-38684488D01*
X71217648Y-38700500D01*
X71217649Y-38700500D01*
X71422351Y-38700500D01*
X71422352Y-38700500D01*
X71624534Y-38668477D01*
X71819219Y-38605220D01*
X72001610Y-38512287D01*
X72094590Y-38444732D01*
X72167213Y-38391971D01*
X72167215Y-38391968D01*
X72167219Y-38391966D01*
X72311966Y-38247219D01*
X72311968Y-38247215D01*
X72311971Y-38247213D01*
X72364732Y-38174590D01*
X72432287Y-38081610D01*
X72525220Y-37899219D01*
X72588477Y-37704534D01*
X72620500Y-37502352D01*
X72620500Y-37297648D01*
X72611466Y-37240611D01*
X72588477Y-37095465D01*
X72525218Y-36900776D01*
X72453375Y-36759778D01*
X72432287Y-36718390D01*
X72419490Y-36700776D01*
X72311971Y-36552786D01*
X72167213Y-36408028D01*
X72001613Y-36287715D01*
X72001612Y-36287714D01*
X72001610Y-36287713D01*
X71916798Y-36244499D01*
X71819223Y-36194781D01*
X71624534Y-36131522D01*
X71449995Y-36103878D01*
X71422352Y-36099500D01*
X71217648Y-36099500D01*
X71193329Y-36103351D01*
X71015465Y-36131522D01*
X70820776Y-36194781D01*
X70638386Y-36287715D01*
X70472786Y-36408028D01*
X70328028Y-36552786D01*
X70207715Y-36718386D01*
X70114781Y-36900776D01*
X70051522Y-37095465D01*
X70019500Y-37297648D01*
X66580500Y-37297648D01*
X66580500Y-37097648D01*
X66559152Y-36962863D01*
X66548477Y-36895465D01*
X66504389Y-36759778D01*
X66485220Y-36700781D01*
X66485218Y-36700778D01*
X66485218Y-36700776D01*
X66451503Y-36634607D01*
X66392287Y-36518390D01*
X66384556Y-36507749D01*
X66271971Y-36352786D01*
X66127213Y-36208028D01*
X65961613Y-36087715D01*
X65961612Y-36087714D01*
X65961610Y-36087713D01*
X65904653Y-36058691D01*
X65779223Y-35994781D01*
X65584534Y-35931522D01*
X65409995Y-35903878D01*
X65382352Y-35899500D01*
X65177648Y-35899500D01*
X65153329Y-35903351D01*
X64975465Y-35931522D01*
X64780776Y-35994781D01*
X64598386Y-36087715D01*
X64432786Y-36208028D01*
X64288028Y-36352786D01*
X64167715Y-36518386D01*
X64074781Y-36700776D01*
X64011522Y-36895465D01*
X63979500Y-37097648D01*
X56420500Y-37097648D01*
X56399152Y-36962863D01*
X56388477Y-36895465D01*
X56344389Y-36759778D01*
X56325220Y-36700781D01*
X56325218Y-36700778D01*
X56325218Y-36700776D01*
X56291503Y-36634607D01*
X56232287Y-36518390D01*
X56224556Y-36507749D01*
X56111971Y-36352786D01*
X55967213Y-36208028D01*
X55801613Y-36087715D01*
X55801612Y-36087714D01*
X55801610Y-36087713D01*
X55744653Y-36058691D01*
X55619223Y-35994781D01*
X55424534Y-35931522D01*
X55249995Y-35903878D01*
X55222352Y-35899500D01*
X55017648Y-35899500D01*
X54993329Y-35903351D01*
X54815465Y-35931522D01*
X54620776Y-35994781D01*
X54438386Y-36087715D01*
X54272786Y-36208028D01*
X54128028Y-36352786D01*
X54007715Y-36518386D01*
X53914781Y-36700776D01*
X53851522Y-36895465D01*
X53819500Y-37097648D01*
X40500500Y-37097648D01*
X40500500Y-32128711D01*
X44399500Y-32128711D01*
X44399500Y-32371288D01*
X44431161Y-32611785D01*
X44493947Y-32846104D01*
X44586773Y-33070205D01*
X44586777Y-33070214D01*
X44607694Y-33106443D01*
X44708064Y-33280289D01*
X44708066Y-33280292D01*
X44708067Y-33280293D01*
X44855733Y-33472736D01*
X44855739Y-33472743D01*
X45027256Y-33644260D01*
X45027262Y-33644265D01*
X45219711Y-33791936D01*
X45429788Y-33913224D01*
X45653900Y-34006054D01*
X45888211Y-34068838D01*
X46053581Y-34090609D01*
X46128711Y-34100500D01*
X46128712Y-34100500D01*
X46371289Y-34100500D01*
X46419388Y-34094167D01*
X46611789Y-34068838D01*
X46846100Y-34006054D01*
X47070212Y-33913224D01*
X47280289Y-33791936D01*
X47472738Y-33644265D01*
X47644265Y-33472738D01*
X47791936Y-33280289D01*
X47913224Y-33070212D01*
X48006054Y-32846100D01*
X48068838Y-32611789D01*
X48100500Y-32371288D01*
X48100500Y-32128712D01*
X48099083Y-32117952D01*
X48078693Y-31963071D01*
X48068838Y-31888211D01*
X48006054Y-31653900D01*
X47913224Y-31429788D01*
X47791936Y-31219711D01*
X47666300Y-31055978D01*
X47644266Y-31027263D01*
X47644260Y-31027256D01*
X47472743Y-30855739D01*
X47472736Y-30855733D01*
X47280293Y-30708067D01*
X47280292Y-30708066D01*
X47280289Y-30708064D01*
X47070212Y-30586776D01*
X47070205Y-30586773D01*
X46846104Y-30493947D01*
X46611785Y-30431161D01*
X46371289Y-30399500D01*
X46371288Y-30399500D01*
X46128712Y-30399500D01*
X46128711Y-30399500D01*
X45888214Y-30431161D01*
X45653895Y-30493947D01*
X45429794Y-30586773D01*
X45429785Y-30586777D01*
X45219706Y-30708067D01*
X45027263Y-30855733D01*
X45027256Y-30855739D01*
X44855739Y-31027256D01*
X44855733Y-31027263D01*
X44708067Y-31219706D01*
X44586777Y-31429785D01*
X44586773Y-31429794D01*
X44493947Y-31653895D01*
X44431161Y-31888214D01*
X44399500Y-32128711D01*
X40500500Y-32128711D01*
X40500500Y-29502135D01*
X63439500Y-29502135D01*
X63439500Y-31297870D01*
X63439501Y-31297876D01*
X63445908Y-31357483D01*
X63496202Y-31492328D01*
X63496206Y-31492335D01*
X63582452Y-31607544D01*
X63582455Y-31607547D01*
X63697664Y-31693793D01*
X63697671Y-31693797D01*
X63832516Y-31744091D01*
X63878757Y-31749063D01*
X63943307Y-31775801D01*
X63983155Y-31833194D01*
X63989500Y-31872352D01*
X63989500Y-32668846D01*
X64020261Y-32823489D01*
X64020264Y-32823501D01*
X64080602Y-32969172D01*
X64080609Y-32969185D01*
X64168210Y-33100288D01*
X64168213Y-33100292D01*
X66489707Y-35421786D01*
X66489711Y-35421789D01*
X66620814Y-35509390D01*
X66620827Y-35509397D01*
X66730953Y-35555012D01*
X66766503Y-35569737D01*
X66852767Y-35586896D01*
X66921153Y-35600499D01*
X66921156Y-35600500D01*
X66921158Y-35600500D01*
X67078842Y-35600500D01*
X78497060Y-35600500D01*
X78564099Y-35620185D01*
X78584741Y-35636819D01*
X80143898Y-37195976D01*
X80177383Y-37257299D01*
X80179835Y-37293377D01*
X80179500Y-37297637D01*
X80179500Y-37502351D01*
X80211522Y-37704534D01*
X80274781Y-37899223D01*
X80367715Y-38081613D01*
X80488028Y-38247213D01*
X80632786Y-38391971D01*
X80738090Y-38468477D01*
X80798390Y-38512287D01*
X80914607Y-38571503D01*
X80980776Y-38605218D01*
X80980778Y-38605218D01*
X80980781Y-38605220D01*
X81085137Y-38639127D01*
X81175465Y-38668477D01*
X81276557Y-38684488D01*
X81377648Y-38700500D01*
X81377649Y-38700500D01*
X81582351Y-38700500D01*
X81582352Y-38700500D01*
X81784534Y-38668477D01*
X81979219Y-38605220D01*
X82161610Y-38512287D01*
X82254590Y-38444732D01*
X82327213Y-38391971D01*
X82327215Y-38391968D01*
X82327219Y-38391966D01*
X82471966Y-38247219D01*
X82471968Y-38247215D01*
X82471971Y-38247213D01*
X82524732Y-38174590D01*
X82592287Y-38081610D01*
X82685220Y-37899219D01*
X82748477Y-37704534D01*
X82780500Y-37502352D01*
X82780500Y-37297648D01*
X82771466Y-37240611D01*
X82748477Y-37095465D01*
X82685218Y-36900776D01*
X82613375Y-36759778D01*
X82592287Y-36718390D01*
X82579490Y-36700776D01*
X82471971Y-36552786D01*
X82327213Y-36408028D01*
X82161613Y-36287715D01*
X82161612Y-36287714D01*
X82161610Y-36287713D01*
X82076798Y-36244499D01*
X81979223Y-36194781D01*
X81784534Y-36131522D01*
X81609995Y-36103878D01*
X81582352Y-36099500D01*
X81377648Y-36099500D01*
X81377638Y-36099500D01*
X81373377Y-36099835D01*
X81305001Y-36085466D01*
X81275976Y-36063898D01*
X79390292Y-34178213D01*
X79390288Y-34178210D01*
X79259185Y-34090609D01*
X79259172Y-34090602D01*
X79113501Y-34030264D01*
X79113489Y-34030261D01*
X78958845Y-33999500D01*
X78958842Y-33999500D01*
X67382940Y-33999500D01*
X67315901Y-33979815D01*
X67295259Y-33963181D01*
X65626819Y-32294741D01*
X65593334Y-32233418D01*
X65590500Y-32207060D01*
X65590500Y-31872351D01*
X65610185Y-31805312D01*
X65662989Y-31759557D01*
X65701247Y-31749061D01*
X65747483Y-31744091D01*
X65882331Y-31693796D01*
X65997546Y-31607546D01*
X66083796Y-31492331D01*
X66134091Y-31357483D01*
X66140500Y-31297873D01*
X66140499Y-31273979D01*
X66143330Y-31260963D01*
X66153940Y-31241525D01*
X66160179Y-31220275D01*
X66176803Y-31199643D01*
X66176808Y-31199636D01*
X66176811Y-31199634D01*
X66176818Y-31199626D01*
X66847037Y-30529408D01*
X66864075Y-30592993D01*
X66929901Y-30707007D01*
X67022993Y-30800099D01*
X67137007Y-30865925D01*
X67200590Y-30882962D01*
X66568282Y-31515269D01*
X66568282Y-31515270D01*
X66622449Y-31554624D01*
X66811782Y-31651095D01*
X67013870Y-31716757D01*
X67223754Y-31750000D01*
X67436246Y-31750000D01*
X67646127Y-31716757D01*
X67646130Y-31716757D01*
X67848217Y-31651095D01*
X68037554Y-31554622D01*
X68091716Y-31515270D01*
X68091717Y-31515270D01*
X67459408Y-30882962D01*
X67522993Y-30865925D01*
X67637007Y-30800099D01*
X67730099Y-30707007D01*
X67795925Y-30592993D01*
X67812962Y-30529408D01*
X68445270Y-31161717D01*
X68445270Y-31161716D01*
X68484622Y-31107555D01*
X68489232Y-31098507D01*
X68537205Y-31047709D01*
X68605025Y-31030912D01*
X68671161Y-31053447D01*
X68710204Y-31098504D01*
X68714949Y-31107817D01*
X68839890Y-31279786D01*
X68990213Y-31430109D01*
X69162179Y-31555048D01*
X69162181Y-31555049D01*
X69162184Y-31555051D01*
X69351588Y-31651557D01*
X69553757Y-31717246D01*
X69763713Y-31750500D01*
X69763714Y-31750500D01*
X69976286Y-31750500D01*
X69976287Y-31750500D01*
X70186243Y-31717246D01*
X70388412Y-31651557D01*
X70577816Y-31555051D01*
X70664138Y-31492335D01*
X70749786Y-31430109D01*
X70749788Y-31430106D01*
X70749792Y-31430104D01*
X70900104Y-31279792D01*
X70900106Y-31279788D01*
X70900109Y-31279786D01*
X71025048Y-31107820D01*
X71025050Y-31107817D01*
X71025051Y-31107816D01*
X71029514Y-31099054D01*
X71077488Y-31048259D01*
X71145308Y-31031463D01*
X71211444Y-31053999D01*
X71250486Y-31099056D01*
X71254951Y-31107820D01*
X71379890Y-31279786D01*
X71530213Y-31430109D01*
X71702179Y-31555048D01*
X71702181Y-31555049D01*
X71702184Y-31555051D01*
X71891588Y-31651557D01*
X72093757Y-31717246D01*
X72303713Y-31750500D01*
X72303714Y-31750500D01*
X72516286Y-31750500D01*
X72516287Y-31750500D01*
X72726243Y-31717246D01*
X72928412Y-31651557D01*
X73117816Y-31555051D01*
X73204138Y-31492335D01*
X73289786Y-31430109D01*
X73289788Y-31430106D01*
X73289792Y-31430104D01*
X73440104Y-31279792D01*
X73440106Y-31279788D01*
X73440109Y-31279786D01*
X73565048Y-31107820D01*
X73565050Y-31107817D01*
X73565051Y-31107816D01*
X73661557Y-30918412D01*
X73727246Y-30716243D01*
X73760500Y-30506287D01*
X73760500Y-30293713D01*
X73727246Y-30083757D01*
X73661557Y-29881588D01*
X73565051Y-29692184D01*
X73565049Y-29692181D01*
X73565048Y-29692179D01*
X73440109Y-29520213D01*
X73289786Y-29369890D01*
X73117820Y-29244951D01*
X72928414Y-29148444D01*
X72928413Y-29148443D01*
X72928412Y-29148443D01*
X72726243Y-29082754D01*
X72726241Y-29082753D01*
X72726240Y-29082753D01*
X72564957Y-29057208D01*
X72516287Y-29049500D01*
X72303713Y-29049500D01*
X72255042Y-29057208D01*
X72093760Y-29082753D01*
X71891585Y-29148444D01*
X71702179Y-29244951D01*
X71530213Y-29369890D01*
X71379890Y-29520213D01*
X71254949Y-29692182D01*
X71250484Y-29700946D01*
X71202509Y-29751742D01*
X71134688Y-29768536D01*
X71068553Y-29745998D01*
X71029516Y-29700946D01*
X71025050Y-29692182D01*
X70900109Y-29520213D01*
X70749786Y-29369890D01*
X70577820Y-29244951D01*
X70388414Y-29148444D01*
X70388413Y-29148443D01*
X70388412Y-29148443D01*
X70186243Y-29082754D01*
X70186241Y-29082753D01*
X70186240Y-29082753D01*
X70024957Y-29057208D01*
X69976287Y-29049500D01*
X69763713Y-29049500D01*
X69715042Y-29057208D01*
X69553760Y-29082753D01*
X69351585Y-29148444D01*
X69162179Y-29244951D01*
X68990213Y-29369890D01*
X68839890Y-29520213D01*
X68714949Y-29692182D01*
X68710202Y-29701499D01*
X68662227Y-29752293D01*
X68594405Y-29769087D01*
X68528271Y-29746548D01*
X68489234Y-29701495D01*
X68484626Y-29692452D01*
X68445270Y-29638282D01*
X68445269Y-29638282D01*
X67812962Y-30270590D01*
X67795925Y-30207007D01*
X67730099Y-30092993D01*
X67637007Y-29999901D01*
X67522993Y-29934075D01*
X67459409Y-29917037D01*
X68091716Y-29284728D01*
X68037550Y-29245375D01*
X67848217Y-29148904D01*
X67646129Y-29083242D01*
X67436246Y-29050000D01*
X67223754Y-29050000D01*
X67013872Y-29083242D01*
X67013869Y-29083242D01*
X66811782Y-29148904D01*
X66622439Y-29245380D01*
X66568282Y-29284727D01*
X66568282Y-29284728D01*
X67200591Y-29917037D01*
X67137007Y-29934075D01*
X67022993Y-29999901D01*
X66929901Y-30092993D01*
X66864075Y-30207007D01*
X66847037Y-30270591D01*
X66176818Y-29600372D01*
X66143333Y-29539049D01*
X66143330Y-29539036D01*
X66140499Y-29526015D01*
X66140499Y-29502128D01*
X66134091Y-29442517D01*
X66103397Y-29360221D01*
X66083798Y-29307673D01*
X66083793Y-29307664D01*
X65997547Y-29192455D01*
X65997544Y-29192452D01*
X65882335Y-29106206D01*
X65882328Y-29106202D01*
X65747482Y-29055908D01*
X65747483Y-29055908D01*
X65687883Y-29049501D01*
X65687881Y-29049500D01*
X65687873Y-29049500D01*
X65687864Y-29049500D01*
X63892129Y-29049500D01*
X63892123Y-29049501D01*
X63832516Y-29055908D01*
X63697671Y-29106202D01*
X63697664Y-29106206D01*
X63582455Y-29192452D01*
X63582452Y-29192455D01*
X63496206Y-29307664D01*
X63496202Y-29307671D01*
X63445908Y-29442517D01*
X63439501Y-29502116D01*
X63439500Y-29502135D01*
X40500500Y-29502135D01*
X40500500Y-26624500D01*
X40520185Y-26557461D01*
X40572989Y-26511706D01*
X40624500Y-26500500D01*
X119375500Y-26500500D01*
X119442539Y-26520185D01*
G37*
%TD.AperFunction*%
%TD*%
M02*
