%TF.GenerationSoftware,KiCad,Pcbnew,10.0.5*%
%TF.CreationDate,2026-10-10T01:32:03-04:00*%
%TF.ProjectId,AttendanceTerminalv2,41747465-6e64-4616-9e63-655465726d69,rev?*%
%TF.SameCoordinates,Original*%
%TF.FileFunction,Legend,Top*%
%TF.FilePolarity,Positive*%
%FSLAX46Y46*%
G04 Gerber Fmt 4.6, Leading zero omitted, Abs format (unit mm)*
G04 Created by KiCad (PCBNEW 10.0.5) date 2026-10-10 01:32:03*
%MOMM*%
%LPD*%
G01*
G04 APERTURE LIST*
%ADD10C,0.100000*%
%ADD11C,0.150000*%
%ADD12C,0.000000*%
%ADD13C,0.120000*%
G04 APERTURE END LIST*
D10*
X46614360Y-61872419D02*
X46804836Y-61872419D01*
X46804836Y-61872419D02*
X46900074Y-61920038D01*
X46900074Y-61920038D02*
X46995312Y-62015276D01*
X46995312Y-62015276D02*
X47042931Y-62205752D01*
X47042931Y-62205752D02*
X47042931Y-62539085D01*
X47042931Y-62539085D02*
X46995312Y-62729561D01*
X46995312Y-62729561D02*
X46900074Y-62824800D01*
X46900074Y-62824800D02*
X46804836Y-62872419D01*
X46804836Y-62872419D02*
X46614360Y-62872419D01*
X46614360Y-62872419D02*
X46519122Y-62824800D01*
X46519122Y-62824800D02*
X46423884Y-62729561D01*
X46423884Y-62729561D02*
X46376265Y-62539085D01*
X46376265Y-62539085D02*
X46376265Y-62205752D01*
X46376265Y-62205752D02*
X46423884Y-62015276D01*
X46423884Y-62015276D02*
X46519122Y-61920038D01*
X46519122Y-61920038D02*
X46614360Y-61872419D01*
X47471503Y-62872419D02*
X47471503Y-61872419D01*
X47471503Y-61872419D02*
X48042931Y-62872419D01*
X48042931Y-62872419D02*
X48042931Y-61872419D01*
X68427693Y-78720038D02*
X68332455Y-78672419D01*
X68332455Y-78672419D02*
X68189598Y-78672419D01*
X68189598Y-78672419D02*
X68046741Y-78720038D01*
X68046741Y-78720038D02*
X67951503Y-78815276D01*
X67951503Y-78815276D02*
X67903884Y-78910514D01*
X67903884Y-78910514D02*
X67856265Y-79100990D01*
X67856265Y-79100990D02*
X67856265Y-79243847D01*
X67856265Y-79243847D02*
X67903884Y-79434323D01*
X67903884Y-79434323D02*
X67951503Y-79529561D01*
X67951503Y-79529561D02*
X68046741Y-79624800D01*
X68046741Y-79624800D02*
X68189598Y-79672419D01*
X68189598Y-79672419D02*
X68284836Y-79672419D01*
X68284836Y-79672419D02*
X68427693Y-79624800D01*
X68427693Y-79624800D02*
X68475312Y-79577180D01*
X68475312Y-79577180D02*
X68475312Y-79243847D01*
X68475312Y-79243847D02*
X68284836Y-79243847D01*
X68903884Y-79672419D02*
X68903884Y-78672419D01*
X68903884Y-78672419D02*
X69475312Y-79672419D01*
X69475312Y-79672419D02*
X69475312Y-78672419D01*
X69951503Y-79672419D02*
X69951503Y-78672419D01*
X69951503Y-78672419D02*
X70189598Y-78672419D01*
X70189598Y-78672419D02*
X70332455Y-78720038D01*
X70332455Y-78720038D02*
X70427693Y-78815276D01*
X70427693Y-78815276D02*
X70475312Y-78910514D01*
X70475312Y-78910514D02*
X70522931Y-79100990D01*
X70522931Y-79100990D02*
X70522931Y-79243847D01*
X70522931Y-79243847D02*
X70475312Y-79434323D01*
X70475312Y-79434323D02*
X70427693Y-79529561D01*
X70427693Y-79529561D02*
X70332455Y-79624800D01*
X70332455Y-79624800D02*
X70189598Y-79672419D01*
X70189598Y-79672419D02*
X69951503Y-79672419D01*
X56608646Y-76072419D02*
X57227693Y-76072419D01*
X57227693Y-76072419D02*
X56894360Y-76453371D01*
X56894360Y-76453371D02*
X57037217Y-76453371D01*
X57037217Y-76453371D02*
X57132455Y-76500990D01*
X57132455Y-76500990D02*
X57180074Y-76548609D01*
X57180074Y-76548609D02*
X57227693Y-76643847D01*
X57227693Y-76643847D02*
X57227693Y-76881942D01*
X57227693Y-76881942D02*
X57180074Y-76977180D01*
X57180074Y-76977180D02*
X57132455Y-77024800D01*
X57132455Y-77024800D02*
X57037217Y-77072419D01*
X57037217Y-77072419D02*
X56751503Y-77072419D01*
X56751503Y-77072419D02*
X56656265Y-77024800D01*
X56656265Y-77024800D02*
X56608646Y-76977180D01*
X57513408Y-76072419D02*
X57846741Y-77072419D01*
X57846741Y-77072419D02*
X58180074Y-76072419D01*
X58418170Y-76072419D02*
X59037217Y-76072419D01*
X59037217Y-76072419D02*
X58703884Y-76453371D01*
X58703884Y-76453371D02*
X58846741Y-76453371D01*
X58846741Y-76453371D02*
X58941979Y-76500990D01*
X58941979Y-76500990D02*
X58989598Y-76548609D01*
X58989598Y-76548609D02*
X59037217Y-76643847D01*
X59037217Y-76643847D02*
X59037217Y-76881942D01*
X59037217Y-76881942D02*
X58989598Y-76977180D01*
X58989598Y-76977180D02*
X58941979Y-77024800D01*
X58941979Y-77024800D02*
X58846741Y-77072419D01*
X58846741Y-77072419D02*
X58561027Y-77072419D01*
X58561027Y-77072419D02*
X58465789Y-77024800D01*
X58465789Y-77024800D02*
X58418170Y-76977180D01*
X117256265Y-42186704D02*
X117732455Y-42186704D01*
X117161027Y-42472419D02*
X117494360Y-41472419D01*
X117494360Y-41472419D02*
X117827693Y-42472419D01*
X118161027Y-42091466D02*
X118922932Y-42091466D01*
X117056265Y-44786704D02*
X117532455Y-44786704D01*
X116961027Y-45072419D02*
X117294360Y-44072419D01*
X117294360Y-44072419D02*
X117627693Y-45072419D01*
X117961027Y-44691466D02*
X118722932Y-44691466D01*
X118341979Y-45072419D02*
X118341979Y-44310514D01*
X52056265Y-72586704D02*
X52532455Y-72586704D01*
X51961027Y-72872419D02*
X52294360Y-71872419D01*
X52294360Y-71872419D02*
X52627693Y-72872419D01*
X52961027Y-72491466D02*
X53722932Y-72491466D01*
X53341979Y-72872419D02*
X53341979Y-72110514D01*
X52056265Y-63986704D02*
X52532455Y-63986704D01*
X51961027Y-64272419D02*
X52294360Y-63272419D01*
X52294360Y-63272419D02*
X52627693Y-64272419D01*
X52961027Y-63891466D02*
X53722932Y-63891466D01*
X65875312Y-79672419D02*
X65541979Y-79196228D01*
X65303884Y-79672419D02*
X65303884Y-78672419D01*
X65303884Y-78672419D02*
X65684836Y-78672419D01*
X65684836Y-78672419D02*
X65780074Y-78720038D01*
X65780074Y-78720038D02*
X65827693Y-78767657D01*
X65827693Y-78767657D02*
X65875312Y-78862895D01*
X65875312Y-78862895D02*
X65875312Y-79005752D01*
X65875312Y-79005752D02*
X65827693Y-79100990D01*
X65827693Y-79100990D02*
X65780074Y-79148609D01*
X65780074Y-79148609D02*
X65684836Y-79196228D01*
X65684836Y-79196228D02*
X65303884Y-79196228D01*
X66208646Y-78672419D02*
X66875312Y-79672419D01*
X66875312Y-78672419D02*
X66208646Y-79672419D01*
X62761027Y-78672419D02*
X63332455Y-78672419D01*
X63046741Y-79672419D02*
X63046741Y-78672419D01*
X63570551Y-78672419D02*
X64237217Y-79672419D01*
X64237217Y-78672419D02*
X63570551Y-79672419D01*
X41151503Y-44567741D02*
X41865789Y-44567741D01*
X41008646Y-44996312D02*
X41508646Y-43496312D01*
X41508646Y-43496312D02*
X42008646Y-44996312D01*
X42508645Y-43996312D02*
X42508645Y-44996312D01*
X42508645Y-44139169D02*
X42580074Y-44067741D01*
X42580074Y-44067741D02*
X42722931Y-43996312D01*
X42722931Y-43996312D02*
X42937217Y-43996312D01*
X42937217Y-43996312D02*
X43080074Y-44067741D01*
X43080074Y-44067741D02*
X43151503Y-44210598D01*
X43151503Y-44210598D02*
X43151503Y-44996312D01*
X43722931Y-43996312D02*
X44080074Y-44996312D01*
X44080074Y-44996312D02*
X44437217Y-43996312D01*
X45651503Y-44996312D02*
X45651503Y-44210598D01*
X45651503Y-44210598D02*
X45580074Y-44067741D01*
X45580074Y-44067741D02*
X45437217Y-43996312D01*
X45437217Y-43996312D02*
X45151503Y-43996312D01*
X45151503Y-43996312D02*
X45008645Y-44067741D01*
X45651503Y-44924884D02*
X45508645Y-44996312D01*
X45508645Y-44996312D02*
X45151503Y-44996312D01*
X45151503Y-44996312D02*
X45008645Y-44924884D01*
X45008645Y-44924884D02*
X44937217Y-44782026D01*
X44937217Y-44782026D02*
X44937217Y-44639169D01*
X44937217Y-44639169D02*
X45008645Y-44496312D01*
X45008645Y-44496312D02*
X45151503Y-44424884D01*
X45151503Y-44424884D02*
X45508645Y-44424884D01*
X45508645Y-44424884D02*
X45651503Y-44353455D01*
X46222931Y-43996312D02*
X46580074Y-44996312D01*
X46937217Y-43996312D02*
X46580074Y-44996312D01*
X46580074Y-44996312D02*
X46437217Y-45353455D01*
X46437217Y-45353455D02*
X46365788Y-45424884D01*
X46365788Y-45424884D02*
X46222931Y-45496312D01*
X48651502Y-44996312D02*
X48651502Y-43496312D01*
X48651502Y-43496312D02*
X49151502Y-44567741D01*
X49151502Y-44567741D02*
X49651502Y-43496312D01*
X49651502Y-43496312D02*
X49651502Y-44996312D01*
X51008646Y-44996312D02*
X51008646Y-44210598D01*
X51008646Y-44210598D02*
X50937217Y-44067741D01*
X50937217Y-44067741D02*
X50794360Y-43996312D01*
X50794360Y-43996312D02*
X50508646Y-43996312D01*
X50508646Y-43996312D02*
X50365788Y-44067741D01*
X51008646Y-44924884D02*
X50865788Y-44996312D01*
X50865788Y-44996312D02*
X50508646Y-44996312D01*
X50508646Y-44996312D02*
X50365788Y-44924884D01*
X50365788Y-44924884D02*
X50294360Y-44782026D01*
X50294360Y-44782026D02*
X50294360Y-44639169D01*
X50294360Y-44639169D02*
X50365788Y-44496312D01*
X50365788Y-44496312D02*
X50508646Y-44424884D01*
X50508646Y-44424884D02*
X50865788Y-44424884D01*
X50865788Y-44424884D02*
X51008646Y-44353455D01*
X51508646Y-43996312D02*
X52080074Y-43996312D01*
X51722931Y-43496312D02*
X51722931Y-44782026D01*
X51722931Y-44782026D02*
X51794360Y-44924884D01*
X51794360Y-44924884D02*
X51937217Y-44996312D01*
X51937217Y-44996312D02*
X52080074Y-44996312D01*
X52580074Y-44996312D02*
X52580074Y-43496312D01*
X53222932Y-44996312D02*
X53222932Y-44210598D01*
X53222932Y-44210598D02*
X53151503Y-44067741D01*
X53151503Y-44067741D02*
X53008646Y-43996312D01*
X53008646Y-43996312D02*
X52794360Y-43996312D01*
X52794360Y-43996312D02*
X52651503Y-44067741D01*
X52651503Y-44067741D02*
X52580074Y-44139169D01*
X54580075Y-43996312D02*
X54580075Y-44996312D01*
X53937217Y-43996312D02*
X53937217Y-44782026D01*
X53937217Y-44782026D02*
X54008646Y-44924884D01*
X54008646Y-44924884D02*
X54151503Y-44996312D01*
X54151503Y-44996312D02*
X54365789Y-44996312D01*
X54365789Y-44996312D02*
X54508646Y-44924884D01*
X54508646Y-44924884D02*
X54580075Y-44853455D01*
X55294360Y-44996312D02*
X55294360Y-43996312D01*
X55294360Y-44282026D02*
X55365789Y-44139169D01*
X55365789Y-44139169D02*
X55437218Y-44067741D01*
X55437218Y-44067741D02*
X55580075Y-43996312D01*
X55580075Y-43996312D02*
X55722932Y-43996312D01*
X41151503Y-46982657D02*
X41865789Y-46982657D01*
X41008646Y-47411228D02*
X41508646Y-45911228D01*
X41508646Y-45911228D02*
X42008646Y-47411228D01*
X42294360Y-46411228D02*
X42865788Y-46411228D01*
X42508645Y-45911228D02*
X42508645Y-47196942D01*
X42508645Y-47196942D02*
X42580074Y-47339800D01*
X42580074Y-47339800D02*
X42722931Y-47411228D01*
X42722931Y-47411228D02*
X42865788Y-47411228D01*
X43151503Y-46411228D02*
X43722931Y-46411228D01*
X43365788Y-45911228D02*
X43365788Y-47196942D01*
X43365788Y-47196942D02*
X43437217Y-47339800D01*
X43437217Y-47339800D02*
X43580074Y-47411228D01*
X43580074Y-47411228D02*
X43722931Y-47411228D01*
X44794360Y-47339800D02*
X44651503Y-47411228D01*
X44651503Y-47411228D02*
X44365789Y-47411228D01*
X44365789Y-47411228D02*
X44222931Y-47339800D01*
X44222931Y-47339800D02*
X44151503Y-47196942D01*
X44151503Y-47196942D02*
X44151503Y-46625514D01*
X44151503Y-46625514D02*
X44222931Y-46482657D01*
X44222931Y-46482657D02*
X44365789Y-46411228D01*
X44365789Y-46411228D02*
X44651503Y-46411228D01*
X44651503Y-46411228D02*
X44794360Y-46482657D01*
X44794360Y-46482657D02*
X44865789Y-46625514D01*
X44865789Y-46625514D02*
X44865789Y-46768371D01*
X44865789Y-46768371D02*
X44151503Y-46911228D01*
X45508645Y-46411228D02*
X45508645Y-47411228D01*
X45508645Y-46554085D02*
X45580074Y-46482657D01*
X45580074Y-46482657D02*
X45722931Y-46411228D01*
X45722931Y-46411228D02*
X45937217Y-46411228D01*
X45937217Y-46411228D02*
X46080074Y-46482657D01*
X46080074Y-46482657D02*
X46151503Y-46625514D01*
X46151503Y-46625514D02*
X46151503Y-47411228D01*
X47508646Y-47411228D02*
X47508646Y-45911228D01*
X47508646Y-47339800D02*
X47365788Y-47411228D01*
X47365788Y-47411228D02*
X47080074Y-47411228D01*
X47080074Y-47411228D02*
X46937217Y-47339800D01*
X46937217Y-47339800D02*
X46865788Y-47268371D01*
X46865788Y-47268371D02*
X46794360Y-47125514D01*
X46794360Y-47125514D02*
X46794360Y-46696942D01*
X46794360Y-46696942D02*
X46865788Y-46554085D01*
X46865788Y-46554085D02*
X46937217Y-46482657D01*
X46937217Y-46482657D02*
X47080074Y-46411228D01*
X47080074Y-46411228D02*
X47365788Y-46411228D01*
X47365788Y-46411228D02*
X47508646Y-46482657D01*
X48865789Y-47411228D02*
X48865789Y-46625514D01*
X48865789Y-46625514D02*
X48794360Y-46482657D01*
X48794360Y-46482657D02*
X48651503Y-46411228D01*
X48651503Y-46411228D02*
X48365789Y-46411228D01*
X48365789Y-46411228D02*
X48222931Y-46482657D01*
X48865789Y-47339800D02*
X48722931Y-47411228D01*
X48722931Y-47411228D02*
X48365789Y-47411228D01*
X48365789Y-47411228D02*
X48222931Y-47339800D01*
X48222931Y-47339800D02*
X48151503Y-47196942D01*
X48151503Y-47196942D02*
X48151503Y-47054085D01*
X48151503Y-47054085D02*
X48222931Y-46911228D01*
X48222931Y-46911228D02*
X48365789Y-46839800D01*
X48365789Y-46839800D02*
X48722931Y-46839800D01*
X48722931Y-46839800D02*
X48865789Y-46768371D01*
X49580074Y-46411228D02*
X49580074Y-47411228D01*
X49580074Y-46554085D02*
X49651503Y-46482657D01*
X49651503Y-46482657D02*
X49794360Y-46411228D01*
X49794360Y-46411228D02*
X50008646Y-46411228D01*
X50008646Y-46411228D02*
X50151503Y-46482657D01*
X50151503Y-46482657D02*
X50222932Y-46625514D01*
X50222932Y-46625514D02*
X50222932Y-47411228D01*
X51580075Y-47339800D02*
X51437217Y-47411228D01*
X51437217Y-47411228D02*
X51151503Y-47411228D01*
X51151503Y-47411228D02*
X51008646Y-47339800D01*
X51008646Y-47339800D02*
X50937217Y-47268371D01*
X50937217Y-47268371D02*
X50865789Y-47125514D01*
X50865789Y-47125514D02*
X50865789Y-46696942D01*
X50865789Y-46696942D02*
X50937217Y-46554085D01*
X50937217Y-46554085D02*
X51008646Y-46482657D01*
X51008646Y-46482657D02*
X51151503Y-46411228D01*
X51151503Y-46411228D02*
X51437217Y-46411228D01*
X51437217Y-46411228D02*
X51580075Y-46482657D01*
X52794360Y-47339800D02*
X52651503Y-47411228D01*
X52651503Y-47411228D02*
X52365789Y-47411228D01*
X52365789Y-47411228D02*
X52222931Y-47339800D01*
X52222931Y-47339800D02*
X52151503Y-47196942D01*
X52151503Y-47196942D02*
X52151503Y-46625514D01*
X52151503Y-46625514D02*
X52222931Y-46482657D01*
X52222931Y-46482657D02*
X52365789Y-46411228D01*
X52365789Y-46411228D02*
X52651503Y-46411228D01*
X52651503Y-46411228D02*
X52794360Y-46482657D01*
X52794360Y-46482657D02*
X52865789Y-46625514D01*
X52865789Y-46625514D02*
X52865789Y-46768371D01*
X52865789Y-46768371D02*
X52151503Y-46911228D01*
X54437217Y-45911228D02*
X55294360Y-45911228D01*
X54865788Y-47411228D02*
X54865788Y-45911228D01*
X56365788Y-47339800D02*
X56222931Y-47411228D01*
X56222931Y-47411228D02*
X55937217Y-47411228D01*
X55937217Y-47411228D02*
X55794359Y-47339800D01*
X55794359Y-47339800D02*
X55722931Y-47196942D01*
X55722931Y-47196942D02*
X55722931Y-46625514D01*
X55722931Y-46625514D02*
X55794359Y-46482657D01*
X55794359Y-46482657D02*
X55937217Y-46411228D01*
X55937217Y-46411228D02*
X56222931Y-46411228D01*
X56222931Y-46411228D02*
X56365788Y-46482657D01*
X56365788Y-46482657D02*
X56437217Y-46625514D01*
X56437217Y-46625514D02*
X56437217Y-46768371D01*
X56437217Y-46768371D02*
X55722931Y-46911228D01*
X57080073Y-47411228D02*
X57080073Y-46411228D01*
X57080073Y-46696942D02*
X57151502Y-46554085D01*
X57151502Y-46554085D02*
X57222931Y-46482657D01*
X57222931Y-46482657D02*
X57365788Y-46411228D01*
X57365788Y-46411228D02*
X57508645Y-46411228D01*
X58008644Y-47411228D02*
X58008644Y-46411228D01*
X58008644Y-46554085D02*
X58080073Y-46482657D01*
X58080073Y-46482657D02*
X58222930Y-46411228D01*
X58222930Y-46411228D02*
X58437216Y-46411228D01*
X58437216Y-46411228D02*
X58580073Y-46482657D01*
X58580073Y-46482657D02*
X58651502Y-46625514D01*
X58651502Y-46625514D02*
X58651502Y-47411228D01*
X58651502Y-46625514D02*
X58722930Y-46482657D01*
X58722930Y-46482657D02*
X58865787Y-46411228D01*
X58865787Y-46411228D02*
X59080073Y-46411228D01*
X59080073Y-46411228D02*
X59222930Y-46482657D01*
X59222930Y-46482657D02*
X59294359Y-46625514D01*
X59294359Y-46625514D02*
X59294359Y-47411228D01*
X60008644Y-47411228D02*
X60008644Y-46411228D01*
X60008644Y-45911228D02*
X59937216Y-45982657D01*
X59937216Y-45982657D02*
X60008644Y-46054085D01*
X60008644Y-46054085D02*
X60080073Y-45982657D01*
X60080073Y-45982657D02*
X60008644Y-45911228D01*
X60008644Y-45911228D02*
X60008644Y-46054085D01*
X60722930Y-46411228D02*
X60722930Y-47411228D01*
X60722930Y-46554085D02*
X60794359Y-46482657D01*
X60794359Y-46482657D02*
X60937216Y-46411228D01*
X60937216Y-46411228D02*
X61151502Y-46411228D01*
X61151502Y-46411228D02*
X61294359Y-46482657D01*
X61294359Y-46482657D02*
X61365788Y-46625514D01*
X61365788Y-46625514D02*
X61365788Y-47411228D01*
X62722931Y-47411228D02*
X62722931Y-46625514D01*
X62722931Y-46625514D02*
X62651502Y-46482657D01*
X62651502Y-46482657D02*
X62508645Y-46411228D01*
X62508645Y-46411228D02*
X62222931Y-46411228D01*
X62222931Y-46411228D02*
X62080073Y-46482657D01*
X62722931Y-47339800D02*
X62580073Y-47411228D01*
X62580073Y-47411228D02*
X62222931Y-47411228D01*
X62222931Y-47411228D02*
X62080073Y-47339800D01*
X62080073Y-47339800D02*
X62008645Y-47196942D01*
X62008645Y-47196942D02*
X62008645Y-47054085D01*
X62008645Y-47054085D02*
X62080073Y-46911228D01*
X62080073Y-46911228D02*
X62222931Y-46839800D01*
X62222931Y-46839800D02*
X62580073Y-46839800D01*
X62580073Y-46839800D02*
X62722931Y-46768371D01*
X63651502Y-47411228D02*
X63508645Y-47339800D01*
X63508645Y-47339800D02*
X63437216Y-47196942D01*
X63437216Y-47196942D02*
X63437216Y-45911228D01*
X63608646Y-27272419D02*
X64227693Y-27272419D01*
X64227693Y-27272419D02*
X63894360Y-27653371D01*
X63894360Y-27653371D02*
X64037217Y-27653371D01*
X64037217Y-27653371D02*
X64132455Y-27700990D01*
X64132455Y-27700990D02*
X64180074Y-27748609D01*
X64180074Y-27748609D02*
X64227693Y-27843847D01*
X64227693Y-27843847D02*
X64227693Y-28081942D01*
X64227693Y-28081942D02*
X64180074Y-28177180D01*
X64180074Y-28177180D02*
X64132455Y-28224800D01*
X64132455Y-28224800D02*
X64037217Y-28272419D01*
X64037217Y-28272419D02*
X63751503Y-28272419D01*
X63751503Y-28272419D02*
X63656265Y-28224800D01*
X63656265Y-28224800D02*
X63608646Y-28177180D01*
X64513408Y-27272419D02*
X64846741Y-28272419D01*
X64846741Y-28272419D02*
X65180074Y-27272419D01*
X65418170Y-27272419D02*
X66037217Y-27272419D01*
X66037217Y-27272419D02*
X65703884Y-27653371D01*
X65703884Y-27653371D02*
X65846741Y-27653371D01*
X65846741Y-27653371D02*
X65941979Y-27700990D01*
X65941979Y-27700990D02*
X65989598Y-27748609D01*
X65989598Y-27748609D02*
X66037217Y-27843847D01*
X66037217Y-27843847D02*
X66037217Y-28081942D01*
X66037217Y-28081942D02*
X65989598Y-28177180D01*
X65989598Y-28177180D02*
X65941979Y-28224800D01*
X65941979Y-28224800D02*
X65846741Y-28272419D01*
X65846741Y-28272419D02*
X65561027Y-28272419D01*
X65561027Y-28272419D02*
X65465789Y-28224800D01*
X65465789Y-28224800D02*
X65418170Y-28177180D01*
X72056265Y-28424800D02*
X72199122Y-28472419D01*
X72199122Y-28472419D02*
X72437217Y-28472419D01*
X72437217Y-28472419D02*
X72532455Y-28424800D01*
X72532455Y-28424800D02*
X72580074Y-28377180D01*
X72580074Y-28377180D02*
X72627693Y-28281942D01*
X72627693Y-28281942D02*
X72627693Y-28186704D01*
X72627693Y-28186704D02*
X72580074Y-28091466D01*
X72580074Y-28091466D02*
X72532455Y-28043847D01*
X72532455Y-28043847D02*
X72437217Y-27996228D01*
X72437217Y-27996228D02*
X72246741Y-27948609D01*
X72246741Y-27948609D02*
X72151503Y-27900990D01*
X72151503Y-27900990D02*
X72103884Y-27853371D01*
X72103884Y-27853371D02*
X72056265Y-27758133D01*
X72056265Y-27758133D02*
X72056265Y-27662895D01*
X72056265Y-27662895D02*
X72103884Y-27567657D01*
X72103884Y-27567657D02*
X72151503Y-27520038D01*
X72151503Y-27520038D02*
X72246741Y-27472419D01*
X72246741Y-27472419D02*
X72484836Y-27472419D01*
X72484836Y-27472419D02*
X72627693Y-27520038D01*
X73056265Y-28472419D02*
X73056265Y-27472419D01*
X73056265Y-27472419D02*
X73294360Y-27472419D01*
X73294360Y-27472419D02*
X73437217Y-27520038D01*
X73437217Y-27520038D02*
X73532455Y-27615276D01*
X73532455Y-27615276D02*
X73580074Y-27710514D01*
X73580074Y-27710514D02*
X73627693Y-27900990D01*
X73627693Y-27900990D02*
X73627693Y-28043847D01*
X73627693Y-28043847D02*
X73580074Y-28234323D01*
X73580074Y-28234323D02*
X73532455Y-28329561D01*
X73532455Y-28329561D02*
X73437217Y-28424800D01*
X73437217Y-28424800D02*
X73294360Y-28472419D01*
X73294360Y-28472419D02*
X73056265Y-28472419D01*
X74008646Y-28186704D02*
X74484836Y-28186704D01*
X73913408Y-28472419D02*
X74246741Y-27472419D01*
X74246741Y-27472419D02*
X74580074Y-28472419D01*
X68856265Y-28424800D02*
X68999122Y-28472419D01*
X68999122Y-28472419D02*
X69237217Y-28472419D01*
X69237217Y-28472419D02*
X69332455Y-28424800D01*
X69332455Y-28424800D02*
X69380074Y-28377180D01*
X69380074Y-28377180D02*
X69427693Y-28281942D01*
X69427693Y-28281942D02*
X69427693Y-28186704D01*
X69427693Y-28186704D02*
X69380074Y-28091466D01*
X69380074Y-28091466D02*
X69332455Y-28043847D01*
X69332455Y-28043847D02*
X69237217Y-27996228D01*
X69237217Y-27996228D02*
X69046741Y-27948609D01*
X69046741Y-27948609D02*
X68951503Y-27900990D01*
X68951503Y-27900990D02*
X68903884Y-27853371D01*
X68903884Y-27853371D02*
X68856265Y-27758133D01*
X68856265Y-27758133D02*
X68856265Y-27662895D01*
X68856265Y-27662895D02*
X68903884Y-27567657D01*
X68903884Y-27567657D02*
X68951503Y-27520038D01*
X68951503Y-27520038D02*
X69046741Y-27472419D01*
X69046741Y-27472419D02*
X69284836Y-27472419D01*
X69284836Y-27472419D02*
X69427693Y-27520038D01*
X70427693Y-28377180D02*
X70380074Y-28424800D01*
X70380074Y-28424800D02*
X70237217Y-28472419D01*
X70237217Y-28472419D02*
X70141979Y-28472419D01*
X70141979Y-28472419D02*
X69999122Y-28424800D01*
X69999122Y-28424800D02*
X69903884Y-28329561D01*
X69903884Y-28329561D02*
X69856265Y-28234323D01*
X69856265Y-28234323D02*
X69808646Y-28043847D01*
X69808646Y-28043847D02*
X69808646Y-27900990D01*
X69808646Y-27900990D02*
X69856265Y-27710514D01*
X69856265Y-27710514D02*
X69903884Y-27615276D01*
X69903884Y-27615276D02*
X69999122Y-27520038D01*
X69999122Y-27520038D02*
X70141979Y-27472419D01*
X70141979Y-27472419D02*
X70237217Y-27472419D01*
X70237217Y-27472419D02*
X70380074Y-27520038D01*
X70380074Y-27520038D02*
X70427693Y-27567657D01*
X71332455Y-28472419D02*
X70856265Y-28472419D01*
X70856265Y-28472419D02*
X70856265Y-27472419D01*
D11*
X90719411Y-47974819D02*
X90719411Y-48784342D01*
X90719411Y-48784342D02*
X90767030Y-48879580D01*
X90767030Y-48879580D02*
X90814649Y-48927200D01*
X90814649Y-48927200D02*
X90909887Y-48974819D01*
X90909887Y-48974819D02*
X91100363Y-48974819D01*
X91100363Y-48974819D02*
X91195601Y-48927200D01*
X91195601Y-48927200D02*
X91243220Y-48879580D01*
X91243220Y-48879580D02*
X91290839Y-48784342D01*
X91290839Y-48784342D02*
X91290839Y-47974819D01*
X92290839Y-48974819D02*
X91719411Y-48974819D01*
X92005125Y-48974819D02*
X92005125Y-47974819D01*
X92005125Y-47974819D02*
X91909887Y-48117676D01*
X91909887Y-48117676D02*
X91814649Y-48212914D01*
X91814649Y-48212914D02*
X91719411Y-48260533D01*
X105249819Y-44140720D02*
X104249819Y-44140720D01*
X104249819Y-44140720D02*
X104249819Y-43759768D01*
X104249819Y-43759768D02*
X104297438Y-43664530D01*
X104297438Y-43664530D02*
X104345057Y-43616911D01*
X104345057Y-43616911D02*
X104440295Y-43569292D01*
X104440295Y-43569292D02*
X104583152Y-43569292D01*
X104583152Y-43569292D02*
X104678390Y-43616911D01*
X104678390Y-43616911D02*
X104726009Y-43664530D01*
X104726009Y-43664530D02*
X104773628Y-43759768D01*
X104773628Y-43759768D02*
X104773628Y-44140720D01*
X104249819Y-42950244D02*
X104249819Y-42855006D01*
X104249819Y-42855006D02*
X104297438Y-42759768D01*
X104297438Y-42759768D02*
X104345057Y-42712149D01*
X104345057Y-42712149D02*
X104440295Y-42664530D01*
X104440295Y-42664530D02*
X104630771Y-42616911D01*
X104630771Y-42616911D02*
X104868866Y-42616911D01*
X104868866Y-42616911D02*
X105059342Y-42664530D01*
X105059342Y-42664530D02*
X105154580Y-42712149D01*
X105154580Y-42712149D02*
X105202200Y-42759768D01*
X105202200Y-42759768D02*
X105249819Y-42855006D01*
X105249819Y-42855006D02*
X105249819Y-42950244D01*
X105249819Y-42950244D02*
X105202200Y-43045482D01*
X105202200Y-43045482D02*
X105154580Y-43093101D01*
X105154580Y-43093101D02*
X105059342Y-43140720D01*
X105059342Y-43140720D02*
X104868866Y-43188339D01*
X104868866Y-43188339D02*
X104630771Y-43188339D01*
X104630771Y-43188339D02*
X104440295Y-43140720D01*
X104440295Y-43140720D02*
X104345057Y-43093101D01*
X104345057Y-43093101D02*
X104297438Y-43045482D01*
X104297438Y-43045482D02*
X104249819Y-42950244D01*
X105154580Y-42188339D02*
X105202200Y-42140720D01*
X105202200Y-42140720D02*
X105249819Y-42188339D01*
X105249819Y-42188339D02*
X105202200Y-42235958D01*
X105202200Y-42235958D02*
X105154580Y-42188339D01*
X105154580Y-42188339D02*
X105249819Y-42188339D01*
X105249819Y-41188340D02*
X105249819Y-41759768D01*
X105249819Y-41474054D02*
X104249819Y-41474054D01*
X104249819Y-41474054D02*
X104392676Y-41569292D01*
X104392676Y-41569292D02*
X104487914Y-41664530D01*
X104487914Y-41664530D02*
X104535533Y-41759768D01*
X104249819Y-40569292D02*
X104249819Y-40474054D01*
X104249819Y-40474054D02*
X104297438Y-40378816D01*
X104297438Y-40378816D02*
X104345057Y-40331197D01*
X104345057Y-40331197D02*
X104440295Y-40283578D01*
X104440295Y-40283578D02*
X104630771Y-40235959D01*
X104630771Y-40235959D02*
X104868866Y-40235959D01*
X104868866Y-40235959D02*
X105059342Y-40283578D01*
X105059342Y-40283578D02*
X105154580Y-40331197D01*
X105154580Y-40331197D02*
X105202200Y-40378816D01*
X105202200Y-40378816D02*
X105249819Y-40474054D01*
X105249819Y-40474054D02*
X105249819Y-40569292D01*
X105249819Y-40569292D02*
X105202200Y-40664530D01*
X105202200Y-40664530D02*
X105154580Y-40712149D01*
X105154580Y-40712149D02*
X105059342Y-40759768D01*
X105059342Y-40759768D02*
X104868866Y-40807387D01*
X104868866Y-40807387D02*
X104630771Y-40807387D01*
X104630771Y-40807387D02*
X104440295Y-40759768D01*
X104440295Y-40759768D02*
X104345057Y-40712149D01*
X104345057Y-40712149D02*
X104297438Y-40664530D01*
X104297438Y-40664530D02*
X104249819Y-40569292D01*
X103344819Y-44140720D02*
X102344819Y-44140720D01*
X102344819Y-44140720D02*
X102344819Y-43759768D01*
X102344819Y-43759768D02*
X102392438Y-43664530D01*
X102392438Y-43664530D02*
X102440057Y-43616911D01*
X102440057Y-43616911D02*
X102535295Y-43569292D01*
X102535295Y-43569292D02*
X102678152Y-43569292D01*
X102678152Y-43569292D02*
X102773390Y-43616911D01*
X102773390Y-43616911D02*
X102821009Y-43664530D01*
X102821009Y-43664530D02*
X102868628Y-43759768D01*
X102868628Y-43759768D02*
X102868628Y-44140720D01*
X102344819Y-42950244D02*
X102344819Y-42855006D01*
X102344819Y-42855006D02*
X102392438Y-42759768D01*
X102392438Y-42759768D02*
X102440057Y-42712149D01*
X102440057Y-42712149D02*
X102535295Y-42664530D01*
X102535295Y-42664530D02*
X102725771Y-42616911D01*
X102725771Y-42616911D02*
X102963866Y-42616911D01*
X102963866Y-42616911D02*
X103154342Y-42664530D01*
X103154342Y-42664530D02*
X103249580Y-42712149D01*
X103249580Y-42712149D02*
X103297200Y-42759768D01*
X103297200Y-42759768D02*
X103344819Y-42855006D01*
X103344819Y-42855006D02*
X103344819Y-42950244D01*
X103344819Y-42950244D02*
X103297200Y-43045482D01*
X103297200Y-43045482D02*
X103249580Y-43093101D01*
X103249580Y-43093101D02*
X103154342Y-43140720D01*
X103154342Y-43140720D02*
X102963866Y-43188339D01*
X102963866Y-43188339D02*
X102725771Y-43188339D01*
X102725771Y-43188339D02*
X102535295Y-43140720D01*
X102535295Y-43140720D02*
X102440057Y-43093101D01*
X102440057Y-43093101D02*
X102392438Y-43045482D01*
X102392438Y-43045482D02*
X102344819Y-42950244D01*
X103249580Y-42188339D02*
X103297200Y-42140720D01*
X103297200Y-42140720D02*
X103344819Y-42188339D01*
X103344819Y-42188339D02*
X103297200Y-42235958D01*
X103297200Y-42235958D02*
X103249580Y-42188339D01*
X103249580Y-42188339D02*
X103344819Y-42188339D01*
X102344819Y-41521673D02*
X102344819Y-41426435D01*
X102344819Y-41426435D02*
X102392438Y-41331197D01*
X102392438Y-41331197D02*
X102440057Y-41283578D01*
X102440057Y-41283578D02*
X102535295Y-41235959D01*
X102535295Y-41235959D02*
X102725771Y-41188340D01*
X102725771Y-41188340D02*
X102963866Y-41188340D01*
X102963866Y-41188340D02*
X103154342Y-41235959D01*
X103154342Y-41235959D02*
X103249580Y-41283578D01*
X103249580Y-41283578D02*
X103297200Y-41331197D01*
X103297200Y-41331197D02*
X103344819Y-41426435D01*
X103344819Y-41426435D02*
X103344819Y-41521673D01*
X103344819Y-41521673D02*
X103297200Y-41616911D01*
X103297200Y-41616911D02*
X103249580Y-41664530D01*
X103249580Y-41664530D02*
X103154342Y-41712149D01*
X103154342Y-41712149D02*
X102963866Y-41759768D01*
X102963866Y-41759768D02*
X102725771Y-41759768D01*
X102725771Y-41759768D02*
X102535295Y-41712149D01*
X102535295Y-41712149D02*
X102440057Y-41664530D01*
X102440057Y-41664530D02*
X102392438Y-41616911D01*
X102392438Y-41616911D02*
X102344819Y-41521673D01*
X103344819Y-40712149D02*
X103344819Y-40521673D01*
X103344819Y-40521673D02*
X103297200Y-40426435D01*
X103297200Y-40426435D02*
X103249580Y-40378816D01*
X103249580Y-40378816D02*
X103106723Y-40283578D01*
X103106723Y-40283578D02*
X102916247Y-40235959D01*
X102916247Y-40235959D02*
X102535295Y-40235959D01*
X102535295Y-40235959D02*
X102440057Y-40283578D01*
X102440057Y-40283578D02*
X102392438Y-40331197D01*
X102392438Y-40331197D02*
X102344819Y-40426435D01*
X102344819Y-40426435D02*
X102344819Y-40616911D01*
X102344819Y-40616911D02*
X102392438Y-40712149D01*
X102392438Y-40712149D02*
X102440057Y-40759768D01*
X102440057Y-40759768D02*
X102535295Y-40807387D01*
X102535295Y-40807387D02*
X102773390Y-40807387D01*
X102773390Y-40807387D02*
X102868628Y-40759768D01*
X102868628Y-40759768D02*
X102916247Y-40712149D01*
X102916247Y-40712149D02*
X102963866Y-40616911D01*
X102963866Y-40616911D02*
X102963866Y-40426435D01*
X102963866Y-40426435D02*
X102916247Y-40331197D01*
X102916247Y-40331197D02*
X102868628Y-40283578D01*
X102868628Y-40283578D02*
X102773390Y-40235959D01*
X96860113Y-36500259D02*
X97002970Y-36547878D01*
X97002970Y-36547878D02*
X97050589Y-36595497D01*
X97050589Y-36595497D02*
X97098208Y-36690735D01*
X97098208Y-36690735D02*
X97098208Y-36833592D01*
X97098208Y-36833592D02*
X97050589Y-36928830D01*
X97050589Y-36928830D02*
X97002970Y-36976450D01*
X97002970Y-36976450D02*
X96907732Y-37024069D01*
X96907732Y-37024069D02*
X96526780Y-37024069D01*
X96526780Y-37024069D02*
X96526780Y-36024069D01*
X96526780Y-36024069D02*
X96860113Y-36024069D01*
X96860113Y-36024069D02*
X96955351Y-36071688D01*
X96955351Y-36071688D02*
X97002970Y-36119307D01*
X97002970Y-36119307D02*
X97050589Y-36214545D01*
X97050589Y-36214545D02*
X97050589Y-36309783D01*
X97050589Y-36309783D02*
X97002970Y-36405021D01*
X97002970Y-36405021D02*
X96955351Y-36452640D01*
X96955351Y-36452640D02*
X96860113Y-36500259D01*
X96860113Y-36500259D02*
X96526780Y-36500259D01*
X97479161Y-36738354D02*
X97955351Y-36738354D01*
X97383923Y-37024069D02*
X97717256Y-36024069D01*
X97717256Y-36024069D02*
X98050589Y-37024069D01*
X98241066Y-36024069D02*
X98812494Y-36024069D01*
X98526780Y-37024069D02*
X98526780Y-36024069D01*
X99145828Y-36643116D02*
X99907733Y-36643116D01*
X99526780Y-37024069D02*
X99526780Y-36262164D01*
X96860113Y-34595259D02*
X97002970Y-34642878D01*
X97002970Y-34642878D02*
X97050589Y-34690497D01*
X97050589Y-34690497D02*
X97098208Y-34785735D01*
X97098208Y-34785735D02*
X97098208Y-34928592D01*
X97098208Y-34928592D02*
X97050589Y-35023830D01*
X97050589Y-35023830D02*
X97002970Y-35071450D01*
X97002970Y-35071450D02*
X96907732Y-35119069D01*
X96907732Y-35119069D02*
X96526780Y-35119069D01*
X96526780Y-35119069D02*
X96526780Y-34119069D01*
X96526780Y-34119069D02*
X96860113Y-34119069D01*
X96860113Y-34119069D02*
X96955351Y-34166688D01*
X96955351Y-34166688D02*
X97002970Y-34214307D01*
X97002970Y-34214307D02*
X97050589Y-34309545D01*
X97050589Y-34309545D02*
X97050589Y-34404783D01*
X97050589Y-34404783D02*
X97002970Y-34500021D01*
X97002970Y-34500021D02*
X96955351Y-34547640D01*
X96955351Y-34547640D02*
X96860113Y-34595259D01*
X96860113Y-34595259D02*
X96526780Y-34595259D01*
X97479161Y-34833354D02*
X97955351Y-34833354D01*
X97383923Y-35119069D02*
X97717256Y-34119069D01*
X97717256Y-34119069D02*
X98050589Y-35119069D01*
X98241066Y-34119069D02*
X98812494Y-34119069D01*
X98526780Y-35119069D02*
X98526780Y-34119069D01*
X99145828Y-34738116D02*
X99907733Y-34738116D01*
X91745714Y-27919819D02*
X91174286Y-27919819D01*
X91460000Y-27919819D02*
X91460000Y-26919819D01*
X91460000Y-26919819D02*
X91364762Y-27062676D01*
X91364762Y-27062676D02*
X91269524Y-27157914D01*
X91269524Y-27157914D02*
X91174286Y-27205533D01*
X82710057Y-67225238D02*
X82662438Y-67320476D01*
X82662438Y-67320476D02*
X82567200Y-67415714D01*
X82567200Y-67415714D02*
X82424342Y-67558571D01*
X82424342Y-67558571D02*
X82376723Y-67653809D01*
X82376723Y-67653809D02*
X82376723Y-67749047D01*
X82614819Y-67701428D02*
X82567200Y-67796666D01*
X82567200Y-67796666D02*
X82471961Y-67891904D01*
X82471961Y-67891904D02*
X82281485Y-67939523D01*
X82281485Y-67939523D02*
X81948152Y-67939523D01*
X81948152Y-67939523D02*
X81757676Y-67891904D01*
X81757676Y-67891904D02*
X81662438Y-67796666D01*
X81662438Y-67796666D02*
X81614819Y-67701428D01*
X81614819Y-67701428D02*
X81614819Y-67510952D01*
X81614819Y-67510952D02*
X81662438Y-67415714D01*
X81662438Y-67415714D02*
X81757676Y-67320476D01*
X81757676Y-67320476D02*
X81948152Y-67272857D01*
X81948152Y-67272857D02*
X82281485Y-67272857D01*
X82281485Y-67272857D02*
X82471961Y-67320476D01*
X82471961Y-67320476D02*
X82567200Y-67415714D01*
X82567200Y-67415714D02*
X82614819Y-67510952D01*
X82614819Y-67510952D02*
X82614819Y-67701428D01*
X81710057Y-66891904D02*
X81662438Y-66844285D01*
X81662438Y-66844285D02*
X81614819Y-66749047D01*
X81614819Y-66749047D02*
X81614819Y-66510952D01*
X81614819Y-66510952D02*
X81662438Y-66415714D01*
X81662438Y-66415714D02*
X81710057Y-66368095D01*
X81710057Y-66368095D02*
X81805295Y-66320476D01*
X81805295Y-66320476D02*
X81900533Y-66320476D01*
X81900533Y-66320476D02*
X82043390Y-66368095D01*
X82043390Y-66368095D02*
X82614819Y-66939523D01*
X82614819Y-66939523D02*
X82614819Y-66320476D01*
X61686666Y-29854819D02*
X61686666Y-30569104D01*
X61686666Y-30569104D02*
X61639047Y-30711961D01*
X61639047Y-30711961D02*
X61543809Y-30807200D01*
X61543809Y-30807200D02*
X61400952Y-30854819D01*
X61400952Y-30854819D02*
X61305714Y-30854819D01*
X62686666Y-30854819D02*
X62115238Y-30854819D01*
X62400952Y-30854819D02*
X62400952Y-29854819D01*
X62400952Y-29854819D02*
X62305714Y-29997676D01*
X62305714Y-29997676D02*
X62210476Y-30092914D01*
X62210476Y-30092914D02*
X62115238Y-30140533D01*
X49004819Y-68483333D02*
X49719104Y-68483333D01*
X49719104Y-68483333D02*
X49861961Y-68530952D01*
X49861961Y-68530952D02*
X49957200Y-68626190D01*
X49957200Y-68626190D02*
X50004819Y-68769047D01*
X50004819Y-68769047D02*
X50004819Y-68864285D01*
X49338152Y-67578571D02*
X50004819Y-67578571D01*
X48957200Y-67816666D02*
X49671485Y-68054761D01*
X49671485Y-68054761D02*
X49671485Y-67435714D01*
X114238095Y-73054819D02*
X114238095Y-72054819D01*
X114238095Y-72531009D02*
X114809523Y-72531009D01*
X114809523Y-73054819D02*
X114809523Y-72054819D01*
X115714285Y-72388152D02*
X115714285Y-73054819D01*
X115476190Y-72007200D02*
X115238095Y-72721485D01*
X115238095Y-72721485D02*
X115857142Y-72721485D01*
X45488095Y-73054819D02*
X45488095Y-72054819D01*
X45488095Y-72531009D02*
X46059523Y-72531009D01*
X46059523Y-73054819D02*
X46059523Y-72054819D01*
X46440476Y-72054819D02*
X47059523Y-72054819D01*
X47059523Y-72054819D02*
X46726190Y-72435771D01*
X46726190Y-72435771D02*
X46869047Y-72435771D01*
X46869047Y-72435771D02*
X46964285Y-72483390D01*
X46964285Y-72483390D02*
X47011904Y-72531009D01*
X47011904Y-72531009D02*
X47059523Y-72626247D01*
X47059523Y-72626247D02*
X47059523Y-72864342D01*
X47059523Y-72864342D02*
X47011904Y-72959580D01*
X47011904Y-72959580D02*
X46964285Y-73007200D01*
X46964285Y-73007200D02*
X46869047Y-73054819D01*
X46869047Y-73054819D02*
X46583333Y-73054819D01*
X46583333Y-73054819D02*
X46488095Y-73007200D01*
X46488095Y-73007200D02*
X46440476Y-72959580D01*
X45488095Y-28554819D02*
X45488095Y-27554819D01*
X45488095Y-28031009D02*
X46059523Y-28031009D01*
X46059523Y-28554819D02*
X46059523Y-27554819D01*
X46488095Y-27650057D02*
X46535714Y-27602438D01*
X46535714Y-27602438D02*
X46630952Y-27554819D01*
X46630952Y-27554819D02*
X46869047Y-27554819D01*
X46869047Y-27554819D02*
X46964285Y-27602438D01*
X46964285Y-27602438D02*
X47011904Y-27650057D01*
X47011904Y-27650057D02*
X47059523Y-27745295D01*
X47059523Y-27745295D02*
X47059523Y-27840533D01*
X47059523Y-27840533D02*
X47011904Y-27983390D01*
X47011904Y-27983390D02*
X46440476Y-28554819D01*
X46440476Y-28554819D02*
X47059523Y-28554819D01*
X114188095Y-28554819D02*
X114188095Y-27554819D01*
X114188095Y-28031009D02*
X114759523Y-28031009D01*
X114759523Y-28554819D02*
X114759523Y-27554819D01*
X115759523Y-28554819D02*
X115188095Y-28554819D01*
X115473809Y-28554819D02*
X115473809Y-27554819D01*
X115473809Y-27554819D02*
X115378571Y-27697676D01*
X115378571Y-27697676D02*
X115283333Y-27792914D01*
X115283333Y-27792914D02*
X115188095Y-27840533D01*
X112466666Y-46634819D02*
X112466666Y-47349104D01*
X112466666Y-47349104D02*
X112419047Y-47491961D01*
X112419047Y-47491961D02*
X112323809Y-47587200D01*
X112323809Y-47587200D02*
X112180952Y-47634819D01*
X112180952Y-47634819D02*
X112085714Y-47634819D01*
X112847619Y-46634819D02*
X113466666Y-46634819D01*
X113466666Y-46634819D02*
X113133333Y-47015771D01*
X113133333Y-47015771D02*
X113276190Y-47015771D01*
X113276190Y-47015771D02*
X113371428Y-47063390D01*
X113371428Y-47063390D02*
X113419047Y-47111009D01*
X113419047Y-47111009D02*
X113466666Y-47206247D01*
X113466666Y-47206247D02*
X113466666Y-47444342D01*
X113466666Y-47444342D02*
X113419047Y-47539580D01*
X113419047Y-47539580D02*
X113371428Y-47587200D01*
X113371428Y-47587200D02*
X113276190Y-47634819D01*
X113276190Y-47634819D02*
X112990476Y-47634819D01*
X112990476Y-47634819D02*
X112895238Y-47587200D01*
X112895238Y-47587200D02*
X112847619Y-47539580D01*
X63353333Y-65284819D02*
X63020000Y-64808628D01*
X62781905Y-65284819D02*
X62781905Y-64284819D01*
X62781905Y-64284819D02*
X63162857Y-64284819D01*
X63162857Y-64284819D02*
X63258095Y-64332438D01*
X63258095Y-64332438D02*
X63305714Y-64380057D01*
X63305714Y-64380057D02*
X63353333Y-64475295D01*
X63353333Y-64475295D02*
X63353333Y-64618152D01*
X63353333Y-64618152D02*
X63305714Y-64713390D01*
X63305714Y-64713390D02*
X63258095Y-64761009D01*
X63258095Y-64761009D02*
X63162857Y-64808628D01*
X63162857Y-64808628D02*
X62781905Y-64808628D01*
X64210476Y-64618152D02*
X64210476Y-65284819D01*
X63972381Y-64237200D02*
X63734286Y-64951485D01*
X63734286Y-64951485D02*
X64353333Y-64951485D01*
X46166667Y-51447200D02*
X46309524Y-51494819D01*
X46309524Y-51494819D02*
X46547619Y-51494819D01*
X46547619Y-51494819D02*
X46642857Y-51447200D01*
X46642857Y-51447200D02*
X46690476Y-51399580D01*
X46690476Y-51399580D02*
X46738095Y-51304342D01*
X46738095Y-51304342D02*
X46738095Y-51209104D01*
X46738095Y-51209104D02*
X46690476Y-51113866D01*
X46690476Y-51113866D02*
X46642857Y-51066247D01*
X46642857Y-51066247D02*
X46547619Y-51018628D01*
X46547619Y-51018628D02*
X46357143Y-50971009D01*
X46357143Y-50971009D02*
X46261905Y-50923390D01*
X46261905Y-50923390D02*
X46214286Y-50875771D01*
X46214286Y-50875771D02*
X46166667Y-50780533D01*
X46166667Y-50780533D02*
X46166667Y-50685295D01*
X46166667Y-50685295D02*
X46214286Y-50590057D01*
X46214286Y-50590057D02*
X46261905Y-50542438D01*
X46261905Y-50542438D02*
X46357143Y-50494819D01*
X46357143Y-50494819D02*
X46595238Y-50494819D01*
X46595238Y-50494819D02*
X46738095Y-50542438D01*
X47071429Y-50494819D02*
X47309524Y-51494819D01*
X47309524Y-51494819D02*
X47500000Y-50780533D01*
X47500000Y-50780533D02*
X47690476Y-51494819D01*
X47690476Y-51494819D02*
X47928572Y-50494819D01*
X48833333Y-51494819D02*
X48261905Y-51494819D01*
X48547619Y-51494819D02*
X48547619Y-50494819D01*
X48547619Y-50494819D02*
X48452381Y-50637676D01*
X48452381Y-50637676D02*
X48357143Y-50732914D01*
X48357143Y-50732914D02*
X48261905Y-50780533D01*
X76233333Y-40224819D02*
X75900000Y-39748628D01*
X75661905Y-40224819D02*
X75661905Y-39224819D01*
X75661905Y-39224819D02*
X76042857Y-39224819D01*
X76042857Y-39224819D02*
X76138095Y-39272438D01*
X76138095Y-39272438D02*
X76185714Y-39320057D01*
X76185714Y-39320057D02*
X76233333Y-39415295D01*
X76233333Y-39415295D02*
X76233333Y-39558152D01*
X76233333Y-39558152D02*
X76185714Y-39653390D01*
X76185714Y-39653390D02*
X76138095Y-39701009D01*
X76138095Y-39701009D02*
X76042857Y-39748628D01*
X76042857Y-39748628D02*
X75661905Y-39748628D01*
X77090476Y-39224819D02*
X76900000Y-39224819D01*
X76900000Y-39224819D02*
X76804762Y-39272438D01*
X76804762Y-39272438D02*
X76757143Y-39320057D01*
X76757143Y-39320057D02*
X76661905Y-39462914D01*
X76661905Y-39462914D02*
X76614286Y-39653390D01*
X76614286Y-39653390D02*
X76614286Y-40034342D01*
X76614286Y-40034342D02*
X76661905Y-40129580D01*
X76661905Y-40129580D02*
X76709524Y-40177200D01*
X76709524Y-40177200D02*
X76804762Y-40224819D01*
X76804762Y-40224819D02*
X76995238Y-40224819D01*
X76995238Y-40224819D02*
X77090476Y-40177200D01*
X77090476Y-40177200D02*
X77138095Y-40129580D01*
X77138095Y-40129580D02*
X77185714Y-40034342D01*
X77185714Y-40034342D02*
X77185714Y-39796247D01*
X77185714Y-39796247D02*
X77138095Y-39701009D01*
X77138095Y-39701009D02*
X77090476Y-39653390D01*
X77090476Y-39653390D02*
X76995238Y-39605771D01*
X76995238Y-39605771D02*
X76804762Y-39605771D01*
X76804762Y-39605771D02*
X76709524Y-39653390D01*
X76709524Y-39653390D02*
X76661905Y-39701009D01*
X76661905Y-39701009D02*
X76614286Y-39796247D01*
X60033333Y-35284819D02*
X59700000Y-34808628D01*
X59461905Y-35284819D02*
X59461905Y-34284819D01*
X59461905Y-34284819D02*
X59842857Y-34284819D01*
X59842857Y-34284819D02*
X59938095Y-34332438D01*
X59938095Y-34332438D02*
X59985714Y-34380057D01*
X59985714Y-34380057D02*
X60033333Y-34475295D01*
X60033333Y-34475295D02*
X60033333Y-34618152D01*
X60033333Y-34618152D02*
X59985714Y-34713390D01*
X59985714Y-34713390D02*
X59938095Y-34761009D01*
X59938095Y-34761009D02*
X59842857Y-34808628D01*
X59842857Y-34808628D02*
X59461905Y-34808628D01*
X60938095Y-34284819D02*
X60461905Y-34284819D01*
X60461905Y-34284819D02*
X60414286Y-34761009D01*
X60414286Y-34761009D02*
X60461905Y-34713390D01*
X60461905Y-34713390D02*
X60557143Y-34665771D01*
X60557143Y-34665771D02*
X60795238Y-34665771D01*
X60795238Y-34665771D02*
X60890476Y-34713390D01*
X60890476Y-34713390D02*
X60938095Y-34761009D01*
X60938095Y-34761009D02*
X60985714Y-34856247D01*
X60985714Y-34856247D02*
X60985714Y-35094342D01*
X60985714Y-35094342D02*
X60938095Y-35189580D01*
X60938095Y-35189580D02*
X60890476Y-35237200D01*
X60890476Y-35237200D02*
X60795238Y-35284819D01*
X60795238Y-35284819D02*
X60557143Y-35284819D01*
X60557143Y-35284819D02*
X60461905Y-35237200D01*
X60461905Y-35237200D02*
X60414286Y-35189580D01*
X88261905Y-72934819D02*
X88261905Y-71934819D01*
X88261905Y-71934819D02*
X88500000Y-71934819D01*
X88500000Y-71934819D02*
X88642857Y-71982438D01*
X88642857Y-71982438D02*
X88738095Y-72077676D01*
X88738095Y-72077676D02*
X88785714Y-72172914D01*
X88785714Y-72172914D02*
X88833333Y-72363390D01*
X88833333Y-72363390D02*
X88833333Y-72506247D01*
X88833333Y-72506247D02*
X88785714Y-72696723D01*
X88785714Y-72696723D02*
X88738095Y-72791961D01*
X88738095Y-72791961D02*
X88642857Y-72887200D01*
X88642857Y-72887200D02*
X88500000Y-72934819D01*
X88500000Y-72934819D02*
X88261905Y-72934819D01*
X89214286Y-72030057D02*
X89261905Y-71982438D01*
X89261905Y-71982438D02*
X89357143Y-71934819D01*
X89357143Y-71934819D02*
X89595238Y-71934819D01*
X89595238Y-71934819D02*
X89690476Y-71982438D01*
X89690476Y-71982438D02*
X89738095Y-72030057D01*
X89738095Y-72030057D02*
X89785714Y-72125295D01*
X89785714Y-72125295D02*
X89785714Y-72220533D01*
X89785714Y-72220533D02*
X89738095Y-72363390D01*
X89738095Y-72363390D02*
X89166667Y-72934819D01*
X89166667Y-72934819D02*
X89785714Y-72934819D01*
X84928095Y-73254819D02*
X84928095Y-72254819D01*
X85499523Y-73254819D02*
X85070952Y-72683390D01*
X85499523Y-72254819D02*
X84928095Y-72826247D01*
X97553333Y-66424819D02*
X97220000Y-65948628D01*
X96981905Y-66424819D02*
X96981905Y-65424819D01*
X96981905Y-65424819D02*
X97362857Y-65424819D01*
X97362857Y-65424819D02*
X97458095Y-65472438D01*
X97458095Y-65472438D02*
X97505714Y-65520057D01*
X97505714Y-65520057D02*
X97553333Y-65615295D01*
X97553333Y-65615295D02*
X97553333Y-65758152D01*
X97553333Y-65758152D02*
X97505714Y-65853390D01*
X97505714Y-65853390D02*
X97458095Y-65901009D01*
X97458095Y-65901009D02*
X97362857Y-65948628D01*
X97362857Y-65948628D02*
X96981905Y-65948628D01*
X97886667Y-65424819D02*
X98505714Y-65424819D01*
X98505714Y-65424819D02*
X98172381Y-65805771D01*
X98172381Y-65805771D02*
X98315238Y-65805771D01*
X98315238Y-65805771D02*
X98410476Y-65853390D01*
X98410476Y-65853390D02*
X98458095Y-65901009D01*
X98458095Y-65901009D02*
X98505714Y-65996247D01*
X98505714Y-65996247D02*
X98505714Y-66234342D01*
X98505714Y-66234342D02*
X98458095Y-66329580D01*
X98458095Y-66329580D02*
X98410476Y-66377200D01*
X98410476Y-66377200D02*
X98315238Y-66424819D01*
X98315238Y-66424819D02*
X98029524Y-66424819D01*
X98029524Y-66424819D02*
X97934286Y-66377200D01*
X97934286Y-66377200D02*
X97886667Y-66329580D01*
X97663333Y-55334819D02*
X97330000Y-54858628D01*
X97091905Y-55334819D02*
X97091905Y-54334819D01*
X97091905Y-54334819D02*
X97472857Y-54334819D01*
X97472857Y-54334819D02*
X97568095Y-54382438D01*
X97568095Y-54382438D02*
X97615714Y-54430057D01*
X97615714Y-54430057D02*
X97663333Y-54525295D01*
X97663333Y-54525295D02*
X97663333Y-54668152D01*
X97663333Y-54668152D02*
X97615714Y-54763390D01*
X97615714Y-54763390D02*
X97568095Y-54811009D01*
X97568095Y-54811009D02*
X97472857Y-54858628D01*
X97472857Y-54858628D02*
X97091905Y-54858628D01*
X98044286Y-54430057D02*
X98091905Y-54382438D01*
X98091905Y-54382438D02*
X98187143Y-54334819D01*
X98187143Y-54334819D02*
X98425238Y-54334819D01*
X98425238Y-54334819D02*
X98520476Y-54382438D01*
X98520476Y-54382438D02*
X98568095Y-54430057D01*
X98568095Y-54430057D02*
X98615714Y-54525295D01*
X98615714Y-54525295D02*
X98615714Y-54620533D01*
X98615714Y-54620533D02*
X98568095Y-54763390D01*
X98568095Y-54763390D02*
X97996667Y-55334819D01*
X97996667Y-55334819D02*
X98615714Y-55334819D01*
X97753333Y-49084819D02*
X97420000Y-48608628D01*
X97181905Y-49084819D02*
X97181905Y-48084819D01*
X97181905Y-48084819D02*
X97562857Y-48084819D01*
X97562857Y-48084819D02*
X97658095Y-48132438D01*
X97658095Y-48132438D02*
X97705714Y-48180057D01*
X97705714Y-48180057D02*
X97753333Y-48275295D01*
X97753333Y-48275295D02*
X97753333Y-48418152D01*
X97753333Y-48418152D02*
X97705714Y-48513390D01*
X97705714Y-48513390D02*
X97658095Y-48561009D01*
X97658095Y-48561009D02*
X97562857Y-48608628D01*
X97562857Y-48608628D02*
X97181905Y-48608628D01*
X98705714Y-49084819D02*
X98134286Y-49084819D01*
X98420000Y-49084819D02*
X98420000Y-48084819D01*
X98420000Y-48084819D02*
X98324762Y-48227676D01*
X98324762Y-48227676D02*
X98229524Y-48322914D01*
X98229524Y-48322914D02*
X98134286Y-48370533D01*
X79833333Y-80509580D02*
X79785714Y-80557200D01*
X79785714Y-80557200D02*
X79642857Y-80604819D01*
X79642857Y-80604819D02*
X79547619Y-80604819D01*
X79547619Y-80604819D02*
X79404762Y-80557200D01*
X79404762Y-80557200D02*
X79309524Y-80461961D01*
X79309524Y-80461961D02*
X79261905Y-80366723D01*
X79261905Y-80366723D02*
X79214286Y-80176247D01*
X79214286Y-80176247D02*
X79214286Y-80033390D01*
X79214286Y-80033390D02*
X79261905Y-79842914D01*
X79261905Y-79842914D02*
X79309524Y-79747676D01*
X79309524Y-79747676D02*
X79404762Y-79652438D01*
X79404762Y-79652438D02*
X79547619Y-79604819D01*
X79547619Y-79604819D02*
X79642857Y-79604819D01*
X79642857Y-79604819D02*
X79785714Y-79652438D01*
X79785714Y-79652438D02*
X79833333Y-79700057D01*
X80785714Y-80604819D02*
X80214286Y-80604819D01*
X80500000Y-80604819D02*
X80500000Y-79604819D01*
X80500000Y-79604819D02*
X80404762Y-79747676D01*
X80404762Y-79747676D02*
X80309524Y-79842914D01*
X80309524Y-79842914D02*
X80214286Y-79890533D01*
X73466666Y-78254819D02*
X73466666Y-78969104D01*
X73466666Y-78969104D02*
X73419047Y-79111961D01*
X73419047Y-79111961D02*
X73323809Y-79207200D01*
X73323809Y-79207200D02*
X73180952Y-79254819D01*
X73180952Y-79254819D02*
X73085714Y-79254819D01*
X73895238Y-78350057D02*
X73942857Y-78302438D01*
X73942857Y-78302438D02*
X74038095Y-78254819D01*
X74038095Y-78254819D02*
X74276190Y-78254819D01*
X74276190Y-78254819D02*
X74371428Y-78302438D01*
X74371428Y-78302438D02*
X74419047Y-78350057D01*
X74419047Y-78350057D02*
X74466666Y-78445295D01*
X74466666Y-78445295D02*
X74466666Y-78540533D01*
X74466666Y-78540533D02*
X74419047Y-78683390D01*
X74419047Y-78683390D02*
X73847619Y-79254819D01*
X73847619Y-79254819D02*
X74466666Y-79254819D01*
X102069047Y-80881009D02*
X102211904Y-80928628D01*
X102211904Y-80928628D02*
X102259523Y-80976247D01*
X102259523Y-80976247D02*
X102307142Y-81071485D01*
X102307142Y-81071485D02*
X102307142Y-81214342D01*
X102307142Y-81214342D02*
X102259523Y-81309580D01*
X102259523Y-81309580D02*
X102211904Y-81357200D01*
X102211904Y-81357200D02*
X102116666Y-81404819D01*
X102116666Y-81404819D02*
X101735714Y-81404819D01*
X101735714Y-81404819D02*
X101735714Y-80404819D01*
X101735714Y-80404819D02*
X102069047Y-80404819D01*
X102069047Y-80404819D02*
X102164285Y-80452438D01*
X102164285Y-80452438D02*
X102211904Y-80500057D01*
X102211904Y-80500057D02*
X102259523Y-80595295D01*
X102259523Y-80595295D02*
X102259523Y-80690533D01*
X102259523Y-80690533D02*
X102211904Y-80785771D01*
X102211904Y-80785771D02*
X102164285Y-80833390D01*
X102164285Y-80833390D02*
X102069047Y-80881009D01*
X102069047Y-80881009D02*
X101735714Y-80881009D01*
X102640476Y-80404819D02*
X103307142Y-80404819D01*
X103307142Y-80404819D02*
X102640476Y-81404819D01*
X102640476Y-81404819D02*
X103307142Y-81404819D01*
X104211904Y-81404819D02*
X103640476Y-81404819D01*
X103926190Y-81404819D02*
X103926190Y-80404819D01*
X103926190Y-80404819D02*
X103830952Y-80547676D01*
X103830952Y-80547676D02*
X103735714Y-80642914D01*
X103735714Y-80642914D02*
X103640476Y-80690533D01*
X106379048Y-76363866D02*
X107140953Y-76363866D01*
X106760000Y-76744819D02*
X106760000Y-75982914D01*
X117414819Y-58499594D02*
X116414819Y-58499594D01*
X116414819Y-58499594D02*
X116414819Y-58261499D01*
X116414819Y-58261499D02*
X116462438Y-58118642D01*
X116462438Y-58118642D02*
X116557676Y-58023404D01*
X116557676Y-58023404D02*
X116652914Y-57975785D01*
X116652914Y-57975785D02*
X116843390Y-57928166D01*
X116843390Y-57928166D02*
X116986247Y-57928166D01*
X116986247Y-57928166D02*
X117176723Y-57975785D01*
X117176723Y-57975785D02*
X117271961Y-58023404D01*
X117271961Y-58023404D02*
X117367200Y-58118642D01*
X117367200Y-58118642D02*
X117414819Y-58261499D01*
X117414819Y-58261499D02*
X117414819Y-58499594D01*
X116414819Y-57594832D02*
X116414819Y-56975785D01*
X116414819Y-56975785D02*
X116795771Y-57309118D01*
X116795771Y-57309118D02*
X116795771Y-57166261D01*
X116795771Y-57166261D02*
X116843390Y-57071023D01*
X116843390Y-57071023D02*
X116891009Y-57023404D01*
X116891009Y-57023404D02*
X116986247Y-56975785D01*
X116986247Y-56975785D02*
X117224342Y-56975785D01*
X117224342Y-56975785D02*
X117319580Y-57023404D01*
X117319580Y-57023404D02*
X117367200Y-57071023D01*
X117367200Y-57071023D02*
X117414819Y-57166261D01*
X117414819Y-57166261D02*
X117414819Y-57451975D01*
X117414819Y-57451975D02*
X117367200Y-57547213D01*
X117367200Y-57547213D02*
X117319580Y-57594832D01*
D12*
%TO.C,G\u002A\u002A\u002A*%
G36*
X81674215Y-46670407D02*
G01*
X81737350Y-46714709D01*
X81811702Y-46787731D01*
X81819558Y-46795968D01*
X82024848Y-47020556D01*
X82183967Y-47214417D01*
X82299159Y-47380306D01*
X82310148Y-47398483D01*
X82400249Y-47550175D01*
X82751631Y-47657189D01*
X82923376Y-47713009D01*
X83108704Y-47778938D01*
X83281652Y-47845484D01*
X83382619Y-47887869D01*
X83536609Y-47952005D01*
X83718442Y-48021769D01*
X83899437Y-48086362D01*
X83985979Y-48115051D01*
X84148598Y-48169735D01*
X84321635Y-48232291D01*
X84479278Y-48293210D01*
X84554600Y-48324528D01*
X84659048Y-48372654D01*
X84789831Y-48437238D01*
X84935604Y-48512183D01*
X85085024Y-48591389D01*
X85226747Y-48668758D01*
X85349429Y-48738193D01*
X85441725Y-48793593D01*
X85491597Y-48828247D01*
X85533229Y-48851777D01*
X85615217Y-48889122D01*
X85722709Y-48933667D01*
X85769497Y-48952011D01*
X85894938Y-48997950D01*
X85980692Y-49021984D01*
X86040539Y-49026836D01*
X86088259Y-49015226D01*
X86088677Y-49015055D01*
X86144798Y-48992094D01*
X86241793Y-48952565D01*
X86365991Y-48902035D01*
X86502433Y-48846592D01*
X86647020Y-48787411D01*
X86784583Y-48730284D01*
X86898796Y-48682039D01*
X86968936Y-48651494D01*
X87062419Y-48616817D01*
X87134726Y-48610514D01*
X87188397Y-48637461D01*
X87225975Y-48702531D01*
X87250000Y-48810600D01*
X87263013Y-48966543D01*
X87267555Y-49175234D01*
X87267671Y-49224594D01*
X87267161Y-49389534D01*
X87263712Y-49513159D01*
X87254448Y-49613015D01*
X87236492Y-49706653D01*
X87206965Y-49811619D01*
X87162991Y-49945461D01*
X87136890Y-50022229D01*
X87086016Y-50181667D01*
X87041696Y-50339406D01*
X87008417Y-50478177D01*
X86990663Y-50580711D01*
X86989927Y-50588158D01*
X86975776Y-50698662D01*
X86955987Y-50795339D01*
X86940239Y-50843826D01*
X86925390Y-50891549D01*
X86933501Y-50938968D01*
X86970161Y-51003553D01*
X87009062Y-51059028D01*
X87114145Y-51221717D01*
X87227587Y-51426935D01*
X87342742Y-51660288D01*
X87452963Y-51907386D01*
X87551605Y-52153837D01*
X87632019Y-52385248D01*
X87652173Y-52451564D01*
X87680919Y-52563738D01*
X87709978Y-52700277D01*
X87737267Y-52848014D01*
X87760703Y-52993781D01*
X87778205Y-53124411D01*
X87787690Y-53226737D01*
X87787075Y-53287591D01*
X87785408Y-53294030D01*
X87749697Y-53329259D01*
X87682644Y-53321320D01*
X87620857Y-53293585D01*
X87553255Y-53267580D01*
X87451559Y-53238815D01*
X87355968Y-53217301D01*
X87242781Y-53193003D01*
X87096099Y-53158741D01*
X86939214Y-53120045D01*
X86855620Y-53098509D01*
X86710836Y-53062158D01*
X86570556Y-53029769D01*
X86454629Y-53005794D01*
X86402943Y-52997000D01*
X86304178Y-52979898D01*
X86221179Y-52960358D01*
X86196918Y-52952500D01*
X86135935Y-52931881D01*
X86040824Y-52902757D01*
X85952116Y-52877103D01*
X85769702Y-52825794D01*
X85451769Y-52935918D01*
X85277451Y-52993781D01*
X85078619Y-53055917D01*
X84887593Y-53112351D01*
X84810081Y-53133964D01*
X84676683Y-53169025D01*
X84568876Y-53192906D01*
X84469704Y-53207368D01*
X84362211Y-53214171D01*
X84229437Y-53215076D01*
X84058918Y-53211948D01*
X83631509Y-53202010D01*
X83465948Y-53092116D01*
X83341039Y-52993932D01*
X83273478Y-52903039D01*
X83267922Y-52889095D01*
X83248770Y-52798027D01*
X83238370Y-52674263D01*
X83236896Y-52539984D01*
X83244521Y-52417370D01*
X83261421Y-52328603D01*
X83263479Y-52322830D01*
X83275925Y-52280922D01*
X83265411Y-52255122D01*
X83220491Y-52236639D01*
X83129717Y-52216683D01*
X83123676Y-52215470D01*
X83028023Y-52195148D01*
X82893420Y-52165058D01*
X82738115Y-52129340D01*
X82587949Y-52093947D01*
X82324562Y-52031078D01*
X82112316Y-51980513D01*
X81945107Y-51940826D01*
X81816834Y-51910592D01*
X81721397Y-51888385D01*
X81652694Y-51872780D01*
X81604623Y-51862352D01*
X81571082Y-51855675D01*
X81557822Y-51853292D01*
X81498498Y-51840955D01*
X81398296Y-51818017D01*
X81273422Y-51788242D01*
X81189919Y-51767803D01*
X80932218Y-51705076D01*
X80672979Y-51643818D01*
X80420425Y-51585824D01*
X80182777Y-51532890D01*
X79968257Y-51486813D01*
X79785088Y-51449388D01*
X79641492Y-51422411D01*
X79545691Y-51407679D01*
X79537023Y-51406742D01*
X79436183Y-51390371D01*
X79344426Y-51365786D01*
X79337121Y-51363117D01*
X79213793Y-51344340D01*
X79047155Y-51365278D01*
X78837329Y-51425913D01*
X78761761Y-51453440D01*
X78497705Y-51548409D01*
X78268935Y-51617771D01*
X78059653Y-51665166D01*
X77854064Y-51694233D01*
X77658053Y-51707778D01*
X77380109Y-51709967D01*
X77157226Y-51691389D01*
X76989410Y-51652045D01*
X76883531Y-51597410D01*
X76802229Y-51535392D01*
X76731288Y-51481921D01*
X76694514Y-51448747D01*
X76671418Y-51406636D01*
X76657835Y-51340833D01*
X76649598Y-51236581D01*
X76646981Y-51183309D01*
X76648136Y-51060139D01*
X76849956Y-51060139D01*
X76850448Y-51163811D01*
X76856124Y-51253805D01*
X76867217Y-51312024D01*
X76871192Y-51319978D01*
X76908023Y-51353129D01*
X76975771Y-51400689D01*
X77009788Y-51422113D01*
X77065885Y-51452624D01*
X77124757Y-51473756D01*
X77199577Y-51487746D01*
X77303520Y-51496836D01*
X77449759Y-51503265D01*
X77495907Y-51504764D01*
X77663469Y-51508337D01*
X77785301Y-51506239D01*
X77874354Y-51497446D01*
X77943577Y-51480936D01*
X77982294Y-51466344D01*
X78066043Y-51433964D01*
X78179462Y-51394428D01*
X78308308Y-51352178D01*
X78438338Y-51311653D01*
X78555307Y-51277296D01*
X78644972Y-51253547D01*
X78692729Y-51244844D01*
X78743765Y-51235456D01*
X78831379Y-51211253D01*
X78937065Y-51178175D01*
X79042318Y-51142163D01*
X79128632Y-51109156D01*
X79161380Y-51094409D01*
X79223131Y-51080382D01*
X79310819Y-51093775D01*
X79367405Y-51110432D01*
X79437987Y-51130032D01*
X79555807Y-51159181D01*
X79710469Y-51195465D01*
X79891576Y-51236468D01*
X80088731Y-51279775D01*
X80189224Y-51301355D01*
X80369403Y-51340518D01*
X80596202Y-51391049D01*
X80859015Y-51450516D01*
X81147237Y-51516489D01*
X81450262Y-51586536D01*
X81757486Y-51658227D01*
X82058304Y-51729130D01*
X82141210Y-51748813D01*
X83416255Y-52052044D01*
X83509807Y-51945423D01*
X83619257Y-51835503D01*
X83711445Y-51773585D01*
X83782931Y-51761629D01*
X83809533Y-51774746D01*
X83849353Y-51834508D01*
X83835186Y-51905877D01*
X83766240Y-51992665D01*
X83763523Y-51995344D01*
X83697242Y-52067760D01*
X83617606Y-52165031D01*
X83557498Y-52244747D01*
X83494055Y-52338016D01*
X83459251Y-52411225D01*
X83444681Y-52490058D01*
X83441934Y-52597933D01*
X83444317Y-52713540D01*
X83455766Y-52787829D01*
X83483730Y-52838325D01*
X83535659Y-52882552D01*
X83573928Y-52908443D01*
X83636650Y-52946930D01*
X83696360Y-52973671D01*
X83765723Y-52990910D01*
X83857405Y-53000887D01*
X83984069Y-53005844D01*
X84135542Y-53007843D01*
X84318974Y-53006434D01*
X84461973Y-52997522D01*
X84582697Y-52979265D01*
X84694754Y-52951162D01*
X84812785Y-52915519D01*
X84963015Y-52868616D01*
X85121822Y-52817879D01*
X85207416Y-52789994D01*
X85414674Y-52724422D01*
X85610669Y-52667156D01*
X85785398Y-52620787D01*
X85928859Y-52587905D01*
X86031049Y-52571099D01*
X86059135Y-52569457D01*
X86170628Y-52580184D01*
X86267231Y-52607894D01*
X86333732Y-52646622D01*
X86355272Y-52685539D01*
X86378631Y-52722819D01*
X86450282Y-52762333D01*
X86572586Y-52804854D01*
X86747907Y-52851156D01*
X86978606Y-52902011D01*
X87076362Y-52921720D01*
X87214490Y-52949263D01*
X87337205Y-52974191D01*
X87429349Y-52993397D01*
X87470699Y-53002516D01*
X87511901Y-53009327D01*
X87530202Y-52995020D01*
X87530788Y-52946389D01*
X87521786Y-52872387D01*
X87491296Y-52727347D01*
X87435502Y-52543539D01*
X87359457Y-52332628D01*
X87268216Y-52106279D01*
X87166833Y-51876155D01*
X87060363Y-51653922D01*
X86953858Y-51451243D01*
X86852374Y-51279784D01*
X86795367Y-51195881D01*
X86709963Y-51068677D01*
X86663755Y-50970143D01*
X86653413Y-50888248D01*
X86675607Y-50810962D01*
X86684156Y-50794067D01*
X86704905Y-50735483D01*
X86729184Y-50637257D01*
X86752525Y-50518064D01*
X86757890Y-50485939D01*
X86788249Y-50342556D01*
X86834569Y-50175506D01*
X86888318Y-50014649D01*
X86905088Y-49970876D01*
X86949071Y-49857198D01*
X86979680Y-49764636D01*
X86999820Y-49676964D01*
X87012391Y-49577954D01*
X87020299Y-49451378D01*
X87026003Y-49295022D01*
X87038890Y-48890391D01*
X86836884Y-48966077D01*
X86720690Y-49011358D01*
X86573710Y-49071121D01*
X86418947Y-49135930D01*
X86334850Y-49172040D01*
X86175123Y-49238693D01*
X86057916Y-49279911D01*
X85973586Y-49297534D01*
X85912486Y-49293402D01*
X85864974Y-49269356D01*
X85857242Y-49263157D01*
X85803419Y-49230787D01*
X85717605Y-49191608D01*
X85663615Y-49170637D01*
X85583401Y-49135934D01*
X85466954Y-49078323D01*
X85328522Y-49005168D01*
X85182355Y-48923835D01*
X85148552Y-48904405D01*
X84950093Y-48790498D01*
X84788697Y-48700875D01*
X84651072Y-48629336D01*
X84523925Y-48569682D01*
X84393964Y-48515711D01*
X84247896Y-48461223D01*
X84072429Y-48400017D01*
X84053061Y-48393394D01*
X83857594Y-48324417D01*
X83636766Y-48242983D01*
X83417777Y-48159299D01*
X83229202Y-48084142D01*
X83057907Y-48016645D01*
X82878311Y-47950635D01*
X82710198Y-47893105D01*
X82573352Y-47851045D01*
X82556986Y-47846568D01*
X82413533Y-47806349D01*
X82314685Y-47771346D01*
X82247685Y-47733554D01*
X82199778Y-47684962D01*
X82158208Y-47617565D01*
X82141668Y-47585845D01*
X82102390Y-47520717D01*
X82039752Y-47429887D01*
X81961774Y-47323603D01*
X81876473Y-47212113D01*
X81791867Y-47105668D01*
X81715974Y-47014515D01*
X81656813Y-46948904D01*
X81622400Y-46919084D01*
X81619437Y-46918308D01*
X81590061Y-46938671D01*
X81530079Y-46993704D01*
X81448264Y-47074327D01*
X81353392Y-47171458D01*
X81254234Y-47276015D01*
X81159565Y-47378916D01*
X81078158Y-47471080D01*
X81032821Y-47525517D01*
X80938867Y-47619470D01*
X80846537Y-47661459D01*
X80841076Y-47662423D01*
X80692812Y-47699006D01*
X80507535Y-47764356D01*
X80296295Y-47853249D01*
X80070140Y-47960466D01*
X79840118Y-48080784D01*
X79617278Y-48208981D01*
X79423986Y-48332168D01*
X79184411Y-48501653D01*
X78932927Y-48693765D01*
X78674977Y-48903266D01*
X78416002Y-49124921D01*
X78161445Y-49353492D01*
X77916748Y-49583742D01*
X77687352Y-49810435D01*
X77478702Y-50028333D01*
X77296237Y-50232201D01*
X77145401Y-50416800D01*
X77031635Y-50576895D01*
X76963652Y-50699696D01*
X76924113Y-50780019D01*
X76889341Y-50835629D01*
X76877262Y-50848027D01*
X76863596Y-50884150D01*
X76854417Y-50960887D01*
X76849956Y-51060139D01*
X76648136Y-51060139D01*
X76649127Y-50954511D01*
X76680591Y-50766347D01*
X76744418Y-50606771D01*
X76822594Y-50489371D01*
X76959807Y-50315232D01*
X77061286Y-50183588D01*
X77129028Y-50091755D01*
X77165031Y-50037048D01*
X77172422Y-50019184D01*
X77191615Y-49989379D01*
X77242463Y-49929768D01*
X77314869Y-49852041D01*
X77332391Y-49833976D01*
X77432259Y-49731689D01*
X77550305Y-49610708D01*
X77663628Y-49494502D01*
X77681214Y-49476461D01*
X77794314Y-49368522D01*
X77932322Y-49248522D01*
X78071185Y-49137078D01*
X78117248Y-49102664D01*
X78246922Y-49002448D01*
X78395288Y-48878870D01*
X78540066Y-48750833D01*
X78617380Y-48678347D01*
X78710506Y-48593324D01*
X78824693Y-48496478D01*
X78950534Y-48394935D01*
X79078623Y-48295820D01*
X79199552Y-48206260D01*
X79303916Y-48133381D01*
X79382308Y-48084307D01*
X79425322Y-48066166D01*
X79425495Y-48066164D01*
X79457645Y-48049918D01*
X79516617Y-48009456D01*
X79536321Y-47994711D01*
X79633910Y-47930997D01*
X79772884Y-47854360D01*
X79939099Y-47771411D01*
X80118412Y-47688760D01*
X80296677Y-47613017D01*
X80459751Y-47550792D01*
X80549827Y-47521051D01*
X80686815Y-47476751D01*
X80778413Y-47438703D01*
X80836776Y-47400769D01*
X80873581Y-47357571D01*
X80912330Y-47307646D01*
X80983623Y-47225983D01*
X81078451Y-47122536D01*
X81187807Y-47007262D01*
X81228890Y-46964894D01*
X81363611Y-46829083D01*
X81466993Y-46734164D01*
X81547547Y-46677701D01*
X81613784Y-46657260D01*
X81674215Y-46670407D01*
G37*
G36*
X83680676Y-50661259D02*
G01*
X83706373Y-50685631D01*
X83748188Y-50759545D01*
X83768557Y-50862264D01*
X83767777Y-50973169D01*
X83746145Y-51071640D01*
X83703958Y-51137058D01*
X83699824Y-51140162D01*
X83611703Y-51174071D01*
X83497582Y-51182616D01*
X83385210Y-51164444D01*
X83363133Y-51156587D01*
X83296869Y-51100769D01*
X83271526Y-51006482D01*
X83280688Y-50913070D01*
X83331141Y-50789595D01*
X83425931Y-50700713D01*
X83492044Y-50666853D01*
X83577476Y-50635159D01*
X83632946Y-50632645D01*
X83680676Y-50661259D01*
G37*
G36*
X78055388Y-50994670D02*
G01*
X78040672Y-51009386D01*
X78025956Y-50994670D01*
X78040672Y-50979954D01*
X78055388Y-50994670D01*
G37*
G36*
X80899759Y-49997151D02*
G01*
X80965649Y-50052061D01*
X81000947Y-50117852D01*
X81048437Y-50167404D01*
X81132296Y-50186806D01*
X81238293Y-50175986D01*
X81352199Y-50134872D01*
X81380424Y-50119748D01*
X81452529Y-50080780D01*
X81495531Y-50070723D01*
X81530680Y-50087997D01*
X81552576Y-50106956D01*
X81599588Y-50173616D01*
X81628977Y-50256287D01*
X81667256Y-50343917D01*
X81744418Y-50393451D01*
X81864334Y-50406740D01*
X81932745Y-50401451D01*
X82049515Y-50401376D01*
X82119262Y-50435365D01*
X82143835Y-50504673D01*
X82141367Y-50543002D01*
X82106578Y-50595660D01*
X82029349Y-50632827D01*
X81924498Y-50652673D01*
X81806844Y-50653365D01*
X81691204Y-50633070D01*
X81622824Y-50607114D01*
X81537810Y-50551847D01*
X81467377Y-50484894D01*
X81466289Y-50483524D01*
X81430844Y-50444251D01*
X81391158Y-50422431D01*
X81330766Y-50414031D01*
X81233204Y-50415019D01*
X81192996Y-50416595D01*
X81078449Y-50419341D01*
X81003400Y-50412873D01*
X80948677Y-50392744D01*
X80895105Y-50354507D01*
X80883439Y-50344797D01*
X80798404Y-50253445D01*
X80751836Y-50161052D01*
X80745533Y-50078418D01*
X80781290Y-50016340D01*
X80824934Y-49993048D01*
X80899759Y-49997151D01*
G37*
G36*
X80299723Y-49590174D02*
G01*
X80386636Y-49657220D01*
X80432570Y-49765570D01*
X80439397Y-49842215D01*
X80415484Y-49974478D01*
X80348357Y-50070592D01*
X80244932Y-50125259D01*
X80112129Y-50133181D01*
X80068926Y-50125939D01*
X79976858Y-50099838D01*
X79926197Y-50061934D01*
X79899629Y-49996279D01*
X79892802Y-49963703D01*
X79888586Y-49820028D01*
X79929421Y-49701093D01*
X80009297Y-49615357D01*
X80122204Y-49571280D01*
X80174508Y-49567207D01*
X80299723Y-49590174D01*
G37*
%TO.C,U1*%
D11*
X108135740Y-45734238D02*
G75*
G02*
X105969999Y-47547499I-2165740J386738D01*
G01*
X105969999Y-26240000D02*
G75*
G02*
X108135741Y-28053262I1J-2200000D01*
G01*
X92190000Y-47547500D02*
G75*
G02*
X90024258Y-45734239I0J2200002D01*
G01*
X90024258Y-28053262D02*
G75*
G02*
X92189999Y-26240000I2165744J-386742D01*
G01*
X105969999Y-47547500D02*
X92189999Y-47547500D01*
X103580879Y-32234500D02*
X103580879Y-26240000D01*
X103580879Y-32234500D02*
X94579119Y-32234500D01*
X94579119Y-32234500D02*
X94579119Y-26240000D01*
X92189999Y-26240000D02*
X105969999Y-26240000D01*
%TO.C,Q2*%
D13*
X76750000Y-65330000D02*
X76750000Y-68930000D01*
X76761522Y-65291522D02*
G75*
G02*
X81200001Y-67130000I1838478J-1838478D01*
G01*
X81200000Y-67130000D02*
G75*
G02*
X76761522Y-68968478I-2600000J0D01*
G01*
%TO.C,J1*%
X66060000Y-31730000D02*
X73740000Y-31730000D01*
X66060000Y-31730000D02*
X66060000Y-29070000D01*
X73740000Y-31730000D02*
X73740000Y-29070000D01*
X63460000Y-30400000D02*
X63460000Y-29070000D01*
X63460000Y-29070000D02*
X64790000Y-29070000D01*
X66060000Y-29070000D02*
X73740000Y-29070000D01*
%TO.C,J4*%
X50340000Y-71510000D02*
X51590000Y-71510000D01*
X51950000Y-71210000D02*
X51950000Y-70600000D01*
X53250000Y-71210000D02*
X53250000Y-70600000D01*
X51250000Y-70600000D02*
X54750000Y-70600000D01*
X54750000Y-70600000D02*
X54750000Y-65700000D01*
X50340000Y-70260000D02*
X50340000Y-71510000D01*
X50440000Y-69750000D02*
X50640000Y-69750000D01*
X50440000Y-69450000D02*
X50440000Y-69750000D01*
X50540000Y-69450000D02*
X50540000Y-69750000D01*
X50640000Y-69450000D02*
X50440000Y-69450000D01*
X50640000Y-68650000D02*
X51250000Y-68650000D01*
X51250000Y-68650000D02*
X51250000Y-70600000D01*
X54250000Y-68250000D02*
X54250000Y-68050000D01*
X54750000Y-68250000D02*
X54250000Y-68250000D01*
X54750000Y-68150000D02*
X54250000Y-68150000D01*
X54250000Y-68050000D02*
X54750000Y-68050000D01*
X51250000Y-67650000D02*
X50640000Y-67650000D01*
X51250000Y-65700000D02*
X51250000Y-67650000D01*
X54750000Y-65700000D02*
X51250000Y-65700000D01*
X51950000Y-65090000D02*
X51950000Y-65700000D01*
X53250000Y-65090000D02*
X53250000Y-65700000D01*
X50640000Y-65090000D02*
X55360000Y-65090000D01*
X55360000Y-71210000D01*
X50640000Y-71210000D01*
X50640000Y-65090000D01*
%TO.C,J3*%
X114180000Y-46180000D02*
X112800000Y-46180000D01*
X114180000Y-44800000D02*
X114180000Y-46180000D01*
X114180000Y-43530000D02*
X114180000Y-40880000D01*
X114180000Y-43530000D02*
X111420000Y-43530000D01*
X114180000Y-40880000D02*
X111420000Y-40880000D01*
X111420000Y-43530000D02*
X111420000Y-40880000D01*
%TO.C,R4*%
X60250000Y-65830000D02*
X66790000Y-65830000D01*
X66790000Y-68570000D01*
X60250000Y-68570000D01*
X60250000Y-65830000D01*
X67560000Y-67200000D02*
X66790000Y-67200000D01*
X59480000Y-67200000D02*
X60250000Y-67200000D01*
%TO.C,SW1*%
X46120000Y-52040000D02*
X47500000Y-52040000D01*
X46120000Y-53420000D02*
X46120000Y-52040000D01*
X46120000Y-54690000D02*
X46120000Y-59880000D01*
X46120000Y-54690000D02*
X48880000Y-54690000D01*
X46120000Y-59880000D02*
X48880000Y-59880000D01*
X48880000Y-54690000D02*
X48880000Y-59880000D01*
%TO.C,R6*%
X73130000Y-36030000D02*
X79670000Y-36030000D01*
X79670000Y-38770000D01*
X73130000Y-38770000D01*
X73130000Y-36030000D01*
X72360000Y-37400000D02*
X73130000Y-37400000D01*
X80440000Y-37400000D02*
X79670000Y-37400000D01*
%TO.C,R5*%
X56930000Y-35830000D02*
X63470000Y-35830000D01*
X63470000Y-38570000D01*
X56930000Y-38570000D01*
X56930000Y-35830000D01*
X64240000Y-37200000D02*
X63470000Y-37200000D01*
X56160000Y-37200000D02*
X56930000Y-37200000D01*
%TO.C,D2*%
X86230000Y-74600000D02*
X86880000Y-74600000D01*
X87480000Y-73480000D02*
X87480000Y-75720000D01*
X87600000Y-73480000D02*
X87600000Y-75720000D01*
X87720000Y-73480000D02*
X87720000Y-75720000D01*
X91770000Y-74600000D02*
X91120000Y-74600000D01*
X86880000Y-73480000D02*
X91120000Y-73480000D01*
X91120000Y-75720000D01*
X86880000Y-75720000D01*
X86880000Y-73480000D01*
%TO.C,R3*%
X101760000Y-63600000D02*
X100990000Y-63600000D01*
X93680000Y-63600000D02*
X94450000Y-63600000D01*
X94450000Y-62230000D02*
X100990000Y-62230000D01*
X100990000Y-64970000D01*
X94450000Y-64970000D01*
X94450000Y-62230000D01*
%TO.C,R2*%
X93790000Y-57250000D02*
X94560000Y-57250000D01*
X101870000Y-57250000D02*
X101100000Y-57250000D01*
X94560000Y-55880000D02*
X101100000Y-55880000D01*
X101100000Y-58620000D01*
X94560000Y-58620000D01*
X94560000Y-55880000D01*
%TO.C,R1*%
X93880000Y-51000000D02*
X94650000Y-51000000D01*
X101960000Y-51000000D02*
X101190000Y-51000000D01*
X94650000Y-49630000D02*
X101190000Y-49630000D01*
X101190000Y-52370000D01*
X94650000Y-52370000D01*
X94650000Y-49630000D01*
%TO.C,C1*%
X82804775Y-77875000D02*
X82304775Y-77875000D01*
X82554775Y-78125000D02*
X82554775Y-77625000D01*
X80000000Y-78980000D02*
X80000000Y-77440000D01*
X80000000Y-75360000D02*
X80000000Y-73820000D01*
X79960000Y-78980000D02*
X79960000Y-77440000D01*
X79960000Y-75360000D02*
X79960000Y-73820000D01*
X79920000Y-78979000D02*
X79920000Y-77440000D01*
X79920000Y-75360000D02*
X79920000Y-73821000D01*
X79880000Y-78977000D02*
X79880000Y-77440000D01*
X79880000Y-75360000D02*
X79880000Y-73823000D01*
X79840000Y-78975000D02*
X79840000Y-77440000D01*
X79840000Y-75360000D02*
X79840000Y-73825000D01*
X79800000Y-78972000D02*
X79800000Y-77440000D01*
X79800000Y-75360000D02*
X79800000Y-73828000D01*
X79760000Y-78969000D02*
X79760000Y-77440000D01*
X79760000Y-75360000D02*
X79760000Y-73831000D01*
X79720000Y-78965000D02*
X79720000Y-77440000D01*
X79720000Y-75360000D02*
X79720000Y-73835000D01*
X79680000Y-78960000D02*
X79680000Y-77440000D01*
X79680000Y-75360000D02*
X79680000Y-73840000D01*
X79640000Y-78955000D02*
X79640000Y-77440000D01*
X79640000Y-75360000D02*
X79640000Y-73845000D01*
X79600000Y-78949000D02*
X79600000Y-77440000D01*
X79600000Y-75360000D02*
X79600000Y-73851000D01*
X79560000Y-78943000D02*
X79560000Y-77440000D01*
X79560000Y-75360000D02*
X79560000Y-73857000D01*
X79520000Y-78936000D02*
X79520000Y-77440000D01*
X79520000Y-75360000D02*
X79520000Y-73864000D01*
X79480000Y-78928000D02*
X79480000Y-77440000D01*
X79480000Y-75360000D02*
X79480000Y-73872000D01*
X79440000Y-78919000D02*
X79440000Y-77440000D01*
X79440000Y-75360000D02*
X79440000Y-73881000D01*
X79400000Y-78910000D02*
X79400000Y-77440000D01*
X79400000Y-75360000D02*
X79400000Y-73890000D01*
X79360000Y-78901000D02*
X79360000Y-77440000D01*
X79360000Y-75360000D02*
X79360000Y-73899000D01*
X79320000Y-78890000D02*
X79320000Y-77440000D01*
X79320000Y-75360000D02*
X79320000Y-73910000D01*
X79280000Y-78879000D02*
X79280000Y-77440000D01*
X79280000Y-75360000D02*
X79280000Y-73921000D01*
X79240000Y-78867000D02*
X79240000Y-77440000D01*
X79240000Y-75360000D02*
X79240000Y-73933000D01*
X79200000Y-78855000D02*
X79200000Y-77440000D01*
X79200000Y-75360000D02*
X79200000Y-73945000D01*
X79160000Y-78842000D02*
X79160000Y-77440000D01*
X79160000Y-75360000D02*
X79160000Y-73958000D01*
X79120000Y-78828000D02*
X79120000Y-77440000D01*
X79120000Y-75360000D02*
X79120000Y-73972000D01*
X79080000Y-78813000D02*
X79080000Y-77440000D01*
X79080000Y-75360000D02*
X79080000Y-73987000D01*
X79040000Y-78798000D02*
X79040000Y-77440000D01*
X79040000Y-75360000D02*
X79040000Y-74002000D01*
X79000000Y-78782000D02*
X79000000Y-77440000D01*
X79000000Y-75360000D02*
X79000000Y-74018000D01*
X78960000Y-78765000D02*
X78960000Y-77440000D01*
X78960000Y-75360000D02*
X78960000Y-74035000D01*
X78920000Y-78747000D02*
X78920000Y-77440000D01*
X78920000Y-75360000D02*
X78920000Y-74053000D01*
X78880000Y-78729000D02*
X78880000Y-77440000D01*
X78880000Y-75360000D02*
X78880000Y-74071000D01*
X78840000Y-78709000D02*
X78840000Y-77440000D01*
X78840000Y-75360000D02*
X78840000Y-74091000D01*
X78800000Y-78689000D02*
X78800000Y-77440000D01*
X78800000Y-75360000D02*
X78800000Y-74111000D01*
X78760000Y-78668000D02*
X78760000Y-77440000D01*
X78760000Y-75360000D02*
X78760000Y-74132000D01*
X78720000Y-78646000D02*
X78720000Y-77440000D01*
X78720000Y-75360000D02*
X78720000Y-74154000D01*
X78680000Y-78623000D02*
X78680000Y-77440000D01*
X78680000Y-75360000D02*
X78680000Y-74177000D01*
X78640000Y-78599000D02*
X78640000Y-77440000D01*
X78640000Y-75360000D02*
X78640000Y-74201000D01*
X78600000Y-78575000D02*
X78600000Y-77440000D01*
X78600000Y-75360000D02*
X78600000Y-74225000D01*
X78560000Y-78549000D02*
X78560000Y-77440000D01*
X78560000Y-75360000D02*
X78560000Y-74251000D01*
X78520000Y-78522000D02*
X78520000Y-77440000D01*
X78520000Y-75360000D02*
X78520000Y-74278000D01*
X78480000Y-78494000D02*
X78480000Y-77440000D01*
X78480000Y-75360000D02*
X78480000Y-74306000D01*
X78440000Y-78465000D02*
X78440000Y-77440000D01*
X78440000Y-75360000D02*
X78440000Y-74335000D01*
X78400000Y-78435000D02*
X78400000Y-77440000D01*
X78400000Y-75360000D02*
X78400000Y-74365000D01*
X78360000Y-78403000D02*
X78360000Y-77440000D01*
X78360000Y-75360000D02*
X78360000Y-74397000D01*
X78320000Y-78370000D02*
X78320000Y-77440000D01*
X78320000Y-75360000D02*
X78320000Y-74430000D01*
X78280000Y-78336000D02*
X78280000Y-77440000D01*
X78280000Y-75360000D02*
X78280000Y-74464000D01*
X78240000Y-78301000D02*
X78240000Y-77440000D01*
X78240000Y-75360000D02*
X78240000Y-74499000D01*
X78200000Y-78264000D02*
X78200000Y-77440000D01*
X78200000Y-75360000D02*
X78200000Y-74536000D01*
X78160000Y-78225000D02*
X78160000Y-77440000D01*
X78160000Y-75360000D02*
X78160000Y-74575000D01*
X78120000Y-78185000D02*
X78120000Y-77440000D01*
X78120000Y-75360000D02*
X78120000Y-74615000D01*
X78080000Y-78143000D02*
X78080000Y-77440000D01*
X78080000Y-75360000D02*
X78080000Y-74657000D01*
X78040000Y-78099000D02*
X78040000Y-77440000D01*
X78040000Y-75360000D02*
X78040000Y-74701000D01*
X78000000Y-78052000D02*
X78000000Y-77440000D01*
X78000000Y-75360000D02*
X78000000Y-74748000D01*
X77960000Y-78004000D02*
X77960000Y-74796000D01*
X77920000Y-77953000D02*
X77920000Y-74847000D01*
X77880000Y-77899000D02*
X77880000Y-74901000D01*
X77840000Y-77843000D02*
X77840000Y-74957000D01*
X77800000Y-77783000D02*
X77800000Y-75017000D01*
X77760000Y-77719000D02*
X77760000Y-75081000D01*
X77720000Y-77651000D02*
X77720000Y-75149000D01*
X77680000Y-77577000D02*
X77680000Y-75223000D01*
X77640000Y-77498000D02*
X77640000Y-75302000D01*
X77600000Y-77411000D02*
X77600000Y-75389000D01*
X77560000Y-77314000D02*
X77560000Y-75486000D01*
X77520000Y-77205000D02*
X77520000Y-75595000D01*
X77480000Y-77077000D02*
X77480000Y-75723000D01*
X77440000Y-76917000D02*
X77440000Y-75883000D01*
X77400000Y-76683000D02*
X77400000Y-76117000D01*
X82620000Y-76400000D02*
G75*
G02*
X77380000Y-76400000I-2620000J0D01*
G01*
X77380000Y-76400000D02*
G75*
G02*
X82620000Y-76400000I2620000J0D01*
G01*
%TO.C,J2*%
X75130000Y-75120000D02*
X75130000Y-76500000D01*
X73750000Y-75120000D02*
X75130000Y-75120000D01*
X72480000Y-75120000D02*
X59670000Y-75120000D01*
X72480000Y-75120000D02*
X72480000Y-77880000D01*
X59670000Y-75120000D02*
X59670000Y-77880000D01*
X72480000Y-77880000D02*
X59670000Y-77880000D01*
%TO.C,BZ1*%
X109050000Y-73750000D02*
G75*
G02*
X96850000Y-73750000I-6100000J0D01*
G01*
X96850000Y-73750000D02*
G75*
G02*
X109050000Y-73750000I6100000J0D01*
G01*
%TO.C,D3*%
X114545000Y-55201500D02*
X114080000Y-55201500D01*
X111920000Y-55201500D02*
X111455000Y-55201500D01*
X114544830Y-55201500D02*
G75*
G02*
X114080827Y-60549315I-1544830J-2560000D01*
G01*
X114080000Y-55506816D02*
G75*
G02*
X114080429Y-60015979I-1080000J-2254684D01*
G01*
X111919571Y-60015979D02*
G75*
G02*
X111920000Y-55506816I1080429J2254479D01*
G01*
X111919173Y-60549315D02*
G75*
G02*
X111455170Y-55201500I1080827J2787815D01*
G01*
%TD*%
M02*
